G04*
G04 #@! TF.GenerationSoftware,Altium Limited,Altium Designer,21.1.1 (26)*
G04*
G04 Layer_Color=8388736*
%FSLAX25Y25*%
%MOIN*%
G70*
G04*
G04 #@! TF.SameCoordinates,3677F01D-BDC3-49B7-9324-C1A4C2B8551F*
G04*
G04*
G04 #@! TF.FilePolarity,Negative*
G04*
G01*
G75*
%ADD37R,0.04331X0.03937*%
%ADD38R,0.04134X0.03740*%
%ADD39R,0.03740X0.04134*%
%ADD40R,0.03937X0.04331*%
G04:AMPARAMS|DCode=41|XSize=27.56mil|YSize=68.9mil|CornerRadius=3.98mil|HoleSize=0mil|Usage=FLASHONLY|Rotation=270.000|XOffset=0mil|YOffset=0mil|HoleType=Round|Shape=RoundedRectangle|*
%AMROUNDEDRECTD41*
21,1,0.02756,0.06095,0,0,270.0*
21,1,0.01961,0.06890,0,0,270.0*
1,1,0.00795,-0.03047,-0.00980*
1,1,0.00795,-0.03047,0.00980*
1,1,0.00795,0.03047,0.00980*
1,1,0.00795,0.03047,-0.00980*
%
%ADD41ROUNDEDRECTD41*%
%ADD42R,0.07087X0.10236*%
%ADD43R,0.07480X0.05512*%
%ADD44R,0.05512X0.07480*%
%ADD45R,0.03543X0.03543*%
%ADD46R,0.02559X0.05512*%
%ADD47R,0.02638X0.05906*%
%ADD48R,0.05118X0.05118*%
%ADD49R,0.06299X0.06693*%
%ADD50R,0.03543X0.03543*%
%ADD51R,0.02362X0.02362*%
%ADD52R,0.06890X0.05118*%
%ADD53R,0.05118X0.06890*%
%ADD54O,0.12394X0.06394*%
%ADD55R,0.15984X0.09016*%
%ADD56O,0.15984X0.09016*%
%ADD57C,0.09094*%
%ADD58C,0.31890*%
%ADD59C,0.14905*%
%ADD60C,0.08957*%
%ADD61C,0.07480*%
%ADD62O,0.10630X0.15748*%
%ADD63C,0.07874*%
%ADD64C,0.05236*%
%ADD65R,0.05236X0.05236*%
%ADD66C,0.08839*%
%ADD67O,0.10236X0.07284*%
%ADD68O,0.06500X0.61000*%
%ADD69C,0.03394*%
%ADD70C,0.03594*%
D37*
X760000Y343400D02*
D03*
Y348715D02*
D03*
X736000Y226185D02*
D03*
Y231500D02*
D03*
X652000Y170500D02*
D03*
Y175815D02*
D03*
X766900Y176315D02*
D03*
Y171000D02*
D03*
X760000Y315500D02*
D03*
Y320815D02*
D03*
X655000Y313843D02*
D03*
Y319158D02*
D03*
X759000Y171185D02*
D03*
Y176500D02*
D03*
X735000Y265815D02*
D03*
Y260500D02*
D03*
X741000Y265815D02*
D03*
Y260500D02*
D03*
X664000Y252500D02*
D03*
Y257815D02*
D03*
X670000Y252500D02*
D03*
Y257815D02*
D03*
X676000Y252500D02*
D03*
Y257815D02*
D03*
X747000Y265815D02*
D03*
Y260500D02*
D03*
X738000Y237842D02*
D03*
Y243158D02*
D03*
X662000Y237185D02*
D03*
Y242500D02*
D03*
X668000Y237185D02*
D03*
Y242500D02*
D03*
X674000Y237185D02*
D03*
Y242500D02*
D03*
X122000Y165685D02*
D03*
Y171000D02*
D03*
X72400Y226443D02*
D03*
Y231757D02*
D03*
X231000Y194185D02*
D03*
Y199500D02*
D03*
X126000Y316500D02*
D03*
Y321815D02*
D03*
X229000Y321004D02*
D03*
Y326319D02*
D03*
X146000Y276500D02*
D03*
X143000Y257842D02*
D03*
X135000Y238158D02*
D03*
X141000D02*
D03*
X147000D02*
D03*
X125000Y187843D02*
D03*
Y193157D02*
D03*
X141000Y232842D02*
D03*
X147000D02*
D03*
X135000D02*
D03*
X143000Y263158D02*
D03*
X146000Y271185D02*
D03*
X218000Y242500D02*
D03*
Y247815D02*
D03*
X212000Y242500D02*
D03*
Y247815D02*
D03*
X206000Y242500D02*
D03*
Y247815D02*
D03*
Y259185D02*
D03*
Y264500D02*
D03*
X212000Y259185D02*
D03*
Y264500D02*
D03*
X218000Y259185D02*
D03*
Y264500D02*
D03*
X121800Y341415D02*
D03*
Y336100D02*
D03*
D38*
X263500Y148441D02*
D03*
Y153559D02*
D03*
X261000Y302382D02*
D03*
Y307500D02*
D03*
X781800Y238518D02*
D03*
Y233400D02*
D03*
X102000Y267618D02*
D03*
Y262500D02*
D03*
X616000Y154500D02*
D03*
Y159618D02*
D03*
Y330941D02*
D03*
Y336059D02*
D03*
D39*
X736441Y250500D02*
D03*
X741559D02*
D03*
X753118D02*
D03*
X748000D02*
D03*
Y230842D02*
D03*
X742882D02*
D03*
X750559Y237500D02*
D03*
X745441D02*
D03*
X659118Y162500D02*
D03*
X654000D02*
D03*
X661559Y306500D02*
D03*
X656441D02*
D03*
X227559Y333500D02*
D03*
X222441D02*
D03*
X128441Y249500D02*
D03*
X133559D02*
D03*
X145559D02*
D03*
X140441D02*
D03*
X131441Y263500D02*
D03*
X136559D02*
D03*
X134441Y270500D02*
D03*
X139559D02*
D03*
X228559Y207500D02*
D03*
X223441D02*
D03*
D40*
X793800Y233400D02*
D03*
X788485D02*
D03*
X800800D02*
D03*
X806115D02*
D03*
X690343Y142500D02*
D03*
X695657D02*
D03*
X667685Y353500D02*
D03*
X673000D02*
D03*
X675343Y273500D02*
D03*
X680657D02*
D03*
X675343Y278500D02*
D03*
X680657D02*
D03*
X675343Y267500D02*
D03*
X680657D02*
D03*
X681000Y217500D02*
D03*
X675685D02*
D03*
X681000Y223500D02*
D03*
X675685D02*
D03*
X681000Y229500D02*
D03*
X675685D02*
D03*
X203685Y157500D02*
D03*
X209000D02*
D03*
X199685Y351500D02*
D03*
X205000D02*
D03*
X83657Y267500D02*
D03*
X95315D02*
D03*
X78342D02*
D03*
X90000D02*
D03*
X201343Y221500D02*
D03*
X206658D02*
D03*
X201343Y227500D02*
D03*
X206658D02*
D03*
X201343Y233500D02*
D03*
X206658D02*
D03*
X205315Y271500D02*
D03*
X200000D02*
D03*
X205315Y283500D02*
D03*
X200000D02*
D03*
X205315Y277500D02*
D03*
X200000D02*
D03*
D41*
X727193Y246000D02*
D03*
X688807Y266000D02*
D03*
Y261000D02*
D03*
Y256000D02*
D03*
Y251000D02*
D03*
Y246000D02*
D03*
Y241000D02*
D03*
Y236000D02*
D03*
Y231000D02*
D03*
X727193Y266000D02*
D03*
Y261000D02*
D03*
Y256000D02*
D03*
Y251000D02*
D03*
Y241000D02*
D03*
Y236000D02*
D03*
Y231000D02*
D03*
X154807Y255000D02*
D03*
X193193Y235000D02*
D03*
Y240000D02*
D03*
Y245000D02*
D03*
Y250000D02*
D03*
Y255000D02*
D03*
Y260000D02*
D03*
Y265000D02*
D03*
Y270000D02*
D03*
X154807Y235000D02*
D03*
Y240000D02*
D03*
Y245000D02*
D03*
Y250000D02*
D03*
Y260000D02*
D03*
Y265000D02*
D03*
Y270000D02*
D03*
D42*
X262000Y120252D02*
D03*
Y136000D02*
D03*
X248000Y120252D02*
D03*
Y136000D02*
D03*
X634000Y295626D02*
D03*
Y311374D02*
D03*
X261000Y339248D02*
D03*
Y323500D02*
D03*
X246000Y339500D02*
D03*
Y323752D02*
D03*
X632000Y132248D02*
D03*
Y116500D02*
D03*
X618000Y132248D02*
D03*
Y116500D02*
D03*
X620000Y311500D02*
D03*
Y295752D02*
D03*
D43*
X750000Y179209D02*
D03*
Y167791D02*
D03*
X658000Y188500D02*
D03*
Y199917D02*
D03*
X750000Y311791D02*
D03*
Y323209D02*
D03*
X659000Y331500D02*
D03*
Y342917D02*
D03*
X224000Y171500D02*
D03*
Y182917D02*
D03*
X134000Y320917D02*
D03*
Y309500D02*
D03*
X63250Y232209D02*
D03*
Y220791D02*
D03*
X134000Y186083D02*
D03*
Y197500D02*
D03*
D44*
X692709Y153500D02*
D03*
X681291D02*
D03*
X679709Y345500D02*
D03*
X668291D02*
D03*
X212417Y165500D02*
D03*
X201000D02*
D03*
X204000Y343500D02*
D03*
X192583D02*
D03*
X222583Y306000D02*
D03*
X234000D02*
D03*
D45*
X653094Y156000D02*
D03*
X659000D02*
D03*
D46*
X795800Y241593D02*
D03*
X88000Y259307D02*
D03*
D47*
X789894Y241593D02*
D03*
X801705D02*
D03*
X82095Y259307D02*
D03*
X93906D02*
D03*
D48*
X767000Y266500D02*
D03*
Y258626D02*
D03*
X114913Y237437D02*
D03*
Y229563D02*
D03*
D49*
X754205Y262563D02*
D03*
X127709Y233500D02*
D03*
D50*
X781800Y251306D02*
D03*
Y245400D02*
D03*
X661000Y319406D02*
D03*
Y313500D02*
D03*
X224000Y200453D02*
D03*
Y194547D02*
D03*
X223000Y327102D02*
D03*
Y321197D02*
D03*
X102000Y256059D02*
D03*
Y250153D02*
D03*
D51*
X791666Y262400D02*
D03*
X799934D02*
D03*
X83866Y239500D02*
D03*
X92134D02*
D03*
D52*
X253000Y306500D02*
D03*
Y295476D02*
D03*
X255000Y160524D02*
D03*
Y149500D02*
D03*
D53*
X634024Y334500D02*
D03*
X623000D02*
D03*
X635000Y157500D02*
D03*
X623976D02*
D03*
D54*
X110800Y184800D02*
D03*
Y154800D02*
D03*
X80800D02*
D03*
Y164800D02*
D03*
Y174800D02*
D03*
Y184800D02*
D03*
Y353200D02*
D03*
Y343200D02*
D03*
Y333200D02*
D03*
Y323200D02*
D03*
X110800D02*
D03*
Y353200D02*
D03*
X777900Y330774D02*
D03*
Y360774D02*
D03*
X807900D02*
D03*
Y350774D02*
D03*
Y340774D02*
D03*
Y330774D02*
D03*
X777700Y162374D02*
D03*
Y192374D02*
D03*
X807700D02*
D03*
Y182374D02*
D03*
Y172374D02*
D03*
Y162374D02*
D03*
D55*
X600000Y299500D02*
D03*
Y121500D02*
D03*
X283000Y339500D02*
D03*
Y162500D02*
D03*
D56*
X600000Y329500D02*
D03*
Y339500D02*
D03*
Y319500D02*
D03*
Y151500D02*
D03*
Y161500D02*
D03*
Y141500D02*
D03*
X283000Y319500D02*
D03*
Y299500D02*
D03*
Y309500D02*
D03*
Y142500D02*
D03*
Y122500D02*
D03*
Y132500D02*
D03*
D57*
X518000Y80000D02*
D03*
X394000Y118000D02*
D03*
X370000Y98000D02*
D03*
X478000Y76000D02*
D03*
X642000Y184000D02*
D03*
X644000Y348000D02*
D03*
X242000Y284500D02*
D03*
X260000Y175000D02*
D03*
X25000Y281500D02*
D03*
X761500Y212800D02*
D03*
X72000Y206500D02*
D03*
X77000Y286500D02*
D03*
X215000Y379000D02*
D03*
X684000Y97500D02*
D03*
X214500Y91500D02*
D03*
X660500Y376500D02*
D03*
D58*
X865000Y447500D02*
D03*
X578000Y27500D02*
D03*
Y446500D02*
D03*
X865000Y27500D02*
D03*
X20000Y447500D02*
D03*
Y27500D02*
D03*
D59*
X298000Y91500D02*
D03*
Y191500D02*
D03*
Y270500D02*
D03*
Y370500D02*
D03*
X586000Y271500D02*
D03*
Y371500D02*
D03*
Y192500D02*
D03*
Y92500D02*
D03*
D60*
X26000Y208500D02*
D03*
X46000D02*
D03*
X26000Y235500D02*
D03*
X46000D02*
D03*
X26000Y264500D02*
D03*
X46000D02*
D03*
D61*
X450000Y84500D02*
D03*
X430000D02*
D03*
Y114500D02*
D03*
X450000D02*
D03*
D62*
X462000Y334500D02*
D03*
X422630D02*
D03*
D63*
X410945Y240500D02*
D03*
X470000D02*
D03*
X410945Y147500D02*
D03*
X470000D02*
D03*
X410945Y194000D02*
D03*
X470000D02*
D03*
D64*
X695000Y309658D02*
D03*
X675000D02*
D03*
X685000D02*
D03*
X725000D02*
D03*
X694000Y169500D02*
D03*
X674000D02*
D03*
X684000D02*
D03*
X724000D02*
D03*
X158000Y326500D02*
D03*
Y200342D02*
D03*
X198000Y326500D02*
D03*
X208000D02*
D03*
X188000D02*
D03*
X198000Y200342D02*
D03*
X208000D02*
D03*
X188000D02*
D03*
D65*
X735000Y309658D02*
D03*
X734000Y169500D02*
D03*
X148000Y326500D02*
D03*
Y200342D02*
D03*
D66*
X518000Y51500D02*
D03*
Y31500D02*
D03*
X367000Y51500D02*
D03*
Y31500D02*
D03*
X458000Y51500D02*
D03*
Y31500D02*
D03*
X430000Y51500D02*
D03*
Y31500D02*
D03*
D67*
X38000Y298500D02*
D03*
Y308500D02*
D03*
D68*
X708000Y251500D02*
D03*
X174000D02*
D03*
D69*
X95000Y274000D02*
D03*
X102000Y272500D02*
D03*
X84000Y273500D02*
D03*
X121300Y279400D02*
D03*
X63400Y238500D02*
D03*
X782600Y270500D02*
D03*
X795900Y247200D02*
D03*
X766900Y252400D02*
D03*
X790800Y253400D02*
D03*
X781800Y256400D02*
D03*
X115700Y217200D02*
D03*
X148400Y259700D02*
D03*
X147500Y254400D02*
D03*
X263500Y160000D02*
D03*
X213000Y220000D02*
D03*
Y225000D02*
D03*
Y230000D02*
D03*
Y235500D02*
D03*
X754000Y245000D02*
D03*
X745500Y243500D02*
D03*
X193000Y221500D02*
D03*
Y227500D02*
D03*
X663000Y324000D02*
D03*
X784300Y227400D02*
D03*
X741000Y257445D02*
D03*
X733000Y241000D02*
D03*
X738000Y270500D02*
D03*
X733000D02*
D03*
X757500Y250500D02*
D03*
X736000Y221000D02*
D03*
X747000Y256000D02*
D03*
X735000D02*
D03*
X661500Y217000D02*
D03*
Y222500D02*
D03*
Y227500D02*
D03*
X687000Y228000D02*
D03*
Y218000D02*
D03*
Y223500D02*
D03*
X681000Y242500D02*
D03*
X658000Y182000D02*
D03*
X618000Y141500D02*
D03*
X616000Y150500D02*
D03*
X685000Y142500D02*
D03*
X675500Y153500D02*
D03*
X648000Y155500D02*
D03*
X658000Y175500D02*
D03*
X670000Y262500D02*
D03*
Y268000D02*
D03*
X620000Y321000D02*
D03*
X692500Y282000D02*
D03*
Y277000D02*
D03*
X683000Y255500D02*
D03*
X670000Y273500D02*
D03*
Y278000D02*
D03*
X692500Y272000D02*
D03*
X616000Y326500D02*
D03*
X654500Y323500D02*
D03*
X659500Y326500D02*
D03*
X674000Y339000D02*
D03*
X662500Y353000D02*
D03*
X248000Y144000D02*
D03*
X225000Y249500D02*
D03*
X193000Y233500D02*
D03*
X224000Y166500D02*
D03*
Y189500D02*
D03*
X231000D02*
D03*
X218209Y165250D02*
D03*
X213500Y157500D02*
D03*
X266500Y307500D02*
D03*
X261000Y315500D02*
D03*
X239000Y306000D02*
D03*
X225000Y315000D02*
D03*
X220500D02*
D03*
X195000Y271500D02*
D03*
Y277500D02*
D03*
Y283500D02*
D03*
X218000Y271500D02*
D03*
X210000D02*
D03*
Y277500D02*
D03*
X209500Y283500D02*
D03*
X118309Y241320D02*
D03*
X147000Y227500D02*
D03*
X141000D02*
D03*
X134000Y255000D02*
D03*
X155000Y227500D02*
D03*
X94000Y253500D02*
D03*
X135000Y242500D02*
D03*
X102000Y244500D02*
D03*
X140500Y276500D02*
D03*
X151000D02*
D03*
X138000Y257343D02*
D03*
X147000Y242500D02*
D03*
X141000D02*
D03*
X128500Y244000D02*
D03*
X88000Y253500D02*
D03*
X798300Y227900D02*
D03*
X794300D02*
D03*
X810800Y233400D02*
D03*
X806800Y247400D02*
D03*
X806300Y262400D02*
D03*
X78000Y239500D02*
D03*
X77000Y253000D02*
D03*
X72700Y237100D02*
D03*
X71500Y267000D02*
D03*
D70*
X233900Y207300D02*
D03*
X200100Y265000D02*
D03*
X200000Y240200D02*
D03*
X200500Y258500D02*
D03*
X680794Y236294D02*
D03*
X635000Y171000D02*
D03*
X645500Y329500D02*
D03*
X682000Y261500D02*
D03*
X254000Y166000D02*
D03*
X240500Y295000D02*
D03*
M02*
