G04*
G04 #@! TF.GenerationSoftware,Altium Limited,Altium Designer,21.1.1 (26)*
G04*
G04 Layer_Physical_Order=4*
G04 Layer_Color=16711680*
%FSLAX25Y25*%
%MOIN*%
G70*
G04*
G04 #@! TF.SameCoordinates,3677F01D-BDC3-49B7-9324-C1A4C2B8551F*
G04*
G04*
G04 #@! TF.FilePolarity,Positive*
G04*
G01*
G75*
%ADD63C,0.07874*%
%ADD71C,0.02000*%
%ADD73O,0.12000X0.06000*%
%ADD74C,0.08700*%
%ADD75C,0.31496*%
%ADD76C,0.14512*%
%ADD77C,0.08563*%
%ADD78C,0.07087*%
%ADD79O,0.10236X0.15354*%
%ADD80C,0.04842*%
%ADD81R,0.04842X0.04842*%
%ADD82C,0.08445*%
%ADD83O,0.09843X0.06890*%
%ADD84O,0.05500X0.60000*%
%ADD85C,0.03000*%
%ADD86C,0.03200*%
%ADD87C,0.06200*%
%ADD88R,0.07200X0.07200*%
G36*
X310000Y317500D02*
Y182500D01*
X317500Y175000D01*
X345000D01*
X382500Y137500D01*
Y27500D01*
X375000Y20000D01*
X357500D01*
X350000Y27500D01*
Y122500D01*
X322500Y150000D01*
X282500D01*
X272500Y160000D01*
Y317500D01*
X279000Y324000D01*
X303500D01*
X310000Y317500D01*
D02*
G37*
G36*
X159000Y275500D02*
Y228500D01*
X145000Y214500D01*
X95000D01*
X90000Y219500D01*
X91000Y251500D01*
Y261500D01*
X88000Y264500D01*
Y280500D01*
X90000Y282500D01*
X152000D01*
X159000Y275500D01*
D02*
G37*
G36*
X612000Y303500D02*
Y135500D01*
X606000Y129500D01*
X562000D01*
X538000Y105500D01*
Y23500D01*
X528000Y13500D01*
X512000D01*
X500000Y25500D01*
Y127500D01*
X536000Y163500D01*
X556000D01*
X568000Y175500D01*
Y301500D01*
X576000Y309500D01*
X606000D01*
X612000Y303500D01*
D02*
G37*
G36*
X830000Y265000D02*
Y157500D01*
X820000Y147500D01*
X740000D01*
X728000Y159500D01*
Y248167D01*
X728000Y268000D01*
X735000Y275000D01*
X820000D01*
X830000Y265000D01*
D02*
G37*
%LPC*%
G36*
X283619Y314204D02*
X282381D01*
X281184Y313883D01*
X280112Y313264D01*
X279236Y312388D01*
X278617Y311316D01*
X278296Y310119D01*
Y308881D01*
X278617Y307684D01*
X279236Y306612D01*
X280112Y305736D01*
X281184Y305117D01*
X282381Y304796D01*
X283619D01*
X284816Y305117D01*
X285888Y305736D01*
X286764Y306612D01*
X287383Y307684D01*
X287704Y308881D01*
Y310119D01*
X287383Y311316D01*
X286764Y312388D01*
X285888Y313264D01*
X284816Y313883D01*
X283619Y314204D01*
D02*
G37*
G36*
Y304204D02*
X282381D01*
X281184Y303883D01*
X280112Y303264D01*
X279236Y302388D01*
X278617Y301316D01*
X278296Y300119D01*
Y298881D01*
X278617Y297684D01*
X279236Y296612D01*
X280112Y295736D01*
X281184Y295117D01*
X282381Y294796D01*
X283619D01*
X284816Y295117D01*
X285888Y295736D01*
X286764Y296612D01*
X287383Y297684D01*
X287704Y298881D01*
Y300119D01*
X287383Y301316D01*
X286764Y302388D01*
X285888Y303264D01*
X284816Y303883D01*
X283619Y304204D01*
D02*
G37*
G36*
X298833Y278956D02*
X297167D01*
X295533Y278631D01*
X293995Y277993D01*
X292610Y277068D01*
X291432Y275890D01*
X290507Y274505D01*
X289869Y272967D01*
X289544Y271333D01*
Y269667D01*
X289869Y268034D01*
X290507Y266495D01*
X291432Y265110D01*
X292610Y263932D01*
X293995Y263006D01*
X295533Y262369D01*
X297167Y262044D01*
X298833D01*
X300466Y262369D01*
X302005Y263006D01*
X303390Y263932D01*
X304568Y265110D01*
X305493Y266495D01*
X306131Y268034D01*
X306456Y269667D01*
Y271333D01*
X306131Y272967D01*
X305493Y274505D01*
X304568Y275890D01*
X303390Y277068D01*
X302005Y277993D01*
X300466Y278631D01*
X298833Y278956D01*
D02*
G37*
G36*
Y199956D02*
X297167D01*
X295533Y199631D01*
X293995Y198994D01*
X292610Y198068D01*
X291432Y196890D01*
X290507Y195505D01*
X289869Y193966D01*
X289544Y192333D01*
Y190667D01*
X289869Y189033D01*
X290507Y187495D01*
X291432Y186110D01*
X292610Y184932D01*
X293995Y184007D01*
X295533Y183369D01*
X297167Y183044D01*
X298833D01*
X300466Y183369D01*
X302005Y184007D01*
X303390Y184932D01*
X304568Y186110D01*
X305493Y187495D01*
X306131Y189033D01*
X306456Y190667D01*
Y192333D01*
X306131Y193966D01*
X305493Y195505D01*
X304568Y196890D01*
X303390Y198068D01*
X302005Y198994D01*
X300466Y199631D01*
X298833Y199956D01*
D02*
G37*
G36*
X151356Y279200D02*
X150645D01*
X149958Y279016D01*
X149342Y278660D01*
X148839Y278158D01*
X148484Y277542D01*
X148300Y276855D01*
Y276145D01*
X148484Y275458D01*
X148839Y274842D01*
X149342Y274340D01*
X149958Y273984D01*
X150645Y273800D01*
X151356D01*
X152042Y273984D01*
X152658Y274340D01*
X153161Y274842D01*
X153516Y275458D01*
X153700Y276145D01*
Y276855D01*
X153516Y277542D01*
X153161Y278158D01*
X152658Y278660D01*
X152042Y279016D01*
X151356Y279200D01*
D02*
G37*
G36*
X140856D02*
X140145D01*
X139458Y279016D01*
X138842Y278660D01*
X138339Y278158D01*
X137984Y277542D01*
X137800Y276855D01*
Y276145D01*
X137984Y275458D01*
X138339Y274842D01*
X138842Y274340D01*
X139458Y273984D01*
X140145Y273800D01*
X140856D01*
X141542Y273984D01*
X142158Y274340D01*
X142660Y274842D01*
X143016Y275458D01*
X143200Y276145D01*
Y276855D01*
X143016Y277542D01*
X142660Y278158D01*
X142158Y278660D01*
X141542Y279016D01*
X140856Y279200D01*
D02*
G37*
G36*
X95355Y276700D02*
X94644D01*
X93958Y276516D01*
X93342Y276161D01*
X92839Y275658D01*
X92484Y275042D01*
X92300Y274356D01*
Y273644D01*
X92484Y272958D01*
X92839Y272342D01*
X93342Y271839D01*
X93958Y271484D01*
X94644Y271300D01*
X95355D01*
X96042Y271484D01*
X96658Y271839D01*
X97161Y272342D01*
X97516Y272958D01*
X97700Y273644D01*
Y274356D01*
X97516Y275042D01*
X97161Y275658D01*
X96658Y276161D01*
X96042Y276516D01*
X95355Y276700D01*
D02*
G37*
G36*
X138356Y260043D02*
X137645D01*
X136958Y259858D01*
X136342Y259503D01*
X135839Y259000D01*
X135484Y258385D01*
X135300Y257698D01*
Y256987D01*
X135484Y256300D01*
X135839Y255685D01*
X136342Y255182D01*
X136958Y254826D01*
X137645Y254643D01*
X138356D01*
X139042Y254826D01*
X139658Y255182D01*
X140161Y255685D01*
X140516Y256300D01*
X140700Y256987D01*
Y257698D01*
X140516Y258385D01*
X140161Y259000D01*
X139658Y259503D01*
X139042Y259858D01*
X138356Y260043D01*
D02*
G37*
G36*
X147855Y257100D02*
X147144D01*
X146458Y256916D01*
X145842Y256560D01*
X145340Y256058D01*
X144984Y255442D01*
X144800Y254755D01*
Y254045D01*
X144984Y253358D01*
X145340Y252742D01*
X145842Y252239D01*
X146458Y251884D01*
X147144Y251700D01*
X147855D01*
X148542Y251884D01*
X149158Y252239D01*
X149661Y252742D01*
X150016Y253358D01*
X150200Y254045D01*
Y254755D01*
X150016Y255442D01*
X149661Y256058D01*
X149158Y256560D01*
X148542Y256916D01*
X147855Y257100D01*
D02*
G37*
G36*
X102356Y247200D02*
X101645D01*
X100958Y247016D01*
X100342Y246660D01*
X99840Y246158D01*
X99484Y245542D01*
X99300Y244855D01*
Y244145D01*
X99484Y243458D01*
X99840Y242842D01*
X100342Y242339D01*
X100958Y241984D01*
X101645Y241800D01*
X102356D01*
X103042Y241984D01*
X103658Y242339D01*
X104160Y242842D01*
X104516Y243458D01*
X104700Y244145D01*
Y244855D01*
X104516Y245542D01*
X104160Y246158D01*
X103658Y246660D01*
X103042Y247016D01*
X102356Y247200D01*
D02*
G37*
G36*
X128856Y246700D02*
X128145D01*
X127458Y246516D01*
X126842Y246161D01*
X126339Y245658D01*
X125984Y245042D01*
X125800Y244356D01*
Y243644D01*
X125984Y242958D01*
X126339Y242342D01*
X126842Y241840D01*
X127458Y241484D01*
X128145Y241300D01*
X128856D01*
X129542Y241484D01*
X130158Y241840D01*
X130660Y242342D01*
X131016Y242958D01*
X131200Y243644D01*
Y244356D01*
X131016Y245042D01*
X130660Y245658D01*
X130158Y246161D01*
X129542Y246516D01*
X128856Y246700D01*
D02*
G37*
G36*
X147355Y245200D02*
X146644D01*
X145958Y245016D01*
X145342Y244660D01*
X144840Y244158D01*
X144484Y243542D01*
X144300Y242856D01*
Y242144D01*
X144484Y241458D01*
X144840Y240842D01*
X145342Y240339D01*
X145958Y239984D01*
X146644Y239800D01*
X147355D01*
X148042Y239984D01*
X148658Y240339D01*
X149161Y240842D01*
X149516Y241458D01*
X149700Y242144D01*
Y242856D01*
X149516Y243542D01*
X149161Y244158D01*
X148658Y244660D01*
X148042Y245016D01*
X147355Y245200D01*
D02*
G37*
G36*
X141356D02*
X140645D01*
X139958Y245016D01*
X139342Y244660D01*
X138839Y244158D01*
X138484Y243542D01*
X138300Y242856D01*
Y242144D01*
X138484Y241458D01*
X138839Y240842D01*
X139342Y240339D01*
X139958Y239984D01*
X140645Y239800D01*
X141356D01*
X142042Y239984D01*
X142658Y240339D01*
X143160Y240842D01*
X143516Y241458D01*
X143700Y242144D01*
Y242856D01*
X143516Y243542D01*
X143160Y244158D01*
X142658Y244660D01*
X142042Y245016D01*
X141356Y245200D01*
D02*
G37*
G36*
X135355D02*
X134644D01*
X133958Y245016D01*
X133342Y244660D01*
X132840Y244158D01*
X132484Y243542D01*
X132300Y242856D01*
Y242144D01*
X132484Y241458D01*
X132840Y240842D01*
X133342Y240339D01*
X133958Y239984D01*
X134644Y239800D01*
X135355D01*
X136042Y239984D01*
X136658Y240339D01*
X137161Y240842D01*
X137516Y241458D01*
X137700Y242144D01*
Y242856D01*
X137516Y243542D01*
X137161Y244158D01*
X136658Y244660D01*
X136042Y245016D01*
X135355Y245200D01*
D02*
G37*
G36*
X118664Y244021D02*
X117953D01*
X117266Y243836D01*
X116651Y243481D01*
X116148Y242978D01*
X115793Y242363D01*
X115609Y241676D01*
Y240965D01*
X115793Y240278D01*
X116148Y239663D01*
X116651Y239160D01*
X117266Y238805D01*
X117953Y238620D01*
X118664D01*
X119351Y238805D01*
X119966Y239160D01*
X120469Y239663D01*
X120825Y240278D01*
X121009Y240965D01*
Y241676D01*
X120825Y242363D01*
X120469Y242978D01*
X119966Y243481D01*
X119351Y243836D01*
X118664Y244021D01*
D02*
G37*
G36*
X586833Y279956D02*
X585167D01*
X583533Y279631D01*
X581995Y278994D01*
X580610Y278068D01*
X579432Y276890D01*
X578507Y275505D01*
X577869Y273967D01*
X577544Y272333D01*
Y270667D01*
X577869Y269034D01*
X578507Y267495D01*
X579432Y266110D01*
X580610Y264932D01*
X581995Y264006D01*
X583533Y263369D01*
X585167Y263044D01*
X586833D01*
X588467Y263369D01*
X590005Y264006D01*
X591390Y264932D01*
X592568Y266110D01*
X593494Y267495D01*
X594131Y269034D01*
X594456Y270667D01*
Y272333D01*
X594131Y273967D01*
X593494Y275505D01*
X592568Y276890D01*
X591390Y278068D01*
X590005Y278994D01*
X588467Y279631D01*
X586833Y279956D01*
D02*
G37*
G36*
Y200956D02*
X585167D01*
X583533Y200631D01*
X581995Y199994D01*
X580610Y199068D01*
X579432Y197890D01*
X578507Y196505D01*
X577869Y194966D01*
X577544Y193333D01*
Y191667D01*
X577869Y190033D01*
X578507Y188495D01*
X579432Y187110D01*
X580610Y185932D01*
X581995Y185006D01*
X583533Y184369D01*
X585167Y184044D01*
X586833D01*
X588467Y184369D01*
X590005Y185006D01*
X591390Y185932D01*
X592568Y187110D01*
X593494Y188495D01*
X594131Y190033D01*
X594456Y191667D01*
Y193333D01*
X594131Y194966D01*
X593494Y196505D01*
X592568Y197890D01*
X591390Y199068D01*
X590005Y199994D01*
X588467Y200631D01*
X586833Y200956D01*
D02*
G37*
G36*
X600619Y166204D02*
X599381D01*
X598184Y165883D01*
X597112Y165264D01*
X596236Y164388D01*
X595617Y163316D01*
X595296Y162119D01*
Y160881D01*
X595617Y159684D01*
X596236Y158612D01*
X597112Y157736D01*
X598184Y157117D01*
X599381Y156796D01*
X600619D01*
X601816Y157117D01*
X602888Y157736D01*
X603764Y158612D01*
X604383Y159684D01*
X604704Y160881D01*
Y162119D01*
X604383Y163316D01*
X603764Y164388D01*
X602888Y165264D01*
X601816Y165883D01*
X600619Y166204D01*
D02*
G37*
G36*
Y156204D02*
X599381D01*
X598184Y155883D01*
X597112Y155264D01*
X596236Y154388D01*
X595617Y153316D01*
X595296Y152119D01*
Y150881D01*
X595617Y149684D01*
X596236Y148612D01*
X597112Y147736D01*
X598184Y147117D01*
X599381Y146796D01*
X600619D01*
X601816Y147117D01*
X602888Y147736D01*
X603764Y148612D01*
X604383Y149684D01*
X604704Y150881D01*
Y152119D01*
X604383Y153316D01*
X603764Y154388D01*
X602888Y155264D01*
X601816Y155883D01*
X600619Y156204D01*
D02*
G37*
G36*
X806656Y265100D02*
X805945D01*
X805258Y264916D01*
X804642Y264561D01*
X804140Y264058D01*
X803784Y263442D01*
X803600Y262755D01*
Y262045D01*
X803784Y261358D01*
X804140Y260742D01*
X804642Y260240D01*
X805258Y259884D01*
X805945Y259700D01*
X806656D01*
X807342Y259884D01*
X807958Y260240D01*
X808461Y260742D01*
X808816Y261358D01*
X809000Y262045D01*
Y262755D01*
X808816Y263442D01*
X808461Y264058D01*
X807958Y264561D01*
X807342Y264916D01*
X806656Y265100D01*
D02*
G37*
G36*
X741356Y260145D02*
X740645D01*
X739958Y259961D01*
X739342Y259605D01*
X738839Y259103D01*
X738484Y258487D01*
X738300Y257800D01*
Y257089D01*
X738484Y256403D01*
X738839Y255787D01*
X739342Y255284D01*
X739958Y254929D01*
X740645Y254745D01*
X741356D01*
X742042Y254929D01*
X742658Y255284D01*
X743160Y255787D01*
X743516Y256403D01*
X743700Y257089D01*
Y257800D01*
X743516Y258487D01*
X743160Y259103D01*
X742658Y259605D01*
X742042Y259961D01*
X741356Y260145D01*
D02*
G37*
G36*
X782156Y259100D02*
X781445D01*
X780758Y258916D01*
X780142Y258560D01*
X779639Y258058D01*
X779284Y257442D01*
X779100Y256755D01*
Y256045D01*
X779284Y255358D01*
X779639Y254742D01*
X780142Y254240D01*
X780758Y253884D01*
X781445Y253700D01*
X782156D01*
X782842Y253884D01*
X783458Y254240D01*
X783960Y254742D01*
X784316Y255358D01*
X784500Y256045D01*
Y256755D01*
X784316Y257442D01*
X783960Y258058D01*
X783458Y258560D01*
X782842Y258916D01*
X782156Y259100D01*
D02*
G37*
G36*
X747356Y258700D02*
X746644D01*
X745958Y258516D01*
X745342Y258160D01*
X744839Y257658D01*
X744484Y257042D01*
X744300Y256356D01*
Y255644D01*
X744484Y254958D01*
X744839Y254342D01*
X745342Y253839D01*
X745958Y253484D01*
X746644Y253300D01*
X747356D01*
X748042Y253484D01*
X748658Y253839D01*
X749160Y254342D01*
X749516Y254958D01*
X749700Y255644D01*
Y256356D01*
X749516Y257042D01*
X749160Y257658D01*
X748658Y258160D01*
X748042Y258516D01*
X747356Y258700D01*
D02*
G37*
G36*
X735356D02*
X734645D01*
X733958Y258516D01*
X733342Y258160D01*
X732839Y257658D01*
X732484Y257042D01*
X732300Y256356D01*
Y255644D01*
X732484Y254958D01*
X732839Y254342D01*
X733342Y253839D01*
X733958Y253484D01*
X734645Y253300D01*
X735356D01*
X736042Y253484D01*
X736658Y253839D01*
X737160Y254342D01*
X737516Y254958D01*
X737700Y255644D01*
Y256356D01*
X737516Y257042D01*
X737160Y257658D01*
X736658Y258160D01*
X736042Y258516D01*
X735356Y258700D01*
D02*
G37*
G36*
X767255Y255100D02*
X766544D01*
X765858Y254916D01*
X765242Y254560D01*
X764740Y254058D01*
X764384Y253442D01*
X764200Y252755D01*
Y252045D01*
X764384Y251358D01*
X764740Y250742D01*
X765242Y250239D01*
X765858Y249884D01*
X766544Y249700D01*
X767255D01*
X767942Y249884D01*
X768558Y250239D01*
X769061Y250742D01*
X769416Y251358D01*
X769600Y252045D01*
Y252755D01*
X769416Y253442D01*
X769061Y254058D01*
X768558Y254560D01*
X767942Y254916D01*
X767255Y255100D01*
D02*
G37*
G36*
X757856Y253200D02*
X757144D01*
X756458Y253016D01*
X755842Y252660D01*
X755339Y252158D01*
X754984Y251542D01*
X754800Y250855D01*
Y250145D01*
X754984Y249458D01*
X755339Y248842D01*
X755842Y248340D01*
X756458Y247984D01*
X757144Y247800D01*
X757856D01*
X758542Y247984D01*
X759158Y248340D01*
X759660Y248842D01*
X760016Y249458D01*
X760200Y250145D01*
Y250855D01*
X760016Y251542D01*
X759660Y252158D01*
X759158Y252660D01*
X758542Y253016D01*
X757856Y253200D01*
D02*
G37*
G36*
X807156Y250100D02*
X806444D01*
X805758Y249916D01*
X805142Y249560D01*
X804640Y249058D01*
X804284Y248442D01*
X804100Y247756D01*
Y247044D01*
X804284Y246358D01*
X804640Y245742D01*
X805142Y245239D01*
X805758Y244884D01*
X806444Y244700D01*
X807156D01*
X807842Y244884D01*
X808458Y245239D01*
X808961Y245742D01*
X809316Y246358D01*
X809500Y247044D01*
Y247756D01*
X809316Y248442D01*
X808961Y249058D01*
X808458Y249560D01*
X807842Y249916D01*
X807156Y250100D01*
D02*
G37*
G36*
X796255Y249900D02*
X795544D01*
X794858Y249716D01*
X794242Y249360D01*
X793740Y248858D01*
X793384Y248242D01*
X793200Y247555D01*
Y246845D01*
X793384Y246158D01*
X793740Y245542D01*
X794242Y245040D01*
X794858Y244684D01*
X795544Y244500D01*
X796255D01*
X796942Y244684D01*
X797558Y245040D01*
X798061Y245542D01*
X798416Y246158D01*
X798600Y246845D01*
Y247555D01*
X798416Y248242D01*
X798061Y248858D01*
X797558Y249360D01*
X796942Y249716D01*
X796255Y249900D01*
D02*
G37*
G36*
X745856Y246200D02*
X745145D01*
X744458Y246016D01*
X743842Y245660D01*
X743339Y245158D01*
X742984Y244542D01*
X742800Y243856D01*
Y243144D01*
X742984Y242458D01*
X743339Y241842D01*
X743842Y241339D01*
X744458Y240984D01*
X745145Y240800D01*
X745856D01*
X746542Y240984D01*
X747158Y241339D01*
X747660Y241842D01*
X748016Y242458D01*
X748200Y243144D01*
Y243856D01*
X748016Y244542D01*
X747660Y245158D01*
X747158Y245660D01*
X746542Y246016D01*
X745856Y246200D01*
D02*
G37*
G36*
X811156Y236100D02*
X810445D01*
X809758Y235916D01*
X809142Y235560D01*
X808640Y235058D01*
X808284Y234442D01*
X808100Y233755D01*
Y233045D01*
X808284Y232358D01*
X808640Y231742D01*
X809142Y231240D01*
X809758Y230884D01*
X810445Y230700D01*
X811156D01*
X811842Y230884D01*
X812458Y231240D01*
X812961Y231742D01*
X813316Y232358D01*
X813500Y233045D01*
Y233755D01*
X813316Y234442D01*
X812961Y235058D01*
X812458Y235560D01*
X811842Y235916D01*
X811156Y236100D01*
D02*
G37*
G36*
X798656Y230600D02*
X797944D01*
X797258Y230416D01*
X796642Y230061D01*
X796300Y229718D01*
X795958Y230061D01*
X795342Y230416D01*
X794656Y230600D01*
X793945D01*
X793258Y230416D01*
X792642Y230061D01*
X792139Y229558D01*
X791784Y228942D01*
X791600Y228256D01*
Y227544D01*
X791784Y226858D01*
X792139Y226242D01*
X792642Y225740D01*
X793258Y225384D01*
X793945Y225200D01*
X794656D01*
X795342Y225384D01*
X795958Y225740D01*
X796300Y226082D01*
X796642Y225740D01*
X797258Y225384D01*
X797944Y225200D01*
X798656D01*
X799342Y225384D01*
X799958Y225740D01*
X800461Y226242D01*
X800816Y226858D01*
X801000Y227544D01*
Y228256D01*
X800816Y228942D01*
X800461Y229558D01*
X799958Y230061D01*
X799342Y230416D01*
X798656Y230600D01*
D02*
G37*
G36*
X736355Y223700D02*
X735644D01*
X734958Y223516D01*
X734342Y223161D01*
X733840Y222658D01*
X733484Y222042D01*
X733300Y221356D01*
Y220644D01*
X733484Y219958D01*
X733840Y219342D01*
X734342Y218840D01*
X734958Y218484D01*
X735644Y218300D01*
X736355D01*
X737042Y218484D01*
X737658Y218840D01*
X738161Y219342D01*
X738516Y219958D01*
X738700Y220644D01*
Y221356D01*
X738516Y222042D01*
X738161Y222658D01*
X737658Y223161D01*
X737042Y223516D01*
X736355Y223700D01*
D02*
G37*
G36*
X810700Y196610D02*
X804700D01*
X803604Y196466D01*
X802582Y196043D01*
X801705Y195370D01*
X801031Y194492D01*
X800608Y193471D01*
X800464Y192374D01*
X800608Y191278D01*
X801031Y190256D01*
X801705Y189379D01*
X802582Y188705D01*
X803604Y188282D01*
X804700Y188138D01*
X810700D01*
X811796Y188282D01*
X812818Y188705D01*
X813696Y189379D01*
X814369Y190256D01*
X814792Y191278D01*
X814936Y192374D01*
X814792Y193471D01*
X814369Y194492D01*
X813696Y195370D01*
X812818Y196043D01*
X811796Y196466D01*
X810700Y196610D01*
D02*
G37*
G36*
X780700D02*
X774700D01*
X773604Y196466D01*
X772582Y196043D01*
X771704Y195370D01*
X771031Y194492D01*
X770608Y193471D01*
X770464Y192374D01*
X770608Y191278D01*
X771031Y190256D01*
X771704Y189379D01*
X772582Y188705D01*
X773604Y188282D01*
X774700Y188138D01*
X780700D01*
X781796Y188282D01*
X782818Y188705D01*
X783696Y189379D01*
X784369Y190256D01*
X784792Y191278D01*
X784936Y192374D01*
X784792Y193471D01*
X784369Y194492D01*
X783696Y195370D01*
X782818Y196043D01*
X781796Y196466D01*
X780700Y196610D01*
D02*
G37*
G36*
X810700Y176610D02*
X804700D01*
X803604Y176466D01*
X802582Y176043D01*
X801705Y175370D01*
X801031Y174492D01*
X800608Y173470D01*
X800464Y172374D01*
X800608Y171278D01*
X801031Y170256D01*
X801705Y169379D01*
X802582Y168705D01*
X803604Y168282D01*
X804700Y168138D01*
X810700D01*
X811796Y168282D01*
X812818Y168705D01*
X813696Y169379D01*
X814369Y170256D01*
X814792Y171278D01*
X814936Y172374D01*
X814792Y173470D01*
X814369Y174492D01*
X813696Y175370D01*
X812818Y176043D01*
X811796Y176466D01*
X810700Y176610D01*
D02*
G37*
G36*
X737621Y173121D02*
X730379D01*
Y165879D01*
X737621D01*
Y173121D01*
D02*
G37*
G36*
X810700Y166610D02*
X804700D01*
X803604Y166466D01*
X802582Y166043D01*
X801705Y165370D01*
X801031Y164492D01*
X800608Y163470D01*
X800464Y162374D01*
X800608Y161278D01*
X801031Y160256D01*
X801705Y159379D01*
X802582Y158705D01*
X803604Y158282D01*
X804700Y158138D01*
X810700D01*
X811796Y158282D01*
X812818Y158705D01*
X813696Y159379D01*
X814369Y160256D01*
X814792Y161278D01*
X814936Y162374D01*
X814792Y163470D01*
X814369Y164492D01*
X813696Y165370D01*
X812818Y166043D01*
X811796Y166466D01*
X810700Y166610D01*
D02*
G37*
G36*
X780700D02*
X774700D01*
X773604Y166466D01*
X772582Y166043D01*
X771704Y165370D01*
X771031Y164492D01*
X770608Y163470D01*
X770464Y162374D01*
X770608Y161278D01*
X771031Y160256D01*
X771704Y159379D01*
X772582Y158705D01*
X773604Y158282D01*
X774700Y158138D01*
X780700D01*
X781796Y158282D01*
X782818Y158705D01*
X783696Y159379D01*
X784369Y160256D01*
X784792Y161278D01*
X784936Y162374D01*
X784792Y163470D01*
X784369Y164492D01*
X783696Y165370D01*
X782818Y166043D01*
X781796Y166466D01*
X780700Y166610D01*
D02*
G37*
%LPD*%
D63*
X410945Y240500D02*
D03*
X470000D02*
D03*
X410945Y147500D02*
D03*
X470000D02*
D03*
X410945Y194000D02*
D03*
X470000D02*
D03*
D71*
X121300Y279400D02*
Y301300D01*
X94900Y327700D02*
X121300Y301300D01*
X810900Y350774D02*
X818520Y343154D01*
X807900Y350774D02*
X810900D01*
X818520Y343154D02*
X820846D01*
X827700Y336300D01*
Y324400D02*
Y336300D01*
X782600Y279300D02*
X827700Y324400D01*
X782600Y270500D02*
Y279300D01*
X89300Y327700D02*
X94900D01*
X80800Y333200D02*
X83800D01*
X89300Y327700D01*
X80800Y164800D02*
X91000D01*
X96800Y170600D01*
Y189400D01*
X115700Y208300D01*
Y217200D01*
X200100Y265000D02*
X226500D01*
X207000Y209500D02*
Y233200D01*
X200000Y240200D02*
X207000Y233200D01*
X230500Y269000D02*
Y288500D01*
X658794Y236294D02*
X680794D01*
X635000Y171000D02*
Y212500D01*
X658794Y236294D01*
X645000Y329000D02*
X645500Y329500D01*
X645000Y297000D02*
Y329000D01*
Y297000D02*
X652000Y290000D01*
X671000D01*
X676000Y285000D01*
Y267500D02*
X682000Y261500D01*
X676000Y267500D02*
Y285000D01*
X254000Y166000D02*
Y171000D01*
X250000Y175000D02*
X254000Y171000D01*
X222000Y175000D02*
X250000D01*
X218000Y179000D02*
X222000Y175000D01*
X218000Y179000D02*
Y198500D01*
X207000Y209500D02*
X218000Y198500D01*
X226500Y265000D02*
X230500Y269000D01*
Y288500D02*
X237000Y295000D01*
X240500D01*
D73*
X110800Y184800D02*
D03*
Y154800D02*
D03*
X80800D02*
D03*
Y164800D02*
D03*
Y174800D02*
D03*
Y184800D02*
D03*
Y353200D02*
D03*
Y343200D02*
D03*
Y333200D02*
D03*
Y323200D02*
D03*
X110800D02*
D03*
Y353200D02*
D03*
X777900Y330774D02*
D03*
Y360774D02*
D03*
X807900D02*
D03*
Y350774D02*
D03*
Y340774D02*
D03*
Y330774D02*
D03*
X777700Y162374D02*
D03*
Y192374D02*
D03*
X807700D02*
D03*
Y182374D02*
D03*
Y172374D02*
D03*
Y162374D02*
D03*
D74*
X518000Y80000D02*
D03*
X394000Y118000D02*
D03*
X370000Y98000D02*
D03*
X478000Y76000D02*
D03*
X642000Y184000D02*
D03*
X644000Y348000D02*
D03*
X242000Y284500D02*
D03*
X260000Y175000D02*
D03*
X25000Y281500D02*
D03*
X761500Y212800D02*
D03*
X72000Y206500D02*
D03*
X77000Y286500D02*
D03*
X215000Y379000D02*
D03*
X684000Y97500D02*
D03*
X214500Y91500D02*
D03*
X660500Y376500D02*
D03*
D75*
X865000Y447500D02*
D03*
X578000Y27500D02*
D03*
Y446500D02*
D03*
X865000Y27500D02*
D03*
X20000Y447500D02*
D03*
Y27500D02*
D03*
D76*
X298000Y91500D02*
D03*
Y191500D02*
D03*
Y270500D02*
D03*
Y370500D02*
D03*
X586000Y271500D02*
D03*
Y371500D02*
D03*
Y192500D02*
D03*
Y92500D02*
D03*
D77*
X26000Y208500D02*
D03*
X46000D02*
D03*
X26000Y235500D02*
D03*
X46000D02*
D03*
X26000Y264500D02*
D03*
X46000D02*
D03*
D78*
X450000Y84500D02*
D03*
X430000D02*
D03*
Y114500D02*
D03*
X450000D02*
D03*
D79*
X462000Y334500D02*
D03*
X422630D02*
D03*
D80*
X695000Y309658D02*
D03*
X675000D02*
D03*
X685000D02*
D03*
X725000D02*
D03*
X694000Y169500D02*
D03*
X674000D02*
D03*
X684000D02*
D03*
X724000D02*
D03*
X158000Y326500D02*
D03*
Y200342D02*
D03*
X198000Y326500D02*
D03*
X208000D02*
D03*
X188000D02*
D03*
X198000Y200342D02*
D03*
X208000D02*
D03*
X188000D02*
D03*
D81*
X735000Y309658D02*
D03*
X734000Y169500D02*
D03*
X148000Y326500D02*
D03*
Y200342D02*
D03*
D82*
X518000Y51500D02*
D03*
Y31500D02*
D03*
X367000Y51500D02*
D03*
Y31500D02*
D03*
X458000Y51500D02*
D03*
Y31500D02*
D03*
X430000Y51500D02*
D03*
Y31500D02*
D03*
D83*
X38000Y298500D02*
D03*
Y308500D02*
D03*
D84*
X708000Y251500D02*
D03*
X174000D02*
D03*
D85*
X95000Y274000D02*
D03*
X102000Y272500D02*
D03*
X84000Y273500D02*
D03*
X121300Y279400D02*
D03*
X63400Y238500D02*
D03*
X782600Y270500D02*
D03*
X795900Y247200D02*
D03*
X766900Y252400D02*
D03*
X790800Y253400D02*
D03*
X781800Y256400D02*
D03*
X115700Y217200D02*
D03*
X148400Y259700D02*
D03*
X147500Y254400D02*
D03*
X263500Y160000D02*
D03*
X213000Y220000D02*
D03*
Y225000D02*
D03*
Y230000D02*
D03*
Y235500D02*
D03*
X754000Y245000D02*
D03*
X745500Y243500D02*
D03*
X193000Y221500D02*
D03*
Y227500D02*
D03*
X663000Y324000D02*
D03*
X784300Y227400D02*
D03*
X741000Y257445D02*
D03*
X733000Y241000D02*
D03*
X738000Y270500D02*
D03*
X733000D02*
D03*
X757500Y250500D02*
D03*
X736000Y221000D02*
D03*
X747000Y256000D02*
D03*
X735000D02*
D03*
X661500Y217000D02*
D03*
Y222500D02*
D03*
Y227500D02*
D03*
X687000Y228000D02*
D03*
Y218000D02*
D03*
Y223500D02*
D03*
X681000Y242500D02*
D03*
X658000Y182000D02*
D03*
X618000Y141500D02*
D03*
X616000Y150500D02*
D03*
X685000Y142500D02*
D03*
X675500Y153500D02*
D03*
X648000Y155500D02*
D03*
X658000Y175500D02*
D03*
X670000Y262500D02*
D03*
Y268000D02*
D03*
X620000Y321000D02*
D03*
X692500Y282000D02*
D03*
Y277000D02*
D03*
X683000Y255500D02*
D03*
X670000Y273500D02*
D03*
Y278000D02*
D03*
X692500Y272000D02*
D03*
X616000Y326500D02*
D03*
X654500Y323500D02*
D03*
X659500Y326500D02*
D03*
X674000Y339000D02*
D03*
X662500Y353000D02*
D03*
X248000Y144000D02*
D03*
X225000Y249500D02*
D03*
X193000Y233500D02*
D03*
X224000Y166500D02*
D03*
Y189500D02*
D03*
X231000D02*
D03*
X218209Y165250D02*
D03*
X213500Y157500D02*
D03*
X266500Y307500D02*
D03*
X261000Y315500D02*
D03*
X239000Y306000D02*
D03*
X225000Y315000D02*
D03*
X220500D02*
D03*
X195000Y271500D02*
D03*
Y277500D02*
D03*
Y283500D02*
D03*
X218000Y271500D02*
D03*
X210000D02*
D03*
Y277500D02*
D03*
X209500Y283500D02*
D03*
X118309Y241320D02*
D03*
X147000Y227500D02*
D03*
X141000D02*
D03*
X134000Y255000D02*
D03*
X155000Y227500D02*
D03*
X94000Y253500D02*
D03*
X135000Y242500D02*
D03*
X102000Y244500D02*
D03*
X140500Y276500D02*
D03*
X151000D02*
D03*
X138000Y257343D02*
D03*
X147000Y242500D02*
D03*
X141000D02*
D03*
X128500Y244000D02*
D03*
X88000Y253500D02*
D03*
X798300Y227900D02*
D03*
X794300D02*
D03*
X810800Y233400D02*
D03*
X806800Y247400D02*
D03*
X806300Y262400D02*
D03*
X78000Y239500D02*
D03*
X77000Y253000D02*
D03*
X72700Y237100D02*
D03*
X71500Y267000D02*
D03*
D86*
X233900Y207300D02*
D03*
X200100Y265000D02*
D03*
X200000Y240200D02*
D03*
X200500Y258500D02*
D03*
X680794Y236294D02*
D03*
X635000Y171000D02*
D03*
X645500Y329500D02*
D03*
X682000Y261500D02*
D03*
X254000Y166000D02*
D03*
X240500Y295000D02*
D03*
D87*
X600000Y329500D02*
D03*
Y339500D02*
D03*
Y319500D02*
D03*
Y151500D02*
D03*
Y161500D02*
D03*
Y141500D02*
D03*
X283000Y319500D02*
D03*
Y299500D02*
D03*
Y309500D02*
D03*
Y142500D02*
D03*
Y122500D02*
D03*
Y132500D02*
D03*
D88*
X600000Y299500D02*
D03*
Y121500D02*
D03*
X283000Y339500D02*
D03*
Y162500D02*
D03*
M02*
