G04*
G04 #@! TF.GenerationSoftware,Altium Limited,Altium Designer,21.1.1 (26)*
G04*
G04 Layer_Physical_Order=2*
G04 Layer_Color=36540*
%FSLAX25Y25*%
%MOIN*%
G70*
G04*
G04 #@! TF.SameCoordinates,3677F01D-BDC3-49B7-9324-C1A4C2B8551F*
G04*
G04*
G04 #@! TF.FilePolarity,Positive*
G04*
G01*
G75*
%ADD63C,0.07874*%
%ADD74C,0.08700*%
%ADD75C,0.31496*%
%ADD77C,0.08563*%
%ADD79O,0.10236X0.15354*%
%ADD80C,0.04842*%
%ADD82C,0.08445*%
%ADD83O,0.09843X0.06890*%
%ADD85C,0.03000*%
%ADD87C,0.06200*%
G36*
X325000Y367500D02*
Y267500D01*
X315000Y257500D01*
X203541D01*
X203237Y257897D01*
X203300Y258131D01*
Y258869D01*
X203109Y259581D01*
X202741Y260219D01*
X202219Y260741D01*
X201581Y261109D01*
X200869Y261300D01*
X200131D01*
X199419Y261109D01*
X198781Y260741D01*
X198259Y260219D01*
X198107Y259954D01*
X197611Y259889D01*
X185000Y272500D01*
Y323672D01*
X185500Y323879D01*
X185776Y323602D01*
X186602Y323126D01*
X187523Y322879D01*
X188477D01*
X189398Y323126D01*
X190224Y323602D01*
X190898Y324276D01*
X191375Y325102D01*
X191621Y326023D01*
Y326977D01*
X191375Y327898D01*
X190898Y328724D01*
X190224Y329398D01*
X189398Y329874D01*
X188477Y330121D01*
X187523D01*
X186602Y329874D01*
X185776Y329398D01*
X185500Y329121D01*
X185000Y329328D01*
Y372500D01*
X200000Y387500D01*
X305000D01*
X325000Y367500D01*
D02*
G37*
G36*
X699000D02*
Y310653D01*
X698500Y310587D01*
X698375Y311055D01*
X697898Y311881D01*
X697224Y312555D01*
X696398Y313032D01*
X695477Y313279D01*
X694523D01*
X693602Y313032D01*
X692776Y312555D01*
X692102Y311881D01*
X691625Y311055D01*
X691379Y310134D01*
Y309181D01*
X691625Y308260D01*
X692102Y307434D01*
X692776Y306760D01*
X693602Y306283D01*
X694523Y306036D01*
X695477D01*
X696398Y306283D01*
X697224Y306760D01*
X697898Y307434D01*
X698375Y308260D01*
X698500Y308728D01*
X699000Y308662D01*
Y255000D01*
X692500Y248500D01*
X679500D01*
X678500Y247500D01*
X525000D01*
X486500Y209000D01*
Y40000D01*
X454000Y7500D01*
X216500D01*
X185000Y39000D01*
Y197514D01*
X185500Y197721D01*
X185776Y197445D01*
X186602Y196968D01*
X187523Y196721D01*
X188477D01*
X189398Y196968D01*
X190224Y197445D01*
X190898Y198119D01*
X191375Y198945D01*
X191621Y199866D01*
Y200819D01*
X191375Y201740D01*
X190898Y202566D01*
X190224Y203240D01*
X189398Y203717D01*
X188477Y203964D01*
X187523D01*
X186602Y203717D01*
X185776Y203240D01*
X185500Y202964D01*
X185000Y203171D01*
Y237000D01*
X198000Y250000D01*
X222189D01*
X222300Y249855D01*
Y249145D01*
X222484Y248458D01*
X222839Y247842D01*
X223342Y247340D01*
X223958Y246984D01*
X224644Y246800D01*
X225356D01*
X226042Y246984D01*
X226658Y247340D01*
X227161Y247842D01*
X227516Y248458D01*
X227700Y249145D01*
Y249855D01*
X227811Y250000D01*
X320000D01*
X328000Y242000D01*
Y122500D01*
X361500Y89000D01*
Y88500D01*
X419500D01*
X420000Y88000D01*
X441500Y109500D01*
Y360000D01*
X468500Y387000D01*
X679500D01*
X699000Y367500D01*
D02*
G37*
G36*
X700000Y231000D02*
X699000Y73000D01*
X688500Y62500D01*
X589000D01*
X570000Y81500D01*
Y218500D01*
X590000Y238500D01*
X678387D01*
X678578Y238038D01*
X678553Y238013D01*
X678185Y237375D01*
X677994Y236663D01*
Y235926D01*
X678185Y235213D01*
X678553Y234575D01*
X679075Y234053D01*
X679713Y233685D01*
X680426Y233494D01*
X681163D01*
X681875Y233685D01*
X682513Y234053D01*
X683035Y234575D01*
X683403Y235213D01*
X683594Y235926D01*
Y236663D01*
X683403Y237375D01*
X683035Y238013D01*
X683010Y238038D01*
X683201Y238500D01*
X692500D01*
X700000Y231000D01*
D02*
G37*
G36*
X831500Y457500D02*
X850799Y438201D01*
X850878Y438064D01*
X852230Y436301D01*
X853801Y434730D01*
X855564Y433378D01*
X855701Y433299D01*
X875000Y414000D01*
X875000Y27500D01*
X860000Y12500D01*
X735000D01*
X720000Y27500D01*
Y387500D01*
X705000Y402500D01*
X185000D01*
X165000Y382500D01*
Y37500D01*
X135000Y7500D01*
X35000D01*
X10000Y32500D01*
Y402500D01*
X65000Y457500D01*
X831500Y457500D01*
D02*
G37*
%LPC*%
G36*
X298833Y378956D02*
X297167D01*
X295533Y378631D01*
X293995Y377993D01*
X292610Y377068D01*
X291432Y375890D01*
X290507Y374505D01*
X289869Y372967D01*
X289544Y371333D01*
Y369667D01*
X289869Y368034D01*
X290507Y366495D01*
X291432Y365110D01*
X292610Y363932D01*
X293995Y363006D01*
X295533Y362369D01*
X297167Y362044D01*
X298833D01*
X300466Y362369D01*
X302005Y363006D01*
X303390Y363932D01*
X304568Y365110D01*
X305493Y366495D01*
X306131Y368034D01*
X306456Y369667D01*
Y371333D01*
X306131Y372967D01*
X305493Y374505D01*
X304568Y375890D01*
X303390Y377068D01*
X302005Y377993D01*
X300466Y378631D01*
X298833Y378956D01*
D02*
G37*
G36*
X287800Y344300D02*
X278200D01*
Y334700D01*
X287800D01*
Y344300D01*
D02*
G37*
G36*
X208477Y330121D02*
X207523D01*
X206602Y329874D01*
X205777Y329398D01*
X205102Y328724D01*
X204626Y327898D01*
X204379Y326977D01*
Y326023D01*
X204626Y325102D01*
X205102Y324276D01*
X205777Y323602D01*
X206602Y323126D01*
X207523Y322879D01*
X208477D01*
X209398Y323126D01*
X210224Y323602D01*
X210898Y324276D01*
X211374Y325102D01*
X211621Y326023D01*
Y326977D01*
X211374Y327898D01*
X210898Y328724D01*
X210224Y329398D01*
X209398Y329874D01*
X208477Y330121D01*
D02*
G37*
G36*
X283619Y324204D02*
X282381D01*
X281184Y323883D01*
X280112Y323264D01*
X279236Y322388D01*
X278617Y321316D01*
X278296Y320119D01*
Y318881D01*
X278617Y317684D01*
X279236Y316612D01*
X280112Y315736D01*
X281184Y315117D01*
X282381Y314796D01*
X283619D01*
X284816Y315117D01*
X285888Y315736D01*
X286764Y316612D01*
X287383Y317684D01*
X287704Y318881D01*
Y320119D01*
X287383Y321316D01*
X286764Y322388D01*
X285888Y323264D01*
X284816Y323883D01*
X283619Y324204D01*
D02*
G37*
G36*
Y304204D02*
X282381D01*
X281184Y303883D01*
X280112Y303264D01*
X279236Y302388D01*
X278617Y301316D01*
X278296Y300119D01*
Y298881D01*
X278617Y297684D01*
X279236Y296612D01*
X280112Y295736D01*
X281184Y295117D01*
X282381Y294796D01*
X283619D01*
X284816Y295117D01*
X285888Y295736D01*
X286764Y296612D01*
X287383Y297684D01*
X287704Y298881D01*
Y300119D01*
X287383Y301316D01*
X286764Y302388D01*
X285888Y303264D01*
X284816Y303883D01*
X283619Y304204D01*
D02*
G37*
G36*
X240869Y297800D02*
X240131D01*
X239419Y297609D01*
X238781Y297241D01*
X238259Y296719D01*
X237891Y296081D01*
X237700Y295369D01*
Y294631D01*
X237891Y293919D01*
X238259Y293281D01*
X238781Y292759D01*
X239419Y292391D01*
X240131Y292200D01*
X240869D01*
X241581Y292391D01*
X242219Y292759D01*
X242741Y293281D01*
X243109Y293919D01*
X243300Y294631D01*
Y295369D01*
X243109Y296081D01*
X242741Y296719D01*
X242219Y297241D01*
X241581Y297609D01*
X240869Y297800D01*
D02*
G37*
G36*
X195355Y286200D02*
X194644D01*
X193958Y286016D01*
X193342Y285661D01*
X192840Y285158D01*
X192484Y284542D01*
X192300Y283856D01*
Y283144D01*
X192484Y282458D01*
X192840Y281842D01*
X193342Y281340D01*
X193958Y280984D01*
X194644Y280800D01*
X195355D01*
X196042Y280984D01*
X196658Y281340D01*
X197160Y281842D01*
X197516Y282458D01*
X197700Y283144D01*
Y283856D01*
X197516Y284542D01*
X197160Y285158D01*
X196658Y285661D01*
X196042Y286016D01*
X195355Y286200D01*
D02*
G37*
G36*
X242731Y290050D02*
X241269D01*
X239858Y289672D01*
X238592Y288941D01*
X237559Y287908D01*
X236828Y286642D01*
X236450Y285231D01*
Y283769D01*
X236828Y282358D01*
X237559Y281092D01*
X238592Y280059D01*
X239858Y279328D01*
X241269Y278950D01*
X242731D01*
X244142Y279328D01*
X245408Y280059D01*
X246441Y281092D01*
X247172Y282358D01*
X247550Y283769D01*
Y285231D01*
X247172Y286642D01*
X246441Y287908D01*
X245408Y288941D01*
X244142Y289672D01*
X242731Y290050D01*
D02*
G37*
G36*
X195355Y280200D02*
X194644D01*
X193958Y280016D01*
X193342Y279661D01*
X192840Y279158D01*
X192484Y278542D01*
X192300Y277855D01*
Y277145D01*
X192484Y276458D01*
X192840Y275842D01*
X193342Y275340D01*
X193958Y274984D01*
X194644Y274800D01*
X195355D01*
X196042Y274984D01*
X196658Y275340D01*
X197160Y275842D01*
X197516Y276458D01*
X197700Y277145D01*
Y277855D01*
X197516Y278542D01*
X197160Y279158D01*
X196658Y279661D01*
X196042Y280016D01*
X195355Y280200D01*
D02*
G37*
G36*
Y274200D02*
X194644D01*
X193958Y274016D01*
X193342Y273660D01*
X192840Y273158D01*
X192484Y272542D01*
X192300Y271855D01*
Y271145D01*
X192484Y270458D01*
X192840Y269842D01*
X193342Y269339D01*
X193958Y268984D01*
X194644Y268800D01*
X195355D01*
X196042Y268984D01*
X196658Y269339D01*
X197160Y269842D01*
X197516Y270458D01*
X197700Y271145D01*
Y271855D01*
X197516Y272542D01*
X197160Y273158D01*
X196658Y273660D01*
X196042Y274016D01*
X195355Y274200D01*
D02*
G37*
G36*
X200469Y267800D02*
X199731D01*
X199019Y267609D01*
X198381Y267241D01*
X197859Y266719D01*
X197491Y266081D01*
X197300Y265369D01*
Y264631D01*
X197491Y263919D01*
X197859Y263281D01*
X198381Y262759D01*
X199019Y262391D01*
X199731Y262200D01*
X200469D01*
X201181Y262391D01*
X201819Y262759D01*
X202341Y263281D01*
X202709Y263919D01*
X202900Y264631D01*
Y265369D01*
X202709Y266081D01*
X202341Y266719D01*
X201819Y267241D01*
X201181Y267609D01*
X200469Y267800D01*
D02*
G37*
G36*
X298833Y278956D02*
X297167D01*
X295533Y278631D01*
X293995Y277993D01*
X292610Y277068D01*
X291432Y275890D01*
X290507Y274505D01*
X289869Y272967D01*
X289544Y271333D01*
Y269667D01*
X289869Y268034D01*
X290507Y266495D01*
X291432Y265110D01*
X292610Y263932D01*
X293995Y263006D01*
X295533Y262369D01*
X297167Y262044D01*
X298833D01*
X300466Y262369D01*
X302005Y263006D01*
X303390Y263932D01*
X304568Y265110D01*
X305493Y266495D01*
X306131Y268034D01*
X306456Y269667D01*
Y271333D01*
X306131Y272967D01*
X305493Y274505D01*
X304568Y275890D01*
X303390Y277068D01*
X302005Y277993D01*
X300466Y278631D01*
X298833Y278956D01*
D02*
G37*
G36*
X586833Y379956D02*
X585167D01*
X583533Y379631D01*
X581995Y378994D01*
X580610Y378068D01*
X579432Y376890D01*
X578507Y375505D01*
X577869Y373967D01*
X577544Y372333D01*
Y370667D01*
X577869Y369034D01*
X578507Y367495D01*
X579432Y366110D01*
X580610Y364932D01*
X581995Y364006D01*
X583533Y363369D01*
X585167Y363044D01*
X586833D01*
X588467Y363369D01*
X590005Y364006D01*
X591390Y364932D01*
X592568Y366110D01*
X593494Y367495D01*
X594131Y369034D01*
X594456Y370667D01*
Y372333D01*
X594131Y373967D01*
X593494Y375505D01*
X592568Y376890D01*
X591390Y378068D01*
X590005Y378994D01*
X588467Y379631D01*
X586833Y379956D01*
D02*
G37*
G36*
X644731Y353550D02*
X643269D01*
X641858Y353172D01*
X640592Y352441D01*
X639559Y351408D01*
X638828Y350142D01*
X638450Y348731D01*
Y347269D01*
X638828Y345858D01*
X639559Y344592D01*
X640592Y343559D01*
X641858Y342828D01*
X643269Y342450D01*
X644731D01*
X646142Y342828D01*
X647408Y343559D01*
X648441Y344592D01*
X649172Y345858D01*
X649550Y347269D01*
Y348731D01*
X649172Y350142D01*
X648441Y351408D01*
X647408Y352441D01*
X646142Y353172D01*
X644731Y353550D01*
D02*
G37*
G36*
X600619Y344204D02*
X599381D01*
X598184Y343883D01*
X597112Y343264D01*
X596236Y342388D01*
X595617Y341316D01*
X595296Y340119D01*
Y338881D01*
X595617Y337684D01*
X596236Y336612D01*
X597112Y335736D01*
X598184Y335117D01*
X599381Y334796D01*
X600619D01*
X601816Y335117D01*
X602888Y335736D01*
X603764Y336612D01*
X604383Y337684D01*
X604704Y338881D01*
Y340119D01*
X604383Y341316D01*
X603764Y342388D01*
X602888Y343264D01*
X601816Y343883D01*
X600619Y344204D01*
D02*
G37*
G36*
X645869Y332300D02*
X645131D01*
X644419Y332109D01*
X643781Y331741D01*
X643259Y331219D01*
X642891Y330581D01*
X642700Y329869D01*
Y329131D01*
X642891Y328419D01*
X643259Y327781D01*
X643781Y327259D01*
X644419Y326891D01*
X645131Y326700D01*
X645869D01*
X646581Y326891D01*
X647219Y327259D01*
X647741Y327781D01*
X648109Y328419D01*
X648300Y329131D01*
Y329869D01*
X648109Y330581D01*
X647741Y331219D01*
X647219Y331741D01*
X646581Y332109D01*
X645869Y332300D01*
D02*
G37*
G36*
X675477Y313279D02*
X674523D01*
X673602Y313032D01*
X672777Y312555D01*
X672102Y311881D01*
X671626Y311055D01*
X671379Y310134D01*
Y309181D01*
X671626Y308260D01*
X672102Y307434D01*
X672777Y306760D01*
X673602Y306283D01*
X674523Y306036D01*
X675477D01*
X676398Y306283D01*
X677223Y306760D01*
X677898Y307434D01*
X678374Y308260D01*
X678621Y309181D01*
Y310134D01*
X678374Y311055D01*
X677898Y311881D01*
X677223Y312555D01*
X676398Y313032D01*
X675477Y313279D01*
D02*
G37*
G36*
X604800Y304300D02*
X595200D01*
Y294700D01*
X604800D01*
Y304300D01*
D02*
G37*
G36*
X692856Y284700D02*
X692144D01*
X691458Y284516D01*
X690842Y284160D01*
X690340Y283658D01*
X689984Y283042D01*
X689800Y282355D01*
Y281645D01*
X689984Y280958D01*
X690340Y280342D01*
X690842Y279839D01*
X690997Y279750D01*
Y279250D01*
X690842Y279160D01*
X690340Y278658D01*
X689984Y278042D01*
X689800Y277356D01*
Y276644D01*
X689984Y275958D01*
X690340Y275342D01*
X690842Y274839D01*
X690997Y274750D01*
Y274250D01*
X690842Y274161D01*
X690340Y273658D01*
X689984Y273042D01*
X689800Y272356D01*
Y271644D01*
X689984Y270958D01*
X690340Y270342D01*
X690842Y269840D01*
X691458Y269484D01*
X692144Y269300D01*
X692856D01*
X693542Y269484D01*
X694158Y269840D01*
X694661Y270342D01*
X695016Y270958D01*
X695200Y271644D01*
Y272356D01*
X695016Y273042D01*
X694661Y273658D01*
X694158Y274161D01*
X694003Y274250D01*
Y274750D01*
X694158Y274839D01*
X694661Y275342D01*
X695016Y275958D01*
X695200Y276644D01*
Y277356D01*
X695016Y278042D01*
X694661Y278658D01*
X694158Y279160D01*
X694003Y279250D01*
Y279750D01*
X694158Y279839D01*
X694661Y280342D01*
X695016Y280958D01*
X695200Y281645D01*
Y282355D01*
X695016Y283042D01*
X694661Y283658D01*
X694158Y284160D01*
X693542Y284516D01*
X692856Y284700D01*
D02*
G37*
G36*
X586833Y279956D02*
X585167D01*
X583533Y279631D01*
X581995Y278994D01*
X580610Y278068D01*
X579432Y276890D01*
X578507Y275505D01*
X577869Y273967D01*
X577544Y272333D01*
Y270667D01*
X577869Y269034D01*
X578507Y267495D01*
X579432Y266110D01*
X580610Y264932D01*
X581995Y264006D01*
X583533Y263369D01*
X585167Y263044D01*
X586833D01*
X588467Y263369D01*
X590005Y264006D01*
X591390Y264932D01*
X592568Y266110D01*
X593494Y267495D01*
X594131Y269034D01*
X594456Y270667D01*
Y272333D01*
X594131Y273967D01*
X593494Y275505D01*
X592568Y276890D01*
X591390Y278068D01*
X590005Y278994D01*
X588467Y279631D01*
X586833Y279956D01*
D02*
G37*
G36*
X682369Y264300D02*
X681631D01*
X680919Y264109D01*
X680281Y263741D01*
X679759Y263219D01*
X679391Y262581D01*
X679200Y261869D01*
Y261131D01*
X679391Y260419D01*
X679759Y259781D01*
X680281Y259259D01*
X680919Y258891D01*
X681631Y258700D01*
X682369D01*
X683081Y258891D01*
X683719Y259259D01*
X684241Y259781D01*
X684609Y260419D01*
X684800Y261131D01*
Y261869D01*
X684609Y262581D01*
X684241Y263219D01*
X683719Y263741D01*
X683081Y264109D01*
X682369Y264300D01*
D02*
G37*
G36*
X683356Y258200D02*
X682645D01*
X681958Y258016D01*
X681342Y257661D01*
X680839Y257158D01*
X680484Y256542D01*
X680300Y255855D01*
Y255145D01*
X680484Y254458D01*
X680839Y253842D01*
X681342Y253340D01*
X681958Y252984D01*
X682645Y252800D01*
X683356D01*
X684042Y252984D01*
X684658Y253340D01*
X685160Y253842D01*
X685516Y254458D01*
X685700Y255145D01*
Y255855D01*
X685516Y256542D01*
X685160Y257158D01*
X684658Y257661D01*
X684042Y258016D01*
X683356Y258200D01*
D02*
G37*
G36*
X200369Y243000D02*
X199631D01*
X198919Y242809D01*
X198281Y242441D01*
X197759Y241919D01*
X197391Y241281D01*
X197200Y240569D01*
Y239831D01*
X197391Y239119D01*
X197759Y238481D01*
X198281Y237959D01*
X198919Y237591D01*
X199631Y237400D01*
X200369D01*
X201081Y237591D01*
X201719Y237959D01*
X202241Y238481D01*
X202609Y239119D01*
X202800Y239831D01*
Y240569D01*
X202609Y241281D01*
X202241Y241919D01*
X201719Y242441D01*
X201081Y242809D01*
X200369Y243000D01*
D02*
G37*
G36*
X193356Y236200D02*
X192645D01*
X191958Y236016D01*
X191342Y235661D01*
X190840Y235158D01*
X190484Y234542D01*
X190300Y233856D01*
Y233144D01*
X190484Y232458D01*
X190840Y231842D01*
X191342Y231340D01*
X191958Y230984D01*
X192645Y230800D01*
X193356D01*
X194042Y230984D01*
X194658Y231340D01*
X195160Y231842D01*
X195516Y232458D01*
X195700Y233144D01*
Y233856D01*
X195516Y234542D01*
X195160Y235158D01*
X194658Y235661D01*
X194042Y236016D01*
X193356Y236200D01*
D02*
G37*
G36*
Y230200D02*
X192645D01*
X191958Y230016D01*
X191342Y229661D01*
X190840Y229158D01*
X190484Y228542D01*
X190300Y227855D01*
Y227145D01*
X190484Y226458D01*
X190840Y225842D01*
X191342Y225340D01*
X191958Y224984D01*
X192645Y224800D01*
X193356D01*
X194042Y224984D01*
X194658Y225340D01*
X195160Y225842D01*
X195516Y226458D01*
X195700Y227145D01*
Y227855D01*
X195516Y228542D01*
X195160Y229158D01*
X194658Y229661D01*
X194042Y230016D01*
X193356Y230200D01*
D02*
G37*
G36*
Y224200D02*
X192645D01*
X191958Y224016D01*
X191342Y223660D01*
X190840Y223158D01*
X190484Y222542D01*
X190300Y221855D01*
Y221145D01*
X190484Y220458D01*
X190840Y219842D01*
X191342Y219339D01*
X191958Y218984D01*
X192645Y218800D01*
X193356D01*
X194042Y218984D01*
X194658Y219339D01*
X195160Y219842D01*
X195516Y220458D01*
X195700Y221145D01*
Y221855D01*
X195516Y222542D01*
X195160Y223158D01*
X194658Y223660D01*
X194042Y224016D01*
X193356Y224200D01*
D02*
G37*
G36*
X234269Y210100D02*
X233531D01*
X232819Y209909D01*
X232181Y209541D01*
X231659Y209019D01*
X231291Y208381D01*
X231100Y207669D01*
Y206931D01*
X231291Y206219D01*
X231659Y205581D01*
X232181Y205059D01*
X232819Y204691D01*
X233531Y204500D01*
X234269D01*
X234981Y204691D01*
X235619Y205059D01*
X236141Y205581D01*
X236509Y206219D01*
X236700Y206931D01*
Y207669D01*
X236509Y208381D01*
X236141Y209019D01*
X235619Y209541D01*
X234981Y209909D01*
X234269Y210100D01*
D02*
G37*
G36*
X208477Y203964D02*
X207523D01*
X206602Y203717D01*
X205777Y203240D01*
X205102Y202566D01*
X204626Y201740D01*
X204379Y200819D01*
Y199866D01*
X204626Y198945D01*
X205102Y198119D01*
X205777Y197445D01*
X206602Y196968D01*
X207523Y196721D01*
X208477D01*
X209398Y196968D01*
X210224Y197445D01*
X210898Y198119D01*
X211374Y198945D01*
X211621Y199866D01*
Y200819D01*
X211374Y201740D01*
X210898Y202566D01*
X210224Y203240D01*
X209398Y203717D01*
X208477Y203964D01*
D02*
G37*
G36*
X298833Y199956D02*
X297167D01*
X295533Y199631D01*
X293995Y198994D01*
X292610Y198068D01*
X291432Y196890D01*
X290507Y195505D01*
X289869Y193966D01*
X289544Y192333D01*
Y190667D01*
X289869Y189033D01*
X290507Y187495D01*
X291432Y186110D01*
X292610Y184932D01*
X293995Y184007D01*
X295533Y183369D01*
X297167Y183044D01*
X298833D01*
X300466Y183369D01*
X302005Y184007D01*
X303390Y184932D01*
X304568Y186110D01*
X305493Y187495D01*
X306131Y189033D01*
X306456Y190667D01*
Y192333D01*
X306131Y193966D01*
X305493Y195505D01*
X304568Y196890D01*
X303390Y198068D01*
X302005Y198994D01*
X300466Y199631D01*
X298833Y199956D01*
D02*
G37*
G36*
X260731Y180550D02*
X259269D01*
X257858Y180172D01*
X256592Y179441D01*
X255559Y178408D01*
X254828Y177142D01*
X254450Y175731D01*
Y174269D01*
X254828Y172858D01*
X255559Y171592D01*
X256592Y170559D01*
X257858Y169828D01*
X259269Y169450D01*
X260731D01*
X262142Y169828D01*
X263408Y170559D01*
X264441Y171592D01*
X265172Y172858D01*
X265550Y174269D01*
Y175731D01*
X265172Y177142D01*
X264441Y178408D01*
X263408Y179441D01*
X262142Y180172D01*
X260731Y180550D01*
D02*
G37*
G36*
X254369Y168800D02*
X253631D01*
X252919Y168609D01*
X252281Y168241D01*
X251759Y167719D01*
X251391Y167081D01*
X251200Y166369D01*
Y165631D01*
X251391Y164919D01*
X251759Y164281D01*
X252281Y163759D01*
X252919Y163391D01*
X253631Y163200D01*
X254369D01*
X255081Y163391D01*
X255719Y163759D01*
X256241Y164281D01*
X256609Y164919D01*
X256800Y165631D01*
Y166369D01*
X256609Y167081D01*
X256241Y167719D01*
X255719Y168241D01*
X255081Y168609D01*
X254369Y168800D01*
D02*
G37*
G36*
X287800Y167300D02*
X278200D01*
Y157700D01*
X287800D01*
Y167300D01*
D02*
G37*
G36*
X283619Y127204D02*
X282381D01*
X281184Y126883D01*
X280112Y126264D01*
X279236Y125388D01*
X278617Y124316D01*
X278296Y123119D01*
Y121881D01*
X278617Y120684D01*
X279236Y119612D01*
X280112Y118736D01*
X281184Y118117D01*
X282381Y117796D01*
X283619D01*
X284816Y118117D01*
X285888Y118736D01*
X286764Y119612D01*
X287383Y120684D01*
X287704Y121881D01*
Y123119D01*
X287383Y124316D01*
X286764Y125388D01*
X285888Y126264D01*
X284816Y126883D01*
X283619Y127204D01*
D02*
G37*
G36*
X450625Y119243D02*
X449375D01*
X448169Y118920D01*
X447088Y118296D01*
X446204Y117412D01*
X445580Y116331D01*
X445257Y115124D01*
Y113875D01*
X445580Y112669D01*
X446204Y111588D01*
X447088Y110704D01*
X448169Y110080D01*
X449375Y109757D01*
X450625D01*
X451831Y110080D01*
X452912Y110704D01*
X453796Y111588D01*
X454420Y112669D01*
X454743Y113875D01*
Y115124D01*
X454420Y116331D01*
X453796Y117412D01*
X452912Y118296D01*
X451831Y118920D01*
X450625Y119243D01*
D02*
G37*
G36*
X298833Y99956D02*
X297167D01*
X295533Y99631D01*
X293995Y98993D01*
X292610Y98068D01*
X291432Y96890D01*
X290507Y95505D01*
X289869Y93967D01*
X289544Y92333D01*
Y90667D01*
X289869Y89034D01*
X290507Y87495D01*
X291432Y86110D01*
X292610Y84932D01*
X293995Y84007D01*
X295533Y83369D01*
X297167Y83044D01*
X298833D01*
X300466Y83369D01*
X302005Y84007D01*
X303390Y84932D01*
X304568Y86110D01*
X305493Y87495D01*
X306131Y89034D01*
X306456Y90667D01*
Y92333D01*
X306131Y93967D01*
X305493Y95505D01*
X304568Y96890D01*
X303390Y98068D01*
X302005Y98993D01*
X300466Y99631D01*
X298833Y99956D01*
D02*
G37*
G36*
X450625Y89243D02*
X449375D01*
X448169Y88920D01*
X447088Y88296D01*
X446204Y87413D01*
X445580Y86331D01*
X445257Y85124D01*
Y83876D01*
X445580Y82669D01*
X446204Y81587D01*
X447088Y80704D01*
X448169Y80080D01*
X449375Y79757D01*
X450625D01*
X451831Y80080D01*
X452912Y80704D01*
X453796Y81587D01*
X454420Y82669D01*
X454743Y83876D01*
Y85124D01*
X454420Y86331D01*
X453796Y87413D01*
X452912Y88296D01*
X451831Y88920D01*
X450625Y89243D01*
D02*
G37*
G36*
X430624D02*
X429376D01*
X428169Y88920D01*
X427088Y88296D01*
X426204Y87413D01*
X425580Y86331D01*
X425257Y85124D01*
Y83876D01*
X425580Y82669D01*
X426204Y81587D01*
X427088Y80704D01*
X428169Y80080D01*
X429376Y79757D01*
X430624D01*
X431831Y80080D01*
X432912Y80704D01*
X433796Y81587D01*
X434420Y82669D01*
X434743Y83876D01*
Y85124D01*
X434420Y86331D01*
X433796Y87413D01*
X432912Y88296D01*
X431831Y88920D01*
X430624Y89243D01*
D02*
G37*
G36*
X430714Y56922D02*
X429286D01*
X427907Y56553D01*
X426671Y55839D01*
X425661Y54830D01*
X424947Y53593D01*
X424578Y52214D01*
Y50786D01*
X424947Y49407D01*
X425661Y48171D01*
X426671Y47161D01*
X427907Y46447D01*
X429286Y46078D01*
X430714D01*
X432093Y46447D01*
X433329Y47161D01*
X434339Y48171D01*
X435053Y49407D01*
X435422Y50786D01*
Y52214D01*
X435053Y53593D01*
X434339Y54830D01*
X433329Y55839D01*
X432093Y56553D01*
X430714Y56922D01*
D02*
G37*
G36*
X367714D02*
X366286D01*
X364907Y56553D01*
X363670Y55839D01*
X362661Y54830D01*
X361947Y53593D01*
X361578Y52214D01*
Y50786D01*
X361947Y49407D01*
X362661Y48171D01*
X363670Y47161D01*
X364907Y46447D01*
X366286Y46078D01*
X367714D01*
X369093Y46447D01*
X370329Y47161D01*
X371339Y48171D01*
X372053Y49407D01*
X372422Y50786D01*
Y52214D01*
X372053Y53593D01*
X371339Y54830D01*
X370329Y55839D01*
X369093Y56553D01*
X367714Y56922D01*
D02*
G37*
G36*
X430714Y36922D02*
X429286D01*
X427907Y36553D01*
X426671Y35839D01*
X425661Y34830D01*
X424947Y33593D01*
X424578Y32214D01*
Y30786D01*
X424947Y29407D01*
X425661Y28170D01*
X426671Y27161D01*
X427907Y26447D01*
X429286Y26078D01*
X430714D01*
X432093Y26447D01*
X433329Y27161D01*
X434339Y28170D01*
X435053Y29407D01*
X435422Y30786D01*
Y32214D01*
X435053Y33593D01*
X434339Y34830D01*
X433329Y35839D01*
X432093Y36553D01*
X430714Y36922D01*
D02*
G37*
G36*
X367714D02*
X366286D01*
X364907Y36553D01*
X363670Y35839D01*
X362661Y34830D01*
X361947Y33593D01*
X361578Y32214D01*
Y30786D01*
X361947Y29407D01*
X362661Y28170D01*
X363670Y27161D01*
X364907Y26447D01*
X366286Y26078D01*
X367714D01*
X369093Y26447D01*
X370329Y27161D01*
X371339Y28170D01*
X372053Y29407D01*
X372422Y30786D01*
Y32214D01*
X372053Y33593D01*
X371339Y34830D01*
X370329Y35839D01*
X369093Y36553D01*
X367714Y36922D01*
D02*
G37*
G36*
X687356Y230700D02*
X686645D01*
X685958Y230516D01*
X685342Y230160D01*
X684839Y229658D01*
X684484Y229042D01*
X684300Y228356D01*
Y227644D01*
X684484Y226958D01*
X684839Y226342D01*
X685090Y226091D01*
X685290Y225750D01*
X685090Y225409D01*
X684839Y225158D01*
X684484Y224542D01*
X684300Y223855D01*
Y223145D01*
X684484Y222458D01*
X684839Y221842D01*
X685342Y221340D01*
X685899Y221018D01*
X685933Y220750D01*
X685899Y220482D01*
X685342Y220161D01*
X684839Y219658D01*
X684484Y219042D01*
X684300Y218355D01*
Y217645D01*
X684484Y216958D01*
X684839Y216342D01*
X685342Y215840D01*
X685958Y215484D01*
X686645Y215300D01*
X687356D01*
X688042Y215484D01*
X688658Y215840D01*
X689160Y216342D01*
X689516Y216958D01*
X689700Y217645D01*
Y218355D01*
X689516Y219042D01*
X689160Y219658D01*
X688658Y220161D01*
X688101Y220482D01*
X688067Y220750D01*
X688101Y221018D01*
X688658Y221340D01*
X689160Y221842D01*
X689516Y222458D01*
X689700Y223145D01*
Y223855D01*
X689516Y224542D01*
X689160Y225158D01*
X688910Y225409D01*
X688710Y225750D01*
X688910Y226091D01*
X689160Y226342D01*
X689516Y226958D01*
X689700Y227644D01*
Y228356D01*
X689516Y229042D01*
X689160Y229658D01*
X688658Y230160D01*
X688042Y230516D01*
X687356Y230700D01*
D02*
G37*
G36*
X586833Y200956D02*
X585167D01*
X583533Y200631D01*
X581995Y199994D01*
X580610Y199068D01*
X579432Y197890D01*
X578507Y196505D01*
X577869Y194966D01*
X577544Y193333D01*
Y191667D01*
X577869Y190033D01*
X578507Y188495D01*
X579432Y187110D01*
X580610Y185932D01*
X581995Y185006D01*
X583533Y184369D01*
X585167Y184044D01*
X586833D01*
X588467Y184369D01*
X590005Y185006D01*
X591390Y185932D01*
X592568Y187110D01*
X593494Y188495D01*
X594131Y190033D01*
X594456Y191667D01*
Y193333D01*
X594131Y194966D01*
X593494Y196505D01*
X592568Y197890D01*
X591390Y199068D01*
X590005Y199994D01*
X588467Y200631D01*
X586833Y200956D01*
D02*
G37*
G36*
X642731Y189550D02*
X641269D01*
X639858Y189172D01*
X638592Y188441D01*
X637559Y187408D01*
X636828Y186142D01*
X636450Y184731D01*
Y183269D01*
X636828Y181858D01*
X637559Y180592D01*
X638592Y179559D01*
X639858Y178828D01*
X641269Y178450D01*
X642731D01*
X644142Y178828D01*
X645408Y179559D01*
X646441Y180592D01*
X647172Y181858D01*
X647550Y183269D01*
Y184731D01*
X647172Y186142D01*
X646441Y187408D01*
X645408Y188441D01*
X644142Y189172D01*
X642731Y189550D01*
D02*
G37*
G36*
X635369Y173800D02*
X634631D01*
X633919Y173609D01*
X633281Y173241D01*
X632759Y172719D01*
X632391Y172081D01*
X632200Y171369D01*
Y170631D01*
X632391Y169919D01*
X632759Y169281D01*
X633281Y168759D01*
X633919Y168391D01*
X634631Y168200D01*
X635369D01*
X636081Y168391D01*
X636719Y168759D01*
X637241Y169281D01*
X637609Y169919D01*
X637800Y170631D01*
Y171369D01*
X637609Y172081D01*
X637241Y172719D01*
X636719Y173241D01*
X636081Y173609D01*
X635369Y173800D01*
D02*
G37*
G36*
X694477Y173121D02*
X693523D01*
X692602Y172874D01*
X691777Y172398D01*
X691102Y171723D01*
X690625Y170898D01*
X690379Y169977D01*
Y169023D01*
X690625Y168102D01*
X691102Y167277D01*
X691777Y166602D01*
X692602Y166126D01*
X693523Y165879D01*
X694477D01*
X695398Y166126D01*
X696223Y166602D01*
X696898Y167277D01*
X697374Y168102D01*
X697621Y169023D01*
Y169977D01*
X697374Y170898D01*
X696898Y171723D01*
X696223Y172398D01*
X695398Y172874D01*
X694477Y173121D01*
D02*
G37*
G36*
X674477D02*
X673523D01*
X672602Y172874D01*
X671776Y172398D01*
X671102Y171723D01*
X670625Y170898D01*
X670379Y169977D01*
Y169023D01*
X670625Y168102D01*
X671102Y167277D01*
X671776Y166602D01*
X672602Y166126D01*
X673523Y165879D01*
X674477D01*
X675398Y166126D01*
X676224Y166602D01*
X676898Y167277D01*
X677375Y168102D01*
X677621Y169023D01*
Y169977D01*
X677375Y170898D01*
X676898Y171723D01*
X676224Y172398D01*
X675398Y172874D01*
X674477Y173121D01*
D02*
G37*
G36*
X600619Y166204D02*
X599381D01*
X598184Y165883D01*
X597112Y165264D01*
X596236Y164388D01*
X595617Y163316D01*
X595296Y162119D01*
Y160881D01*
X595617Y159684D01*
X596236Y158612D01*
X597112Y157736D01*
X598184Y157117D01*
X599381Y156796D01*
X600619D01*
X601816Y157117D01*
X602888Y157736D01*
X603764Y158612D01*
X604383Y159684D01*
X604704Y160881D01*
Y162119D01*
X604383Y163316D01*
X603764Y164388D01*
X602888Y165264D01*
X601816Y165883D01*
X600619Y166204D01*
D02*
G37*
G36*
Y146204D02*
X599381D01*
X598184Y145883D01*
X597112Y145264D01*
X596236Y144388D01*
X595617Y143316D01*
X595296Y142119D01*
Y140881D01*
X595617Y139684D01*
X596236Y138612D01*
X597112Y137736D01*
X598184Y137117D01*
X599381Y136796D01*
X600619D01*
X601816Y137117D01*
X602888Y137736D01*
X603764Y138612D01*
X604383Y139684D01*
X604704Y140881D01*
Y142119D01*
X604383Y143316D01*
X603764Y144388D01*
X602888Y145264D01*
X601816Y145883D01*
X600619Y146204D01*
D02*
G37*
G36*
X604800Y126300D02*
X595200D01*
Y116700D01*
X604800D01*
Y126300D01*
D02*
G37*
G36*
X586833Y100956D02*
X585167D01*
X583533Y100631D01*
X581995Y99993D01*
X580610Y99068D01*
X579432Y97890D01*
X578507Y96505D01*
X577869Y94967D01*
X577544Y93333D01*
Y91667D01*
X577869Y90034D01*
X578507Y88495D01*
X579432Y87110D01*
X580610Y85932D01*
X581995Y85006D01*
X583533Y84369D01*
X585167Y84044D01*
X586833D01*
X588467Y84369D01*
X590005Y85006D01*
X591390Y85932D01*
X592568Y87110D01*
X593494Y88495D01*
X594131Y90034D01*
X594456Y91667D01*
Y93333D01*
X594131Y94967D01*
X593494Y96505D01*
X592568Y97890D01*
X591390Y99068D01*
X590005Y99993D01*
X588467Y100631D01*
X586833Y100956D01*
D02*
G37*
G36*
X810900Y365010D02*
X804900D01*
X803804Y364866D01*
X802782Y364443D01*
X801904Y363770D01*
X801231Y362892D01*
X800808Y361871D01*
X800664Y360774D01*
X800808Y359678D01*
X801231Y358656D01*
X801904Y357779D01*
X802782Y357105D01*
X803804Y356682D01*
X804900Y356538D01*
X810900D01*
X811996Y356682D01*
X813018Y357105D01*
X813896Y357779D01*
X814569Y358656D01*
X814992Y359678D01*
X815136Y360774D01*
X814992Y361871D01*
X814569Y362892D01*
X813896Y363770D01*
X813018Y364443D01*
X811996Y364866D01*
X810900Y365010D01*
D02*
G37*
G36*
X780900D02*
X774900D01*
X773804Y364866D01*
X772782Y364443D01*
X771905Y363770D01*
X771231Y362892D01*
X770808Y361871D01*
X770664Y360774D01*
X770808Y359678D01*
X771231Y358656D01*
X771905Y357779D01*
X772782Y357105D01*
X773804Y356682D01*
X774900Y356538D01*
X780900D01*
X781996Y356682D01*
X783018Y357105D01*
X783895Y357779D01*
X784569Y358656D01*
X784992Y359678D01*
X785136Y360774D01*
X784992Y361871D01*
X784569Y362892D01*
X783895Y363770D01*
X783018Y364443D01*
X781996Y364866D01*
X780900Y365010D01*
D02*
G37*
G36*
X113800Y357436D02*
X107800D01*
X106704Y357292D01*
X105682Y356869D01*
X104805Y356195D01*
X104131Y355318D01*
X103708Y354296D01*
X103564Y353200D01*
X103708Y352104D01*
X104131Y351082D01*
X104805Y350204D01*
X105682Y349531D01*
X106704Y349108D01*
X107800Y348964D01*
X113800D01*
X114896Y349108D01*
X115918Y349531D01*
X116796Y350204D01*
X117469Y351082D01*
X117892Y352104D01*
X118036Y353200D01*
X117892Y354296D01*
X117469Y355318D01*
X116796Y356195D01*
X115918Y356869D01*
X114896Y357292D01*
X113800Y357436D01*
D02*
G37*
G36*
X83800D02*
X77800D01*
X76704Y357292D01*
X75682Y356869D01*
X74805Y356195D01*
X74131Y355318D01*
X73708Y354296D01*
X73564Y353200D01*
X73708Y352104D01*
X74131Y351082D01*
X74805Y350204D01*
X75682Y349531D01*
X76704Y349108D01*
X77800Y348964D01*
X83800D01*
X84896Y349108D01*
X85918Y349531D01*
X86796Y350204D01*
X87469Y351082D01*
X87892Y352104D01*
X88036Y353200D01*
X87892Y354296D01*
X87469Y355318D01*
X86796Y356195D01*
X85918Y356869D01*
X84896Y357292D01*
X83800Y357436D01*
D02*
G37*
G36*
X810900Y355010D02*
X804900D01*
X803804Y354866D01*
X802782Y354443D01*
X801904Y353769D01*
X801231Y352892D01*
X800808Y351870D01*
X800664Y350774D01*
X800808Y349678D01*
X801231Y348656D01*
X801904Y347779D01*
X802782Y347105D01*
X803804Y346682D01*
X804900Y346538D01*
X810900D01*
X811996Y346682D01*
X813018Y347105D01*
X813896Y347779D01*
X814569Y348656D01*
X814992Y349678D01*
X815136Y350774D01*
X814992Y351870D01*
X814569Y352892D01*
X813896Y353769D01*
X813018Y354443D01*
X811996Y354866D01*
X810900Y355010D01*
D02*
G37*
G36*
X83800Y347436D02*
X77800D01*
X76704Y347292D01*
X75682Y346869D01*
X74805Y346196D01*
X74131Y345318D01*
X73708Y344296D01*
X73564Y343200D01*
X73708Y342104D01*
X74131Y341082D01*
X74805Y340205D01*
X75682Y339531D01*
X76704Y339108D01*
X77800Y338964D01*
X83800D01*
X84896Y339108D01*
X85918Y339531D01*
X86796Y340205D01*
X87469Y341082D01*
X87892Y342104D01*
X88036Y343200D01*
X87892Y344296D01*
X87469Y345318D01*
X86796Y346196D01*
X85918Y346869D01*
X84896Y347292D01*
X83800Y347436D01*
D02*
G37*
G36*
X810900Y345010D02*
X804900D01*
X803804Y344866D01*
X802782Y344443D01*
X801904Y343770D01*
X801231Y342892D01*
X800808Y341870D01*
X800664Y340774D01*
X800808Y339678D01*
X801231Y338656D01*
X801904Y337779D01*
X802782Y337105D01*
X803804Y336682D01*
X804900Y336538D01*
X810900D01*
X811996Y336682D01*
X813018Y337105D01*
X813896Y337779D01*
X814569Y338656D01*
X814992Y339678D01*
X815136Y340774D01*
X814992Y341870D01*
X814569Y342892D01*
X813896Y343770D01*
X813018Y344443D01*
X811996Y344866D01*
X810900Y345010D01*
D02*
G37*
G36*
X83800Y337436D02*
X77800D01*
X76704Y337292D01*
X75682Y336869D01*
X74805Y336195D01*
X74131Y335318D01*
X73708Y334296D01*
X73564Y333200D01*
X73708Y332104D01*
X74131Y331082D01*
X74805Y330205D01*
X75682Y329531D01*
X76704Y329108D01*
X77800Y328964D01*
X83800D01*
X84896Y329108D01*
X85918Y329531D01*
X86796Y330205D01*
X87469Y331082D01*
X87892Y332104D01*
X88036Y333200D01*
X87892Y334296D01*
X87469Y335318D01*
X86796Y336195D01*
X85918Y336869D01*
X84896Y337292D01*
X83800Y337436D01*
D02*
G37*
G36*
X810900Y335010D02*
X804900D01*
X803804Y334866D01*
X802782Y334443D01*
X801904Y333769D01*
X801231Y332892D01*
X800808Y331871D01*
X800664Y330774D01*
X800808Y329678D01*
X801231Y328656D01*
X801904Y327779D01*
X802782Y327105D01*
X803804Y326682D01*
X804900Y326538D01*
X810900D01*
X811996Y326682D01*
X813018Y327105D01*
X813896Y327779D01*
X814569Y328656D01*
X814992Y329678D01*
X815136Y330774D01*
X814992Y331871D01*
X814569Y332892D01*
X813896Y333769D01*
X813018Y334443D01*
X811996Y334866D01*
X810900Y335010D01*
D02*
G37*
G36*
X780900D02*
X774900D01*
X773804Y334866D01*
X772782Y334443D01*
X771905Y333769D01*
X771231Y332892D01*
X770808Y331871D01*
X770664Y330774D01*
X770808Y329678D01*
X771231Y328656D01*
X771905Y327779D01*
X772782Y327105D01*
X773804Y326682D01*
X774900Y326538D01*
X780900D01*
X781996Y326682D01*
X783018Y327105D01*
X783895Y327779D01*
X784569Y328656D01*
X784992Y329678D01*
X785136Y330774D01*
X784992Y331871D01*
X784569Y332892D01*
X783895Y333769D01*
X783018Y334443D01*
X781996Y334866D01*
X780900Y335010D01*
D02*
G37*
G36*
X151621Y330121D02*
X144379D01*
Y322879D01*
X151621D01*
Y330121D01*
D02*
G37*
G36*
X113800Y327436D02*
X107800D01*
X106704Y327292D01*
X105682Y326869D01*
X104805Y326196D01*
X104131Y325318D01*
X103708Y324296D01*
X103564Y323200D01*
X103708Y322104D01*
X104131Y321082D01*
X104805Y320204D01*
X105682Y319531D01*
X106704Y319108D01*
X107800Y318964D01*
X113800D01*
X114896Y319108D01*
X115918Y319531D01*
X116796Y320204D01*
X117469Y321082D01*
X117892Y322104D01*
X118036Y323200D01*
X117892Y324296D01*
X117469Y325318D01*
X116796Y326196D01*
X115918Y326869D01*
X114896Y327292D01*
X113800Y327436D01*
D02*
G37*
G36*
X83800D02*
X77800D01*
X76704Y327292D01*
X75682Y326869D01*
X74805Y326196D01*
X74131Y325318D01*
X73708Y324296D01*
X73564Y323200D01*
X73708Y322104D01*
X74131Y321082D01*
X74805Y320204D01*
X75682Y319531D01*
X76704Y319108D01*
X77800Y318964D01*
X83800D01*
X84896Y319108D01*
X85918Y319531D01*
X86796Y320204D01*
X87469Y321082D01*
X87892Y322104D01*
X88036Y323200D01*
X87892Y324296D01*
X87469Y325318D01*
X86796Y326196D01*
X85918Y326869D01*
X84896Y327292D01*
X83800Y327436D01*
D02*
G37*
G36*
X738621Y313279D02*
X731379D01*
Y306036D01*
X738621D01*
Y313279D01*
D02*
G37*
G36*
X39476Y303185D02*
X36524D01*
X35311Y303025D01*
X34181Y302557D01*
X33211Y301813D01*
X32466Y300842D01*
X31998Y299713D01*
X31839Y298500D01*
X31998Y297287D01*
X32466Y296158D01*
X33211Y295187D01*
X34181Y294443D01*
X35311Y293975D01*
X36524Y293815D01*
X39476D01*
X40689Y293975D01*
X41819Y294443D01*
X42789Y295187D01*
X43534Y296158D01*
X44002Y297287D01*
X44161Y298500D01*
X44002Y299713D01*
X43534Y300842D01*
X42789Y301813D01*
X41819Y302557D01*
X40689Y303025D01*
X39476Y303185D01*
D02*
G37*
G36*
X77731Y292050D02*
X76269D01*
X74858Y291672D01*
X73592Y290941D01*
X72559Y289908D01*
X71828Y288642D01*
X71450Y287231D01*
Y285769D01*
X71828Y284358D01*
X72559Y283092D01*
X73592Y282059D01*
X74858Y281328D01*
X76269Y280950D01*
X77731D01*
X79142Y281328D01*
X80408Y282059D01*
X81441Y283092D01*
X82172Y284358D01*
X82550Y285769D01*
Y287231D01*
X82172Y288642D01*
X81441Y289908D01*
X80408Y290941D01*
X79142Y291672D01*
X77731Y292050D01*
D02*
G37*
G36*
X121655Y282100D02*
X120944D01*
X120258Y281916D01*
X119642Y281560D01*
X119140Y281058D01*
X118784Y280442D01*
X118600Y279755D01*
Y279045D01*
X118784Y278358D01*
X119140Y277742D01*
X119642Y277239D01*
X120258Y276884D01*
X120944Y276700D01*
X121655D01*
X122342Y276884D01*
X122958Y277239D01*
X123460Y277742D01*
X123816Y278358D01*
X124000Y279045D01*
Y279755D01*
X123816Y280442D01*
X123460Y281058D01*
X122958Y281560D01*
X122342Y281916D01*
X121655Y282100D01*
D02*
G37*
G36*
X25731Y287050D02*
X24269D01*
X22858Y286672D01*
X21592Y285941D01*
X20559Y284908D01*
X19828Y283642D01*
X19450Y282231D01*
Y280769D01*
X19828Y279358D01*
X20559Y278092D01*
X21592Y277059D01*
X22858Y276328D01*
X24269Y275950D01*
X25731D01*
X27142Y276328D01*
X28408Y277059D01*
X29441Y278092D01*
X30172Y279358D01*
X30550Y280769D01*
Y282231D01*
X30172Y283642D01*
X29441Y284908D01*
X28408Y285941D01*
X27142Y286672D01*
X25731Y287050D01*
D02*
G37*
G36*
X738355Y273200D02*
X737644D01*
X736958Y273016D01*
X736342Y272660D01*
X735840Y272158D01*
X735750Y272003D01*
X735250D01*
X735160Y272158D01*
X734658Y272660D01*
X734042Y273016D01*
X733356Y273200D01*
X732645D01*
X731958Y273016D01*
X731342Y272660D01*
X730839Y272158D01*
X730484Y271542D01*
X730300Y270855D01*
Y270145D01*
X730484Y269458D01*
X730839Y268842D01*
X731342Y268339D01*
X731958Y267984D01*
X732645Y267800D01*
X733356D01*
X734042Y267984D01*
X734658Y268339D01*
X735160Y268842D01*
X735250Y268997D01*
X735750D01*
X735840Y268842D01*
X736342Y268339D01*
X736958Y267984D01*
X737644Y267800D01*
X738355D01*
X739042Y267984D01*
X739658Y268339D01*
X740161Y268842D01*
X740516Y269458D01*
X740700Y270145D01*
Y270855D01*
X740516Y271542D01*
X740161Y272158D01*
X739658Y272660D01*
X739042Y273016D01*
X738355Y273200D01*
D02*
G37*
G36*
X102356Y275200D02*
X101645D01*
X100958Y275016D01*
X100342Y274660D01*
X99840Y274158D01*
X99484Y273542D01*
X99300Y272855D01*
Y272145D01*
X99484Y271458D01*
X99840Y270842D01*
X100342Y270339D01*
X100958Y269984D01*
X101645Y269800D01*
X102356D01*
X103042Y269984D01*
X103658Y270339D01*
X104160Y270842D01*
X104516Y271458D01*
X104700Y272145D01*
Y272855D01*
X104516Y273542D01*
X104160Y274158D01*
X103658Y274660D01*
X103042Y275016D01*
X102356Y275200D01*
D02*
G37*
G36*
X782956Y273200D02*
X782244D01*
X781558Y273016D01*
X780942Y272660D01*
X780440Y272158D01*
X780084Y271542D01*
X779900Y270855D01*
Y270145D01*
X780084Y269458D01*
X780440Y268842D01*
X780942Y268339D01*
X781558Y267984D01*
X782244Y267800D01*
X782956D01*
X783642Y267984D01*
X784258Y268339D01*
X784761Y268842D01*
X785116Y269458D01*
X785300Y270145D01*
Y270855D01*
X785116Y271542D01*
X784761Y272158D01*
X784258Y272660D01*
X783642Y273016D01*
X782956Y273200D01*
D02*
G37*
G36*
X71855Y269700D02*
X71144D01*
X70458Y269516D01*
X69842Y269161D01*
X69340Y268658D01*
X68984Y268042D01*
X68800Y267355D01*
Y266645D01*
X68984Y265958D01*
X69340Y265342D01*
X69842Y264840D01*
X70458Y264484D01*
X71144Y264300D01*
X71855D01*
X72542Y264484D01*
X73158Y264840D01*
X73660Y265342D01*
X74016Y265958D01*
X74200Y266645D01*
Y267355D01*
X74016Y268042D01*
X73660Y268658D01*
X73158Y269161D01*
X72542Y269516D01*
X71855Y269700D01*
D02*
G37*
G36*
X806656Y265100D02*
X805945D01*
X805258Y264916D01*
X804642Y264561D01*
X804140Y264058D01*
X803784Y263442D01*
X803600Y262755D01*
Y262045D01*
X803784Y261358D01*
X804140Y260742D01*
X804642Y260240D01*
X805258Y259884D01*
X805945Y259700D01*
X806656D01*
X807342Y259884D01*
X807958Y260240D01*
X808461Y260742D01*
X808816Y261358D01*
X809000Y262045D01*
Y262755D01*
X808816Y263442D01*
X808461Y264058D01*
X807958Y264561D01*
X807342Y264916D01*
X806656Y265100D01*
D02*
G37*
G36*
X46722Y269982D02*
X45278D01*
X43884Y269608D01*
X42634Y268886D01*
X41614Y267866D01*
X40892Y266616D01*
X40519Y265222D01*
Y263778D01*
X40892Y262384D01*
X41614Y261134D01*
X42634Y260114D01*
X43884Y259392D01*
X45278Y259018D01*
X46722D01*
X48116Y259392D01*
X49366Y260114D01*
X50386Y261134D01*
X51108Y262384D01*
X51481Y263778D01*
Y265222D01*
X51108Y266616D01*
X50386Y267866D01*
X49366Y268886D01*
X48116Y269608D01*
X46722Y269982D01*
D02*
G37*
G36*
X26722D02*
X25278D01*
X23884Y269608D01*
X22634Y268886D01*
X21614Y267866D01*
X20892Y266616D01*
X20518Y265222D01*
Y263778D01*
X20892Y262384D01*
X21614Y261134D01*
X22634Y260114D01*
X23884Y259392D01*
X25278Y259018D01*
X26722D01*
X28116Y259392D01*
X29366Y260114D01*
X30386Y261134D01*
X31108Y262384D01*
X31482Y263778D01*
Y265222D01*
X31108Y266616D01*
X30386Y267866D01*
X29366Y268886D01*
X28116Y269608D01*
X26722Y269982D01*
D02*
G37*
G36*
X148756Y262400D02*
X148045D01*
X147358Y262216D01*
X146742Y261860D01*
X146239Y261358D01*
X145884Y260742D01*
X145700Y260055D01*
Y259345D01*
X145884Y258658D01*
X146239Y258042D01*
X146742Y257540D01*
X147358Y257184D01*
X148045Y257000D01*
X148756D01*
X149442Y257184D01*
X150058Y257540D01*
X150560Y258042D01*
X150916Y258658D01*
X151100Y259345D01*
Y260055D01*
X150916Y260742D01*
X150560Y261358D01*
X150058Y261860D01*
X149442Y262216D01*
X148756Y262400D01*
D02*
G37*
G36*
X134355Y257700D02*
X133644D01*
X132958Y257516D01*
X132342Y257160D01*
X131840Y256658D01*
X131484Y256042D01*
X131300Y255356D01*
Y254644D01*
X131484Y253958D01*
X131840Y253342D01*
X132342Y252839D01*
X132958Y252484D01*
X133644Y252300D01*
X134355D01*
X135042Y252484D01*
X135658Y252839D01*
X136161Y253342D01*
X136516Y253958D01*
X136700Y254644D01*
Y255356D01*
X136516Y256042D01*
X136161Y256658D01*
X135658Y257160D01*
X135042Y257516D01*
X134355Y257700D01*
D02*
G37*
G36*
X94355Y256200D02*
X93644D01*
X92958Y256016D01*
X92342Y255661D01*
X91839Y255158D01*
X91484Y254542D01*
X91300Y253855D01*
Y253145D01*
X91484Y252458D01*
X91839Y251842D01*
X92342Y251340D01*
X92958Y250984D01*
X93644Y250800D01*
X94355D01*
X95042Y250984D01*
X95658Y251340D01*
X96161Y251842D01*
X96516Y252458D01*
X96700Y253145D01*
Y253855D01*
X96516Y254542D01*
X96161Y255158D01*
X95658Y255661D01*
X95042Y256016D01*
X94355Y256200D01*
D02*
G37*
G36*
X791155Y256100D02*
X790445D01*
X789758Y255916D01*
X789142Y255560D01*
X788639Y255058D01*
X788284Y254442D01*
X788100Y253755D01*
Y253045D01*
X788284Y252358D01*
X788639Y251742D01*
X789142Y251239D01*
X789758Y250884D01*
X790445Y250700D01*
X791155D01*
X791842Y250884D01*
X792458Y251239D01*
X792961Y251742D01*
X793316Y252358D01*
X793500Y253045D01*
Y253755D01*
X793316Y254442D01*
X792961Y255058D01*
X792458Y255560D01*
X791842Y255916D01*
X791155Y256100D01*
D02*
G37*
G36*
X77355Y255700D02*
X76644D01*
X75958Y255516D01*
X75342Y255160D01*
X74840Y254658D01*
X74484Y254042D01*
X74300Y253356D01*
Y252644D01*
X74484Y251958D01*
X74840Y251342D01*
X75342Y250839D01*
X75958Y250484D01*
X76644Y250300D01*
X77355D01*
X78042Y250484D01*
X78658Y250839D01*
X79160Y251342D01*
X79516Y251958D01*
X79700Y252644D01*
Y253356D01*
X79516Y254042D01*
X79160Y254658D01*
X78658Y255160D01*
X78042Y255516D01*
X77355Y255700D01*
D02*
G37*
G36*
X807156Y250100D02*
X806444D01*
X805758Y249916D01*
X805142Y249560D01*
X804640Y249058D01*
X804284Y248442D01*
X804100Y247756D01*
Y247044D01*
X804284Y246358D01*
X804640Y245742D01*
X805142Y245239D01*
X805758Y244884D01*
X806444Y244700D01*
X807156D01*
X807842Y244884D01*
X808458Y245239D01*
X808961Y245742D01*
X809316Y246358D01*
X809500Y247044D01*
Y247756D01*
X809316Y248442D01*
X808961Y249058D01*
X808458Y249560D01*
X807842Y249916D01*
X807156Y250100D01*
D02*
G37*
G36*
X754355Y247700D02*
X753645D01*
X752958Y247516D01*
X752342Y247161D01*
X751839Y246658D01*
X751484Y246042D01*
X751300Y245356D01*
Y244644D01*
X751484Y243958D01*
X751839Y243342D01*
X752342Y242840D01*
X752958Y242484D01*
X753645Y242300D01*
X754355D01*
X755042Y242484D01*
X755658Y242840D01*
X756160Y243342D01*
X756516Y243958D01*
X756700Y244644D01*
Y245356D01*
X756516Y246042D01*
X756160Y246658D01*
X755658Y247161D01*
X755042Y247516D01*
X754355Y247700D01*
D02*
G37*
G36*
X78355Y242200D02*
X77644D01*
X76958Y242016D01*
X76342Y241660D01*
X75840Y241158D01*
X75484Y240542D01*
X75300Y239856D01*
Y239144D01*
X75374Y238869D01*
X74908Y238676D01*
X74861Y238758D01*
X74358Y239261D01*
X73742Y239616D01*
X73055Y239800D01*
X72344D01*
X71658Y239616D01*
X71042Y239261D01*
X70539Y238758D01*
X70184Y238142D01*
X70000Y237456D01*
Y236744D01*
X70184Y236058D01*
X70539Y235442D01*
X71042Y234940D01*
X71658Y234584D01*
X72344Y234400D01*
X73055D01*
X73742Y234584D01*
X74358Y234940D01*
X74861Y235442D01*
X75216Y236058D01*
X75400Y236744D01*
Y237456D01*
X75326Y237731D01*
X75792Y237924D01*
X75840Y237842D01*
X76342Y237339D01*
X76958Y236984D01*
X77644Y236800D01*
X78355D01*
X79042Y236984D01*
X79658Y237339D01*
X80160Y237842D01*
X80516Y238458D01*
X80700Y239144D01*
Y239856D01*
X80516Y240542D01*
X80160Y241158D01*
X79658Y241660D01*
X79042Y242016D01*
X78355Y242200D01*
D02*
G37*
G36*
X733356Y243700D02*
X732645D01*
X731958Y243516D01*
X731342Y243161D01*
X730839Y242658D01*
X730484Y242042D01*
X730300Y241355D01*
Y240645D01*
X730484Y239958D01*
X730839Y239342D01*
X731342Y238840D01*
X731958Y238484D01*
X732645Y238300D01*
X733356D01*
X734042Y238484D01*
X734658Y238840D01*
X735160Y239342D01*
X735516Y239958D01*
X735700Y240645D01*
Y241355D01*
X735516Y242042D01*
X735160Y242658D01*
X734658Y243161D01*
X734042Y243516D01*
X733356Y243700D01*
D02*
G37*
G36*
X63756Y241200D02*
X63045D01*
X62358Y241016D01*
X61742Y240661D01*
X61239Y240158D01*
X60884Y239542D01*
X60700Y238856D01*
Y238144D01*
X60884Y237458D01*
X61239Y236842D01*
X61742Y236339D01*
X62358Y235984D01*
X63045Y235800D01*
X63756D01*
X64442Y235984D01*
X65058Y236339D01*
X65561Y236842D01*
X65916Y237458D01*
X66100Y238144D01*
Y238856D01*
X65916Y239542D01*
X65561Y240158D01*
X65058Y240661D01*
X64442Y241016D01*
X63756Y241200D01*
D02*
G37*
G36*
X811156Y236100D02*
X810445D01*
X809758Y235916D01*
X809142Y235560D01*
X808640Y235058D01*
X808284Y234442D01*
X808100Y233755D01*
Y233045D01*
X808284Y232358D01*
X808640Y231742D01*
X809142Y231240D01*
X809758Y230884D01*
X810445Y230700D01*
X811156D01*
X811842Y230884D01*
X812458Y231240D01*
X812961Y231742D01*
X813316Y232358D01*
X813500Y233045D01*
Y233755D01*
X813316Y234442D01*
X812961Y235058D01*
X812458Y235560D01*
X811842Y235916D01*
X811156Y236100D01*
D02*
G37*
G36*
X46722Y240982D02*
X45278D01*
X43884Y240608D01*
X42634Y239886D01*
X41614Y238866D01*
X40892Y237616D01*
X40519Y236222D01*
Y234778D01*
X40892Y233384D01*
X41614Y232134D01*
X42634Y231114D01*
X43884Y230392D01*
X45278Y230018D01*
X46722D01*
X48116Y230392D01*
X49366Y231114D01*
X50386Y232134D01*
X51108Y233384D01*
X51481Y234778D01*
Y236222D01*
X51108Y237616D01*
X50386Y238866D01*
X49366Y239886D01*
X48116Y240608D01*
X46722Y240982D01*
D02*
G37*
G36*
X26722D02*
X25278D01*
X23884Y240608D01*
X22634Y239886D01*
X21614Y238866D01*
X20892Y237616D01*
X20518Y236222D01*
Y234778D01*
X20892Y233384D01*
X21614Y232134D01*
X22634Y231114D01*
X23884Y230392D01*
X25278Y230018D01*
X26722D01*
X28116Y230392D01*
X29366Y231114D01*
X30386Y232134D01*
X31108Y233384D01*
X31482Y234778D01*
Y236222D01*
X31108Y237616D01*
X30386Y238866D01*
X29366Y239886D01*
X28116Y240608D01*
X26722Y240982D01*
D02*
G37*
G36*
X155356Y230200D02*
X154645D01*
X153958Y230016D01*
X153342Y229661D01*
X152840Y229158D01*
X152484Y228542D01*
X152300Y227855D01*
Y227145D01*
X152484Y226458D01*
X152840Y225842D01*
X153342Y225340D01*
X153958Y224984D01*
X154645Y224800D01*
X155356D01*
X156042Y224984D01*
X156658Y225340D01*
X157160Y225842D01*
X157516Y226458D01*
X157700Y227145D01*
Y227855D01*
X157516Y228542D01*
X157160Y229158D01*
X156658Y229661D01*
X156042Y230016D01*
X155356Y230200D01*
D02*
G37*
G36*
X147355D02*
X146644D01*
X145958Y230016D01*
X145342Y229661D01*
X144840Y229158D01*
X144484Y228542D01*
X144300Y227855D01*
Y227145D01*
X144484Y226458D01*
X144840Y225842D01*
X145342Y225340D01*
X145958Y224984D01*
X146644Y224800D01*
X147355D01*
X148042Y224984D01*
X148658Y225340D01*
X149161Y225842D01*
X149516Y226458D01*
X149700Y227145D01*
Y227855D01*
X149516Y228542D01*
X149161Y229158D01*
X148658Y229661D01*
X148042Y230016D01*
X147355Y230200D01*
D02*
G37*
G36*
X141356D02*
X140645D01*
X139958Y230016D01*
X139342Y229661D01*
X138839Y229158D01*
X138484Y228542D01*
X138300Y227855D01*
Y227145D01*
X138484Y226458D01*
X138839Y225842D01*
X139342Y225340D01*
X139958Y224984D01*
X140645Y224800D01*
X141356D01*
X142042Y224984D01*
X142658Y225340D01*
X143160Y225842D01*
X143516Y226458D01*
X143700Y227145D01*
Y227855D01*
X143516Y228542D01*
X143160Y229158D01*
X142658Y229661D01*
X142042Y230016D01*
X141356Y230200D01*
D02*
G37*
G36*
X784656Y230100D02*
X783945D01*
X783258Y229916D01*
X782642Y229560D01*
X782139Y229058D01*
X781784Y228442D01*
X781600Y227755D01*
Y227045D01*
X781784Y226358D01*
X782139Y225742D01*
X782642Y225239D01*
X783258Y224884D01*
X783945Y224700D01*
X784656D01*
X785342Y224884D01*
X785958Y225239D01*
X786460Y225742D01*
X786816Y226358D01*
X787000Y227045D01*
Y227755D01*
X786816Y228442D01*
X786460Y229058D01*
X785958Y229560D01*
X785342Y229916D01*
X784656Y230100D01*
D02*
G37*
G36*
X116056Y219900D02*
X115345D01*
X114658Y219716D01*
X114042Y219360D01*
X113540Y218858D01*
X113184Y218242D01*
X113000Y217555D01*
Y216845D01*
X113184Y216158D01*
X113540Y215542D01*
X114042Y215039D01*
X114658Y214684D01*
X115345Y214500D01*
X116056D01*
X116742Y214684D01*
X117358Y215039D01*
X117860Y215542D01*
X118216Y216158D01*
X118400Y216845D01*
Y217555D01*
X118216Y218242D01*
X117860Y218858D01*
X117358Y219360D01*
X116742Y219716D01*
X116056Y219900D01*
D02*
G37*
G36*
X762231Y218350D02*
X760769D01*
X759358Y217972D01*
X758092Y217241D01*
X757059Y216208D01*
X756328Y214942D01*
X755950Y213531D01*
Y212069D01*
X756328Y210658D01*
X757059Y209392D01*
X758092Y208359D01*
X759358Y207628D01*
X760769Y207250D01*
X762231D01*
X763642Y207628D01*
X764908Y208359D01*
X765941Y209392D01*
X766672Y210658D01*
X767050Y212069D01*
Y213531D01*
X766672Y214942D01*
X765941Y216208D01*
X764908Y217241D01*
X763642Y217972D01*
X762231Y218350D01*
D02*
G37*
G36*
X72731Y212050D02*
X71269D01*
X69858Y211672D01*
X68592Y210941D01*
X67559Y209908D01*
X66828Y208642D01*
X66450Y207231D01*
Y205769D01*
X66828Y204358D01*
X67559Y203092D01*
X68592Y202059D01*
X69858Y201328D01*
X71269Y200950D01*
X72731D01*
X74142Y201328D01*
X75408Y202059D01*
X76441Y203092D01*
X77172Y204358D01*
X77550Y205769D01*
Y207231D01*
X77172Y208642D01*
X76441Y209908D01*
X75408Y210941D01*
X74142Y211672D01*
X72731Y212050D01*
D02*
G37*
G36*
X151621Y203964D02*
X144379D01*
Y196721D01*
X151621D01*
Y203964D01*
D02*
G37*
G36*
X810700Y196610D02*
X804700D01*
X803604Y196466D01*
X802582Y196043D01*
X801705Y195370D01*
X801031Y194492D01*
X800608Y193471D01*
X800464Y192374D01*
X800608Y191278D01*
X801031Y190256D01*
X801705Y189379D01*
X802582Y188705D01*
X803604Y188282D01*
X804700Y188138D01*
X810700D01*
X811796Y188282D01*
X812818Y188705D01*
X813696Y189379D01*
X814369Y190256D01*
X814792Y191278D01*
X814936Y192374D01*
X814792Y193471D01*
X814369Y194492D01*
X813696Y195370D01*
X812818Y196043D01*
X811796Y196466D01*
X810700Y196610D01*
D02*
G37*
G36*
X780700D02*
X774700D01*
X773604Y196466D01*
X772582Y196043D01*
X771704Y195370D01*
X771031Y194492D01*
X770608Y193471D01*
X770464Y192374D01*
X770608Y191278D01*
X771031Y190256D01*
X771704Y189379D01*
X772582Y188705D01*
X773604Y188282D01*
X774700Y188138D01*
X780700D01*
X781796Y188282D01*
X782818Y188705D01*
X783696Y189379D01*
X784369Y190256D01*
X784792Y191278D01*
X784936Y192374D01*
X784792Y193471D01*
X784369Y194492D01*
X783696Y195370D01*
X782818Y196043D01*
X781796Y196466D01*
X780700Y196610D01*
D02*
G37*
G36*
X113800Y189036D02*
X107800D01*
X106704Y188892D01*
X105682Y188469D01*
X104805Y187795D01*
X104131Y186918D01*
X103708Y185896D01*
X103564Y184800D01*
X103708Y183704D01*
X104131Y182682D01*
X104805Y181805D01*
X105682Y181131D01*
X106704Y180708D01*
X107800Y180564D01*
X113800D01*
X114896Y180708D01*
X115918Y181131D01*
X116796Y181805D01*
X117469Y182682D01*
X117892Y183704D01*
X118036Y184800D01*
X117892Y185896D01*
X117469Y186918D01*
X116796Y187795D01*
X115918Y188469D01*
X114896Y188892D01*
X113800Y189036D01*
D02*
G37*
G36*
X83800D02*
X77800D01*
X76704Y188892D01*
X75682Y188469D01*
X74805Y187795D01*
X74131Y186918D01*
X73708Y185896D01*
X73564Y184800D01*
X73708Y183704D01*
X74131Y182682D01*
X74805Y181805D01*
X75682Y181131D01*
X76704Y180708D01*
X77800Y180564D01*
X83800D01*
X84896Y180708D01*
X85918Y181131D01*
X86796Y181805D01*
X87469Y182682D01*
X87892Y183704D01*
X88036Y184800D01*
X87892Y185896D01*
X87469Y186918D01*
X86796Y187795D01*
X85918Y188469D01*
X84896Y188892D01*
X83800Y189036D01*
D02*
G37*
G36*
X810700Y186610D02*
X804700D01*
X803604Y186466D01*
X802582Y186043D01*
X801705Y185370D01*
X801031Y184492D01*
X800608Y183470D01*
X800464Y182374D01*
X800608Y181278D01*
X801031Y180256D01*
X801705Y179379D01*
X802582Y178705D01*
X803604Y178282D01*
X804700Y178138D01*
X810700D01*
X811796Y178282D01*
X812818Y178705D01*
X813696Y179379D01*
X814369Y180256D01*
X814792Y181278D01*
X814936Y182374D01*
X814792Y183470D01*
X814369Y184492D01*
X813696Y185370D01*
X812818Y186043D01*
X811796Y186466D01*
X810700Y186610D01*
D02*
G37*
G36*
X83800Y179036D02*
X77800D01*
X76704Y178892D01*
X75682Y178469D01*
X74805Y177796D01*
X74131Y176918D01*
X73708Y175896D01*
X73564Y174800D01*
X73708Y173704D01*
X74131Y172682D01*
X74805Y171804D01*
X75682Y171131D01*
X76704Y170708D01*
X77800Y170564D01*
X83800D01*
X84896Y170708D01*
X85918Y171131D01*
X86796Y171804D01*
X87469Y172682D01*
X87892Y173704D01*
X88036Y174800D01*
X87892Y175896D01*
X87469Y176918D01*
X86796Y177796D01*
X85918Y178469D01*
X84896Y178892D01*
X83800Y179036D01*
D02*
G37*
G36*
X810700Y176610D02*
X804700D01*
X803604Y176466D01*
X802582Y176043D01*
X801705Y175370D01*
X801031Y174492D01*
X800608Y173470D01*
X800464Y172374D01*
X800608Y171278D01*
X801031Y170256D01*
X801705Y169379D01*
X802582Y168705D01*
X803604Y168282D01*
X804700Y168138D01*
X810700D01*
X811796Y168282D01*
X812818Y168705D01*
X813696Y169379D01*
X814369Y170256D01*
X814792Y171278D01*
X814936Y172374D01*
X814792Y173470D01*
X814369Y174492D01*
X813696Y175370D01*
X812818Y176043D01*
X811796Y176466D01*
X810700Y176610D01*
D02*
G37*
G36*
X737621Y173121D02*
X730379D01*
Y165879D01*
X737621D01*
Y173121D01*
D02*
G37*
G36*
X83800Y169036D02*
X77800D01*
X76704Y168892D01*
X75682Y168469D01*
X74805Y167796D01*
X74131Y166918D01*
X73708Y165896D01*
X73564Y164800D01*
X73708Y163704D01*
X74131Y162682D01*
X74805Y161804D01*
X75682Y161131D01*
X76704Y160708D01*
X77800Y160564D01*
X83800D01*
X84896Y160708D01*
X85918Y161131D01*
X86796Y161804D01*
X87469Y162682D01*
X87892Y163704D01*
X88036Y164800D01*
X87892Y165896D01*
X87469Y166918D01*
X86796Y167796D01*
X85918Y168469D01*
X84896Y168892D01*
X83800Y169036D01*
D02*
G37*
G36*
X810700Y166610D02*
X804700D01*
X803604Y166466D01*
X802582Y166043D01*
X801705Y165370D01*
X801031Y164492D01*
X800608Y163470D01*
X800464Y162374D01*
X800608Y161278D01*
X801031Y160256D01*
X801705Y159379D01*
X802582Y158705D01*
X803604Y158282D01*
X804700Y158138D01*
X810700D01*
X811796Y158282D01*
X812818Y158705D01*
X813696Y159379D01*
X814369Y160256D01*
X814792Y161278D01*
X814936Y162374D01*
X814792Y163470D01*
X814369Y164492D01*
X813696Y165370D01*
X812818Y166043D01*
X811796Y166466D01*
X810700Y166610D01*
D02*
G37*
G36*
X780700D02*
X774700D01*
X773604Y166466D01*
X772582Y166043D01*
X771704Y165370D01*
X771031Y164492D01*
X770608Y163470D01*
X770464Y162374D01*
X770608Y161278D01*
X771031Y160256D01*
X771704Y159379D01*
X772582Y158705D01*
X773604Y158282D01*
X774700Y158138D01*
X780700D01*
X781796Y158282D01*
X782818Y158705D01*
X783696Y159379D01*
X784369Y160256D01*
X784792Y161278D01*
X784936Y162374D01*
X784792Y163470D01*
X784369Y164492D01*
X783696Y165370D01*
X782818Y166043D01*
X781796Y166466D01*
X780700Y166610D01*
D02*
G37*
G36*
X113800Y159036D02*
X107800D01*
X106704Y158892D01*
X105682Y158469D01*
X104805Y157796D01*
X104131Y156918D01*
X103708Y155896D01*
X103564Y154800D01*
X103708Y153704D01*
X104131Y152682D01*
X104805Y151804D01*
X105682Y151131D01*
X106704Y150708D01*
X107800Y150564D01*
X113800D01*
X114896Y150708D01*
X115918Y151131D01*
X116796Y151804D01*
X117469Y152682D01*
X117892Y153704D01*
X118036Y154800D01*
X117892Y155896D01*
X117469Y156918D01*
X116796Y157796D01*
X115918Y158469D01*
X114896Y158892D01*
X113800Y159036D01*
D02*
G37*
G36*
X83800D02*
X77800D01*
X76704Y158892D01*
X75682Y158469D01*
X74805Y157796D01*
X74131Y156918D01*
X73708Y155896D01*
X73564Y154800D01*
X73708Y153704D01*
X74131Y152682D01*
X74805Y151804D01*
X75682Y151131D01*
X76704Y150708D01*
X77800Y150564D01*
X83800D01*
X84896Y150708D01*
X85918Y151131D01*
X86796Y151804D01*
X87469Y152682D01*
X87892Y153704D01*
X88036Y154800D01*
X87892Y155896D01*
X87469Y156918D01*
X86796Y157796D01*
X85918Y158469D01*
X84896Y158892D01*
X83800Y159036D01*
D02*
G37*
%LPD*%
D63*
X470000Y240500D02*
D03*
Y147500D02*
D03*
Y194000D02*
D03*
D74*
X478000Y76000D02*
D03*
X215000Y379000D02*
D03*
X684000Y97500D02*
D03*
X214500Y91500D02*
D03*
X660500Y376500D02*
D03*
D75*
X578000Y446500D02*
D03*
X865000Y27500D02*
D03*
X20000D02*
D03*
D77*
X26000Y208500D02*
D03*
X46000D02*
D03*
D79*
X462000Y334500D02*
D03*
D80*
X685000Y309658D02*
D03*
X725000D02*
D03*
X684000Y169500D02*
D03*
X724000D02*
D03*
X158000Y326500D02*
D03*
Y200342D02*
D03*
X198000Y326500D02*
D03*
Y200342D02*
D03*
D82*
X458000Y51500D02*
D03*
Y31500D02*
D03*
D83*
X38000Y308500D02*
D03*
D85*
X95000Y274000D02*
D03*
X84000Y273500D02*
D03*
X795900Y247200D02*
D03*
X766900Y252400D02*
D03*
X781800Y256400D02*
D03*
X147500Y254400D02*
D03*
X263500Y160000D02*
D03*
X213000Y220000D02*
D03*
Y225000D02*
D03*
Y230000D02*
D03*
Y235500D02*
D03*
X745500Y243500D02*
D03*
X663000Y324000D02*
D03*
X741000Y257445D02*
D03*
X757500Y250500D02*
D03*
X736000Y221000D02*
D03*
X747000Y256000D02*
D03*
X735000D02*
D03*
X661500Y217000D02*
D03*
Y222500D02*
D03*
Y227500D02*
D03*
X658000Y182000D02*
D03*
X618000Y141500D02*
D03*
X616000Y150500D02*
D03*
X685000Y142500D02*
D03*
X675500Y153500D02*
D03*
X648000Y155500D02*
D03*
X658000Y175500D02*
D03*
X670000Y262500D02*
D03*
Y268000D02*
D03*
X620000Y321000D02*
D03*
X670000Y273500D02*
D03*
Y278000D02*
D03*
X616000Y326500D02*
D03*
X654500Y323500D02*
D03*
X659500Y326500D02*
D03*
X674000Y339000D02*
D03*
X662500Y353000D02*
D03*
X248000Y144000D02*
D03*
X224000Y166500D02*
D03*
Y189500D02*
D03*
X231000D02*
D03*
X218209Y165250D02*
D03*
X213500Y157500D02*
D03*
X266500Y307500D02*
D03*
X261000Y315500D02*
D03*
X239000Y306000D02*
D03*
X225000Y315000D02*
D03*
X220500D02*
D03*
X218000Y271500D02*
D03*
X210000D02*
D03*
Y277500D02*
D03*
X209500Y283500D02*
D03*
X118309Y241320D02*
D03*
X135000Y242500D02*
D03*
X102000Y244500D02*
D03*
X140500Y276500D02*
D03*
X151000D02*
D03*
X138000Y257343D02*
D03*
X147000Y242500D02*
D03*
X141000D02*
D03*
X128500Y244000D02*
D03*
X88000Y253500D02*
D03*
X798300Y227900D02*
D03*
X794300D02*
D03*
D87*
X600000Y329500D02*
D03*
Y319500D02*
D03*
Y151500D02*
D03*
X283000Y309500D02*
D03*
Y142500D02*
D03*
Y132500D02*
D03*
M02*
