G04*
G04 #@! TF.GenerationSoftware,Altium Limited,Altium Designer,21.1.1 (26)*
G04*
G04 Layer_Physical_Order=1*
G04 Layer_Color=255*
%FSLAX25Y25*%
%MOIN*%
G70*
G04*
G04 #@! TF.SameCoordinates,3677F01D-BDC3-49B7-9324-C1A4C2B8551F*
G04*
G04*
G04 #@! TF.FilePolarity,Positive*
G04*
G01*
G75*
%ADD21R,0.03937X0.03543*%
%ADD22R,0.03740X0.03347*%
%ADD23R,0.03347X0.03740*%
%ADD24R,0.03543X0.03937*%
G04:AMPARAMS|DCode=25|XSize=23.62mil|YSize=64.96mil|CornerRadius=2.01mil|HoleSize=0mil|Usage=FLASHONLY|Rotation=270.000|XOffset=0mil|YOffset=0mil|HoleType=Round|Shape=RoundedRectangle|*
%AMROUNDEDRECTD25*
21,1,0.02362,0.06095,0,0,270.0*
21,1,0.01961,0.06496,0,0,270.0*
1,1,0.00402,-0.03047,-0.00980*
1,1,0.00402,-0.03047,0.00980*
1,1,0.00402,0.03047,0.00980*
1,1,0.00402,0.03047,-0.00980*
%
%ADD25ROUNDEDRECTD25*%
%ADD26R,0.06693X0.09843*%
%ADD27R,0.07087X0.05118*%
%ADD28R,0.05118X0.07087*%
%ADD29R,0.03150X0.03150*%
%ADD30R,0.02244X0.05512*%
%ADD31R,0.04724X0.04724*%
%ADD32R,0.05906X0.06299*%
%ADD33R,0.03150X0.03150*%
%ADD34R,0.01968X0.01968*%
%ADD35R,0.06496X0.04724*%
%ADD36R,0.04724X0.06496*%
%ADD46R,0.02559X0.05512*%
%ADD55R,0.15984X0.09016*%
%ADD56O,0.15984X0.09016*%
%ADD63C,0.07874*%
%ADD71C,0.02000*%
%ADD72C,0.05000*%
%ADD73O,0.12000X0.06000*%
%ADD74C,0.08700*%
%ADD75C,0.31496*%
%ADD76C,0.14512*%
%ADD77C,0.08563*%
%ADD78C,0.07087*%
%ADD79O,0.10236X0.15354*%
%ADD80C,0.04842*%
%ADD81R,0.04842X0.04842*%
%ADD82C,0.08445*%
%ADD83O,0.09843X0.06890*%
%ADD84O,0.05500X0.60000*%
%ADD85C,0.03000*%
%ADD86C,0.03200*%
G36*
X200000Y287500D02*
Y268500D01*
X199209Y267709D01*
X198869Y267800D01*
X198131D01*
X197419Y267609D01*
X197230Y267500D01*
X191000D01*
X189000Y269500D01*
Y271500D01*
X187500Y273000D01*
Y287500D01*
X188500Y288500D01*
X199000D01*
X200000Y287500D01*
D02*
G37*
G36*
X224000D02*
Y265000D01*
X222000Y263000D01*
X205000D01*
X203000Y265000D01*
Y287500D01*
X204000Y288500D01*
X223000D01*
X224000Y287500D01*
D02*
G37*
G36*
X202832Y261564D02*
Y261528D01*
X202867D01*
X203198Y261198D01*
X204025Y260645D01*
X205000Y260451D01*
X222000D01*
X222975Y260645D01*
X223203Y260797D01*
X224000Y260000D01*
Y256500D01*
X222500Y255000D01*
X197668D01*
Y255980D01*
X197560Y256527D01*
X197250Y256990D01*
X196787Y257300D01*
X196240Y257408D01*
X190146D01*
X190000Y257380D01*
X189500Y257789D01*
Y260500D01*
X191000Y262000D01*
X202395D01*
X202832Y261564D01*
D02*
G37*
G36*
X231500Y251500D02*
Y246500D01*
X230000Y245000D01*
X224933D01*
X224476Y245306D01*
X223500Y245500D01*
X202500D01*
X201524Y245306D01*
X201067Y245000D01*
X200500D01*
X198300Y242800D01*
X198131D01*
X197419Y242609D01*
X197230Y242500D01*
X190000D01*
X189000Y243500D01*
Y247499D01*
X189500Y247766D01*
X189599Y247700D01*
X190146Y247591D01*
X196240D01*
X196787Y247700D01*
X197250Y248010D01*
X197560Y248473D01*
X197668Y249020D01*
Y250980D01*
X197560Y251527D01*
X197250Y251990D01*
X197177Y252039D01*
X197372Y252510D01*
X197668Y252451D01*
X222500D01*
X223476Y252645D01*
X224302Y253198D01*
X224605Y253500D01*
X229500D01*
X231500Y251500D01*
D02*
G37*
G36*
X203686Y235314D02*
Y230331D01*
Y224331D01*
Y218332D01*
X203686Y218332D01*
X203686D01*
X203440Y217940D01*
X202500Y217000D01*
X190500D01*
X189000Y218500D01*
Y235500D01*
X191000Y237500D01*
X199258D01*
X199631Y237400D01*
X200369D01*
X200742Y237500D01*
X201500D01*
X203686Y235314D01*
D02*
G37*
G36*
X80686Y269814D02*
Y264332D01*
X82169D01*
X85000Y261500D01*
Y235500D01*
X82500Y233000D01*
X77500D01*
X73914Y229414D01*
X69231D01*
Y226500D01*
X55500D01*
X54000Y228000D01*
Y267500D01*
X57500Y271000D01*
X79500D01*
X80686Y269814D01*
D02*
G37*
G36*
X159000Y235500D02*
Y226500D01*
X157000Y224500D01*
X140000D01*
Y225500D01*
X138000Y227500D01*
Y229871D01*
X138169D01*
Y233668D01*
X139000Y234500D01*
Y235186D01*
X150169D01*
Y235668D01*
X151000Y236500D01*
X158000D01*
X159000Y235500D01*
D02*
G37*
G36*
X223481Y242905D02*
X223500Y242892D01*
Y240000D01*
X219500Y236000D01*
Y220000D01*
X215000Y215500D01*
X209000D01*
X206224Y218276D01*
X206235Y218332D01*
Y224331D01*
Y230331D01*
Y235314D01*
X206041Y236290D01*
X205488Y237117D01*
X203302Y239302D01*
X202756Y239667D01*
X202800Y239831D01*
Y240569D01*
X202609Y241281D01*
X202500Y241470D01*
Y242892D01*
X202519Y242905D01*
X202751Y242951D01*
X223249D01*
X223481Y242905D01*
D02*
G37*
G36*
X697500Y283500D02*
Y268000D01*
X697000D01*
X694000Y265000D01*
X681000D01*
X678314Y267686D01*
Y270332D01*
Y275331D01*
Y281668D01*
X678000D01*
Y283000D01*
X681000Y286000D01*
X695000D01*
X697500Y283500D01*
D02*
G37*
G36*
X744000Y270500D02*
Y268787D01*
X743831D01*
Y265332D01*
X742000Y263500D01*
X726000D01*
X725000Y264500D01*
Y269500D01*
X728000Y272500D01*
X742000D01*
X744000Y270500D01*
D02*
G37*
G36*
X675625Y283875D02*
X675451Y283000D01*
Y281668D01*
X675645Y280693D01*
X675765Y280513D01*
Y275331D01*
Y270332D01*
Y267686D01*
X675959Y266710D01*
X676512Y265883D01*
X677000Y265395D01*
Y256500D01*
X676000Y255500D01*
X659000D01*
X658000Y256500D01*
Y259500D01*
X660000Y261500D01*
X665500D01*
X667500Y263500D01*
Y284000D01*
X669500Y286000D01*
X673500D01*
X675625Y283875D01*
D02*
G37*
G36*
X694000Y257000D02*
Y254500D01*
X692640Y253140D01*
X692401Y253300D01*
X691854Y253409D01*
X685760D01*
X685213Y253300D01*
X684765Y253000D01*
X683500D01*
X681500Y251000D01*
Y249000D01*
X681000Y248500D01*
X680500Y249000D01*
X659500D01*
X658500Y250000D01*
Y252541D01*
X659000Y252951D01*
X676000D01*
X676975Y253145D01*
X677802Y253698D01*
X678605Y254500D01*
X680000D01*
X681500Y256000D01*
Y257500D01*
X682500Y258500D01*
X692500D01*
X694000Y257000D01*
D02*
G37*
G36*
X684000Y243500D02*
X690500D01*
X691500Y242500D01*
Y239500D01*
X690500Y238500D01*
X682548D01*
X682513Y238535D01*
X681875Y238903D01*
X681495Y239005D01*
X680500Y240000D01*
X677169D01*
D01*
Y240157D01*
X659594D01*
X659384Y240199D01*
X659301D01*
X658500Y241000D01*
Y243500D01*
X660000Y245000D01*
Y245500D01*
X682000D01*
X684000Y243500D01*
D02*
G37*
G36*
X694000Y232000D02*
Y215000D01*
X691000Y212000D01*
X680000D01*
X678500Y213500D01*
Y214332D01*
D01*
X678657D01*
Y220669D01*
Y226331D01*
Y232249D01*
X678707Y232500D01*
X679000D01*
X680000Y233500D01*
X680403D01*
X680426Y233494D01*
X681163D01*
X681185Y233500D01*
X692500D01*
X694000Y232000D01*
D02*
G37*
G36*
X659343Y237608D02*
X676381D01*
X676395Y237605D01*
X676500Y237500D01*
Y233772D01*
X676302Y233475D01*
X676108Y232500D01*
Y226331D01*
Y220332D01*
Y215119D01*
X676105Y215105D01*
X674500Y213500D01*
X674000Y214000D01*
X660500D01*
X658500Y216000D01*
Y237381D01*
X658886Y237699D01*
X659343Y237608D01*
D02*
G37*
G36*
X440000Y360000D02*
Y147500D01*
X455000Y132500D01*
X602500D01*
X605000Y130000D01*
Y110000D01*
X606000Y100500D01*
X606500Y100000D01*
X602500Y96000D01*
X593703D01*
X593494Y96505D01*
X592568Y97890D01*
X591390Y99068D01*
X590005Y99993D01*
X588467Y100631D01*
X586833Y100956D01*
X585167D01*
X583533Y100631D01*
X581995Y99993D01*
X580610Y99068D01*
X579432Y97890D01*
X578507Y96505D01*
X578297Y96000D01*
X402000D01*
X385000Y113000D01*
Y302500D01*
X362500Y325000D01*
X288122D01*
X287974Y325061D01*
X286484Y325257D01*
X279516D01*
X278026Y325061D01*
X277878Y325000D01*
X277500D01*
X272500Y330000D01*
X273000Y341500D01*
Y373000D01*
X286500Y386500D01*
X413500D01*
X440000Y360000D01*
D02*
G37*
G36*
X460000Y87500D02*
Y75000D01*
X457500Y72500D01*
X445000D01*
X437500Y65000D01*
Y27500D01*
X432500Y22500D01*
X425000D01*
X420000Y27500D01*
Y80000D01*
X420500Y80500D01*
X420000Y81000D01*
Y87500D01*
X425000Y92500D01*
X455000D01*
X460000Y87500D01*
D02*
G37*
%LPC*%
G36*
X298833Y378956D02*
X297167D01*
X295533Y378631D01*
X293995Y377993D01*
X292610Y377068D01*
X291432Y375890D01*
X290507Y374505D01*
X289869Y372967D01*
X289544Y371333D01*
Y369667D01*
X289869Y368034D01*
X290507Y366495D01*
X291432Y365110D01*
X292610Y363932D01*
X293995Y363006D01*
X295533Y362369D01*
X297167Y362044D01*
X298833D01*
X300466Y362369D01*
X302005Y363006D01*
X303390Y363932D01*
X304568Y365110D01*
X305493Y366495D01*
X306131Y368034D01*
X306456Y369667D01*
Y371333D01*
X306131Y372967D01*
X305493Y374505D01*
X304568Y375890D01*
X303390Y377068D01*
X302005Y377993D01*
X300466Y378631D01*
X298833Y378956D01*
D02*
G37*
%LPD*%
D21*
X760000Y343400D02*
D03*
Y348715D02*
D03*
X736000Y226185D02*
D03*
Y231500D02*
D03*
X652000Y170500D02*
D03*
Y175815D02*
D03*
X766900Y176315D02*
D03*
Y171000D02*
D03*
X760000Y315500D02*
D03*
Y320815D02*
D03*
X655000Y313843D02*
D03*
Y319158D02*
D03*
X759000Y171185D02*
D03*
Y176500D02*
D03*
X735000Y265815D02*
D03*
Y260500D02*
D03*
X741000Y265815D02*
D03*
Y260500D02*
D03*
X664000Y252500D02*
D03*
Y257815D02*
D03*
X670000Y252500D02*
D03*
Y257815D02*
D03*
X676000Y252500D02*
D03*
Y257815D02*
D03*
X747000Y265815D02*
D03*
Y260500D02*
D03*
X738000Y237842D02*
D03*
Y243158D02*
D03*
X662000Y237185D02*
D03*
Y242500D02*
D03*
X668000Y237185D02*
D03*
Y242500D02*
D03*
X674000Y237185D02*
D03*
Y242500D02*
D03*
X122000Y165685D02*
D03*
Y171000D02*
D03*
X72400Y226443D02*
D03*
Y231757D02*
D03*
X231000Y194185D02*
D03*
Y199500D02*
D03*
X126000Y316500D02*
D03*
Y321815D02*
D03*
X229000Y321004D02*
D03*
Y326319D02*
D03*
X146000Y276500D02*
D03*
X143000Y257842D02*
D03*
X135000Y238158D02*
D03*
X141000D02*
D03*
X147000D02*
D03*
X125000Y187843D02*
D03*
Y193157D02*
D03*
X141000Y232842D02*
D03*
X147000D02*
D03*
X135000D02*
D03*
X143000Y263158D02*
D03*
X146000Y271185D02*
D03*
X218000Y242500D02*
D03*
Y247815D02*
D03*
X212000Y242500D02*
D03*
Y247815D02*
D03*
X206000Y242500D02*
D03*
Y247815D02*
D03*
Y259185D02*
D03*
Y264500D02*
D03*
X212000Y259185D02*
D03*
Y264500D02*
D03*
X218000Y259185D02*
D03*
Y264500D02*
D03*
X121800Y341415D02*
D03*
Y336100D02*
D03*
D22*
X263500Y148441D02*
D03*
Y153559D02*
D03*
X261000Y302382D02*
D03*
Y307500D02*
D03*
X781800Y238518D02*
D03*
Y233400D02*
D03*
X102000Y267618D02*
D03*
Y262500D02*
D03*
X616000Y154500D02*
D03*
Y159618D02*
D03*
Y330941D02*
D03*
Y336059D02*
D03*
D23*
X736441Y250500D02*
D03*
X741559D02*
D03*
X753118D02*
D03*
X748000D02*
D03*
Y230842D02*
D03*
X742882D02*
D03*
X750559Y237500D02*
D03*
X745441D02*
D03*
X659118Y162500D02*
D03*
X654000D02*
D03*
X661559Y306500D02*
D03*
X656441D02*
D03*
X227559Y333500D02*
D03*
X222441D02*
D03*
X128441Y249500D02*
D03*
X133559D02*
D03*
X145559D02*
D03*
X140441D02*
D03*
X131441Y263500D02*
D03*
X136559D02*
D03*
X134441Y270500D02*
D03*
X139559D02*
D03*
X228559Y207500D02*
D03*
X223441D02*
D03*
D24*
X793800Y233400D02*
D03*
X788485D02*
D03*
X800800D02*
D03*
X806115D02*
D03*
X690343Y142500D02*
D03*
X695657D02*
D03*
X667685Y353500D02*
D03*
X673000D02*
D03*
X675343Y273500D02*
D03*
X680657D02*
D03*
X675343Y278500D02*
D03*
X680657D02*
D03*
X675343Y267500D02*
D03*
X680657D02*
D03*
X681000Y217500D02*
D03*
X675685D02*
D03*
X681000Y223500D02*
D03*
X675685D02*
D03*
X681000Y229500D02*
D03*
X675685D02*
D03*
X203685Y157500D02*
D03*
X209000D02*
D03*
X199685Y351500D02*
D03*
X205000D02*
D03*
X83657Y267500D02*
D03*
X95315D02*
D03*
X78342D02*
D03*
X90000D02*
D03*
X201343Y221500D02*
D03*
X206658D02*
D03*
X201343Y227500D02*
D03*
X206658D02*
D03*
X201343Y233500D02*
D03*
X206658D02*
D03*
X205315Y271500D02*
D03*
X200000D02*
D03*
X205315Y283500D02*
D03*
X200000D02*
D03*
X205315Y277500D02*
D03*
X200000D02*
D03*
D25*
X727193Y246000D02*
D03*
X688807Y266000D02*
D03*
Y261000D02*
D03*
Y256000D02*
D03*
Y251000D02*
D03*
Y246000D02*
D03*
Y241000D02*
D03*
Y236000D02*
D03*
Y231000D02*
D03*
X727193Y266000D02*
D03*
Y261000D02*
D03*
Y256000D02*
D03*
Y251000D02*
D03*
Y241000D02*
D03*
Y236000D02*
D03*
Y231000D02*
D03*
X154807Y255000D02*
D03*
X193193Y235000D02*
D03*
Y240000D02*
D03*
Y245000D02*
D03*
Y250000D02*
D03*
Y255000D02*
D03*
Y260000D02*
D03*
Y265000D02*
D03*
Y270000D02*
D03*
X154807Y235000D02*
D03*
Y240000D02*
D03*
Y245000D02*
D03*
Y250000D02*
D03*
Y260000D02*
D03*
Y265000D02*
D03*
Y270000D02*
D03*
D26*
X262000Y120252D02*
D03*
Y136000D02*
D03*
X248000Y120252D02*
D03*
Y136000D02*
D03*
X634000Y295626D02*
D03*
Y311374D02*
D03*
X261000Y339248D02*
D03*
Y323500D02*
D03*
X246000Y339500D02*
D03*
Y323752D02*
D03*
X632000Y132248D02*
D03*
Y116500D02*
D03*
X618000Y132248D02*
D03*
Y116500D02*
D03*
X620000Y311500D02*
D03*
Y295752D02*
D03*
D27*
X750000Y179209D02*
D03*
Y167791D02*
D03*
X658000Y188500D02*
D03*
Y199917D02*
D03*
X750000Y311791D02*
D03*
Y323209D02*
D03*
X659000Y331500D02*
D03*
Y342917D02*
D03*
X224000Y171500D02*
D03*
Y182917D02*
D03*
X134000Y320917D02*
D03*
Y309500D02*
D03*
X63250Y232209D02*
D03*
Y220791D02*
D03*
X134000Y186083D02*
D03*
Y197500D02*
D03*
D28*
X692709Y153500D02*
D03*
X681291D02*
D03*
X679709Y345500D02*
D03*
X668291D02*
D03*
X212417Y165500D02*
D03*
X201000D02*
D03*
X204000Y343500D02*
D03*
X192583D02*
D03*
X222583Y306000D02*
D03*
X234000D02*
D03*
D29*
X653094Y156000D02*
D03*
X659000D02*
D03*
D30*
X789894Y241593D02*
D03*
X801705D02*
D03*
X82095Y259307D02*
D03*
X93906D02*
D03*
D31*
X767000Y266500D02*
D03*
Y258626D02*
D03*
X114913Y237437D02*
D03*
Y229563D02*
D03*
D32*
X754205Y262563D02*
D03*
X127709Y233500D02*
D03*
D33*
X781800Y251306D02*
D03*
Y245400D02*
D03*
X661000Y319406D02*
D03*
Y313500D02*
D03*
X224000Y200453D02*
D03*
Y194547D02*
D03*
X223000Y327102D02*
D03*
Y321197D02*
D03*
X102000Y256059D02*
D03*
Y250153D02*
D03*
D34*
X791666Y262400D02*
D03*
X799934D02*
D03*
X83866Y239500D02*
D03*
X92134D02*
D03*
D35*
X253000Y306500D02*
D03*
Y295476D02*
D03*
X255000Y160524D02*
D03*
Y149500D02*
D03*
D36*
X634024Y334500D02*
D03*
X623000D02*
D03*
X635000Y157500D02*
D03*
X623976D02*
D03*
D46*
X795800Y241593D02*
D03*
X88000Y259307D02*
D03*
D55*
X600000Y299500D02*
D03*
Y121500D02*
D03*
X283000Y339500D02*
D03*
Y162500D02*
D03*
D56*
X600000Y329500D02*
D03*
Y339500D02*
D03*
Y319500D02*
D03*
Y151500D02*
D03*
Y161500D02*
D03*
Y141500D02*
D03*
X283000Y319500D02*
D03*
Y299500D02*
D03*
Y309500D02*
D03*
Y142500D02*
D03*
Y122500D02*
D03*
Y132500D02*
D03*
D63*
X410945Y240500D02*
D03*
X470000D02*
D03*
X410945Y147500D02*
D03*
X470000D02*
D03*
X410945Y194000D02*
D03*
X470000D02*
D03*
D71*
X80800Y306000D02*
Y323200D01*
Y306000D02*
X116100Y270700D01*
X134044D01*
X77000Y286500D02*
X88000D01*
X95157Y267657D02*
X95315Y267500D01*
X95000Y274000D02*
X95157Y273843D01*
X102000Y267618D02*
Y272500D01*
X95157Y267657D02*
Y273843D01*
X88000Y286500D02*
X102000Y272500D01*
X83657Y272887D02*
X84000Y273229D01*
X83657Y267500D02*
Y272887D01*
X84000Y273229D02*
Y273500D01*
X134044Y270700D02*
X134441Y270303D01*
Y270500D01*
X77072Y323200D02*
X80800D01*
X67189Y223746D02*
X70260D01*
X71431Y224918D01*
Y225671D02*
X72261Y226500D01*
X71431Y224918D02*
Y225671D01*
X72261Y226500D02*
X73053D01*
X766900Y176315D02*
X798641D01*
X804700Y182374D01*
X807700D01*
X768471Y172374D02*
X807700D01*
X767097Y171000D02*
X768471Y172374D01*
X766900Y171000D02*
X767097D01*
X808465Y163139D02*
X815539D01*
X817200Y164800D01*
X807700Y162374D02*
X808465Y163139D01*
X817200Y164800D02*
Y185874D01*
X807700Y192374D02*
X810700D01*
X817200Y185874D01*
X748000Y230842D02*
X757158D01*
X795626Y192374D01*
X807700D01*
X807900Y314700D02*
Y330774D01*
X775400Y282200D02*
X807900Y314700D01*
X775400Y252500D02*
Y282200D01*
X760400Y237500D02*
X775400Y252500D01*
X750559Y237500D02*
X760400D01*
X790991Y253591D02*
Y257862D01*
X795800Y241593D02*
X795850Y241643D01*
Y247150D02*
X795900Y247200D01*
X790991Y257862D02*
X791666Y258537D01*
X795850Y241643D02*
Y247150D01*
X790800Y253400D02*
X790991Y253591D01*
X781800Y251306D02*
Y256400D01*
X791666Y258537D02*
Y262400D01*
X766950Y258576D02*
X767000Y258626D01*
X766950Y252450D02*
Y258576D01*
X766900Y252400D02*
X766950Y252450D01*
X801758Y348715D02*
X803818Y350774D01*
X807900D01*
X760000Y348715D02*
X801758D01*
X803818Y340774D02*
X807900D01*
X760000Y343400D02*
X801192D01*
X803818Y340774D01*
X807900Y330774D02*
X810900D01*
X818700Y338574D01*
Y352974D01*
X810900Y360774D02*
X818700Y352974D01*
X807900Y360774D02*
X810900D01*
X806115Y233400D02*
X810800D01*
X781997D02*
X788485D01*
X800028Y232628D02*
X800800Y233400D01*
X798300Y227900D02*
Y228171D01*
X800028Y229899D01*
X799934Y262400D02*
X806300D01*
X789894Y241593D02*
Y252224D01*
X781800Y238518D02*
Y245400D01*
X801705Y243227D02*
X805687Y247209D01*
X782670Y229300D02*
X784300Y227671D01*
X782670Y229300D02*
Y232727D01*
X805687Y247209D02*
X806609D01*
X800028Y229899D02*
Y232628D01*
X793800Y228671D02*
X794300Y228171D01*
X793800Y228671D02*
Y233400D01*
X794300Y227900D02*
Y228171D01*
X784300Y227400D02*
Y227671D01*
X781800Y233400D02*
X781997D01*
X782670Y232727D01*
X806609Y247209D02*
X806800Y247400D01*
X801705Y241593D02*
Y243227D01*
X120918Y164800D02*
X121803Y165685D01*
X80800Y164800D02*
X120918D01*
X121803Y165685D02*
X122000D01*
X121803Y171000D02*
X122000D01*
X80800Y174800D02*
X118003D01*
X121803Y171000D01*
X84882Y333200D02*
X87782Y336100D01*
X80800Y333200D02*
X84882D01*
X87782Y336100D02*
X121800D01*
X80800Y343200D02*
X84882D01*
X86667Y341415D02*
X121800D01*
X84882Y343200D02*
X86667Y341415D01*
X70400Y329872D02*
X77072Y323200D01*
X70400Y329872D02*
Y345800D01*
X77800Y353200D01*
X80800D01*
X70700Y161172D02*
Y177700D01*
X77072Y154800D02*
X80800D01*
X70700Y161172D02*
X77072Y154800D01*
X70700Y177700D02*
X77800Y184800D01*
X80800D01*
Y212662D01*
X203485Y157300D02*
X203685Y157500D01*
X191000Y157300D02*
X203485D01*
X188000Y160300D02*
Y168000D01*
Y160300D02*
X191000Y157300D01*
X224000Y182917D02*
X232117D01*
X233900Y207300D02*
X238300Y202900D01*
Y189100D02*
Y202900D01*
X232117Y182917D02*
X238300Y189100D01*
X231000Y199500D02*
X231197D01*
X233900Y202203D01*
Y207300D01*
X228656Y207400D02*
X233800D01*
X233900Y207300D01*
X228559Y207303D02*
X228656Y207400D01*
X125000Y193157D02*
X141957D01*
X146579Y196122D02*
Y198921D01*
X143678Y193222D02*
X146579Y196122D01*
Y198921D02*
X148000Y200342D01*
X141957Y193157D02*
X142022Y193222D01*
X143678D01*
X140567Y326500D02*
X148000D01*
X130882D02*
X140567D01*
X126000Y321815D02*
X126197D01*
X130882Y326500D01*
X154657Y259850D02*
X154807Y260000D01*
X148400Y259700D02*
X148550Y259850D01*
X154657D01*
X152740Y255000D02*
X154807D01*
X152190Y254819D02*
X152559D01*
X147691Y254591D02*
X151962D01*
X147500Y254400D02*
X147691Y254591D01*
X152559Y254819D02*
X152740Y255000D01*
X151962Y254591D02*
X152190Y254819D01*
X193193Y265000D02*
X200100D01*
X193193Y240000D02*
X193293Y240100D01*
X199900D02*
X200000Y240200D01*
X193293Y240100D02*
X199900D01*
X134000Y255000D02*
X135843Y253157D01*
X135973D02*
X137020Y252110D01*
X139768Y250370D02*
X140441Y249697D01*
X134000Y255000D02*
X134000D01*
X137020Y251980D02*
Y252110D01*
Y251980D02*
X138630Y250370D01*
X139768D01*
X135843Y253157D02*
X135973D01*
X140441Y249500D02*
Y249697D01*
X661279Y306780D02*
Y313221D01*
Y306780D02*
X661559Y306500D01*
X661000Y313500D02*
X661279Y313221D01*
X656441Y306303D02*
X658098Y304646D01*
Y303890D02*
X659145Y302842D01*
X668185D02*
X675000Y309658D01*
X658098Y303890D02*
Y304646D01*
X659145Y302842D02*
X668185D01*
X656441Y306303D02*
Y306500D01*
X240718Y284724D02*
Y288704D01*
X240400Y289022D02*
Y294900D01*
Y289022D02*
X240718Y288704D01*
X240400Y284406D02*
X240718Y284724D01*
X240400Y294900D02*
X240730Y295230D01*
X748729Y245000D02*
X754000D01*
X746942Y246787D02*
X748729Y245000D01*
X745329Y243329D02*
X745500Y243500D01*
X745075Y246787D02*
X746942D01*
X738171Y243329D02*
X745329D01*
X741559Y250303D02*
X745075Y246787D01*
X738000Y243158D02*
X738171Y243329D01*
X635000Y171000D02*
Y177000D01*
X642000Y184000D01*
X649813Y333813D02*
Y344000D01*
X645500Y329500D02*
X649813Y333813D01*
X644000Y348000D02*
X645813D01*
X649813Y344000D01*
X254230Y169230D02*
X260000Y175000D01*
X254230Y166230D02*
Y169230D01*
X254000Y166000D02*
X254230Y166230D01*
X681500Y236000D02*
X688807D01*
X681024Y236065D02*
X681435D01*
X680794Y236294D02*
X681024Y236065D01*
X681435D02*
X681500Y236000D01*
X188000Y168000D02*
Y200342D01*
X191500Y164500D02*
X200000D01*
X188000Y168000D02*
X191500Y164500D01*
X200000D02*
X201000Y165500D01*
Y164516D02*
Y165500D01*
X203047Y158138D02*
X203685Y157500D01*
X661575Y322304D02*
X663000Y323729D01*
Y324000D01*
X661000Y319406D02*
X661575Y319980D01*
Y322304D01*
X724421Y174921D02*
X728709Y179209D01*
X724421Y169921D02*
Y174921D01*
X728709Y179209D02*
X750000D01*
X724000Y169500D02*
X724421Y169921D01*
X736441Y250500D02*
Y250697D01*
X738098Y252354D02*
Y253110D01*
X739146Y254157D01*
X741000Y257445D02*
Y260500D01*
X736441Y250697D02*
X738098Y252354D01*
X739146Y254157D02*
X743973D01*
X745417Y252713D01*
X745984D02*
X748000Y250697D01*
X745417Y252713D02*
X745984D01*
X748000Y250500D02*
Y250697D01*
X741559Y250303D02*
Y250500D01*
X727374Y250819D02*
X736122D01*
X736441Y250500D01*
X727193Y251000D02*
X727374Y250819D01*
X727193Y241000D02*
X733000D01*
X745270Y237671D02*
X745441Y237500D01*
X736171Y237671D02*
X745270D01*
X732803Y246000D02*
X734874Y243929D01*
X735228D01*
X727193Y246000D02*
X732803D01*
X735228Y243929D02*
X736000Y243158D01*
Y237842D02*
X736171Y237671D01*
X722157Y258968D02*
Y272158D01*
X726000Y276000D02*
X744000D01*
X722157Y272158D02*
X726000Y276000D01*
X725126Y256000D02*
X727193D01*
X722157Y258968D02*
X725126Y256000D01*
X744000Y276000D02*
X747000Y273000D01*
Y265815D02*
Y273000D01*
X751150Y265815D02*
X754205Y262760D01*
Y262563D02*
Y262760D01*
X747000Y265815D02*
X751150D01*
X757945Y266500D02*
X767000D01*
X754205Y262760D02*
X757945Y266500D01*
X738534Y230940D02*
X738632Y230842D01*
X742882D01*
X736000Y231500D02*
X736560Y230940D01*
X738534D01*
X731500Y231000D02*
X732000Y231500D01*
X736000D01*
X727193Y231000D02*
X731500D01*
X727193Y236000D02*
X732537D01*
X733608Y237071D02*
X735228D01*
X736000Y237842D01*
X732537Y236000D02*
X733608Y237071D01*
X736000Y221000D02*
Y226185D01*
X753118Y250500D02*
X757500D01*
X747000Y256000D02*
Y260500D01*
X735000Y256000D02*
Y260500D01*
X635000Y157500D02*
Y171000D01*
X618000Y132248D02*
Y141500D01*
X616000Y150500D02*
Y154500D01*
X658000Y182000D02*
Y188500D01*
X657842Y175657D02*
X658000Y175500D01*
X652000Y175815D02*
X652157Y175657D01*
X657842D01*
X648271Y155500D02*
X648771Y156000D01*
X648000Y155500D02*
X648271D01*
X648771Y156000D02*
X653094D01*
X685000Y142500D02*
X690343D01*
X675500Y153500D02*
X681291D01*
X659000Y156000D02*
X659059Y156059D01*
Y162441D02*
X659118Y162500D01*
X659059Y156059D02*
Y162441D01*
X652000Y164697D02*
X654000Y162697D01*
Y162500D02*
Y162697D01*
X652000Y164697D02*
Y170500D01*
X652197D01*
X653197Y169500D02*
X674000D01*
X652197Y170500D02*
X653197Y169500D01*
X658000Y199917D02*
X668083D01*
X674000Y194000D01*
Y169500D02*
Y194000D01*
X696429Y143272D02*
Y147394D01*
X695828Y151000D02*
X696932Y149896D01*
X694268Y151000D02*
X695828D01*
X695657Y142500D02*
X696429Y143272D01*
Y147394D02*
X696932Y147896D01*
Y149896D01*
X692709Y152559D02*
X694268Y151000D01*
X692709Y152559D02*
Y153500D01*
Y161741D02*
X694000Y163033D01*
X692709Y153500D02*
Y161741D01*
X694000Y163033D02*
Y169500D01*
X634024Y334500D02*
X640500D01*
X645500Y329500D01*
X682000Y261500D02*
X682500Y261000D01*
X688807D01*
X620000Y311500D02*
Y321000D01*
X616000Y326500D02*
Y330941D01*
X662500Y353000D02*
X662691Y353191D01*
X667376D02*
X667685Y353500D01*
X662691Y353191D02*
X667376D01*
X673729Y339000D02*
X674000D01*
X672729Y340000D02*
X673729Y339000D01*
X669850Y341172D02*
X671022Y340000D01*
X669850Y341172D02*
Y343941D01*
X671022Y340000D02*
X672729D01*
X668291Y345500D02*
X669850Y343941D01*
X654500Y323500D02*
X654691Y323309D01*
Y319466D02*
X655000Y319158D01*
X654691Y319466D02*
Y323309D01*
X659500Y326500D02*
Y331000D01*
X659000Y331500D02*
X659500Y331000D01*
X669500Y336000D02*
X675000Y330500D01*
Y309658D02*
Y330500D01*
X666902Y336000D02*
X669500D01*
X659000Y342917D02*
X659984D01*
X666902Y336000D01*
X673772Y352421D02*
X679709Y346484D01*
X673772Y352421D02*
Y352728D01*
X679709Y345500D02*
Y346484D01*
X673000Y353500D02*
X673772Y352728D01*
X679709Y344516D02*
X695000Y329224D01*
Y309658D02*
Y329224D01*
X679709Y344516D02*
Y345500D01*
X656441Y306500D02*
Y306697D01*
X655000Y308138D02*
Y313843D01*
Y308138D02*
X656441Y306697D01*
X254000Y161524D02*
Y166000D01*
Y161524D02*
X255000Y160524D01*
X261000Y315500D02*
Y323500D01*
X209000Y157500D02*
X213500D01*
X224000Y166500D02*
Y171500D01*
X231000Y189500D02*
Y194185D01*
X212667Y165250D02*
X218209D01*
X212417Y165500D02*
X212667Y165250D01*
X224000Y189500D02*
Y194547D01*
X223721Y200732D02*
Y207221D01*
Y200732D02*
X224000Y200453D01*
X223441Y207500D02*
X223721Y207221D01*
X234000Y306000D02*
X239000D01*
X261000Y307500D02*
X266500D01*
X225191Y317392D02*
X228803Y321004D01*
X225191Y315191D02*
Y317392D01*
X225000Y315000D02*
X225191Y315191D01*
X228803Y321004D02*
X229000D01*
X220500Y315000D02*
Y318697D01*
X223000Y321197D01*
X225126Y308543D02*
X232756Y316173D01*
Y323516D01*
X228803Y326319D02*
X229000D01*
X229197D01*
X231709Y324563D02*
X232756Y323516D01*
X230953Y324563D02*
X231709D01*
X229197Y326319D02*
X230953Y324563D01*
X224142Y308543D02*
X225126D01*
X222583Y306984D02*
X224142Y308543D01*
X222583Y306000D02*
Y306984D01*
X208000Y326500D02*
Y333000D01*
X212000Y337000D01*
X215000D01*
X215158Y337158D02*
X224854D01*
X215000Y337000D02*
X215158Y337158D01*
X225902Y335354D02*
X227559Y333697D01*
X225902Y335354D02*
Y336110D01*
X224854Y337158D02*
X225902Y336110D01*
X227559Y333500D02*
Y333697D01*
Y327563D02*
Y333500D01*
Y327563D02*
X228803Y326319D01*
X240730Y295230D02*
X252753D01*
X253000Y295476D01*
X198000Y326500D02*
Y337328D01*
X198672Y338000D01*
X199484D01*
X204000Y342516D01*
Y343500D01*
X204500Y344000D01*
Y351000D02*
X205000Y351500D01*
X204500Y344000D02*
Y351000D01*
X194500Y351500D02*
X199685D01*
X192583Y349583D02*
X194500Y351500D01*
X192583Y343500D02*
Y349583D01*
X188000Y337933D02*
X192583Y342516D01*
X188000Y326500D02*
Y337933D01*
X192583Y342516D02*
Y343500D01*
X253886Y306500D02*
X255946Y304439D01*
X253000Y306500D02*
X253886D01*
X255946Y303554D02*
Y304439D01*
X252114Y306500D02*
X253000D01*
X222721Y327382D02*
X223000Y327102D01*
X222721Y327382D02*
Y333221D01*
X222441Y333500D02*
X222721Y333221D01*
X80800Y212662D02*
X131441Y263303D01*
X118117Y241129D02*
X118309Y241320D01*
X118117Y240641D02*
Y241129D01*
X114913Y237437D02*
X118117Y240641D01*
X131441Y263303D02*
Y263500D01*
X134984Y197500D02*
X137827Y200342D01*
X138000Y222000D02*
X161328D01*
X162500Y223172D02*
Y239374D01*
X135000Y225000D02*
Y232842D01*
X137003Y222997D02*
X138000Y222000D01*
X135000Y225000D02*
X137003Y222997D01*
X137827Y200342D02*
X148000D01*
X161328Y222000D02*
X162500Y223172D01*
X134000Y197500D02*
X134984D01*
X102000Y256059D02*
Y262500D01*
X92134Y245432D02*
X94000Y247298D01*
X92134Y239500D02*
Y245432D01*
X94000Y247298D02*
Y253500D01*
X133559Y249303D02*
Y249500D01*
Y249303D02*
X137020Y245843D01*
X142854D01*
X143902Y246890D01*
Y247646D01*
X145559Y249303D01*
Y249500D01*
X90772Y264075D02*
Y266728D01*
Y264075D02*
X93906Y260941D01*
X90000Y267500D02*
X90772Y266728D01*
X93906Y259307D02*
Y260941D01*
X93953Y253547D02*
Y259260D01*
X93906Y259307D02*
X93953Y259260D01*
Y253547D02*
X94000Y253500D01*
X135000Y238158D02*
Y242500D01*
X114913Y229563D02*
X123969D01*
X127709Y233303D01*
Y233500D01*
X128366Y232842D01*
X135000D01*
X156874Y245000D02*
X162500Y239374D01*
X154807Y245000D02*
X156874D01*
X152240Y249500D02*
X152740Y250000D01*
X154807D01*
X145559Y249500D02*
X152240D01*
X136716Y263657D02*
X145843D01*
X136559Y263500D02*
X136716Y263657D01*
X146000Y263815D02*
X151555D01*
X152740Y265000D01*
X154807D01*
X145843Y263657D02*
X146000Y263815D01*
X140020Y270630D02*
X140232Y270843D01*
X140020Y270506D02*
Y270630D01*
X145658Y270843D02*
X146000Y271185D01*
X140232Y270843D02*
X145658D01*
X146772Y271957D02*
X148457D01*
X148500Y272000D01*
X146000Y271185D02*
X146772Y271957D01*
X150740Y272000D02*
X152740Y270000D01*
X148500Y272000D02*
X150740D01*
X152740Y270000D02*
X154807D01*
X146000Y276500D02*
X151000D01*
X140500D02*
X146000D01*
X138771Y257842D02*
X143000D01*
X138271Y257343D02*
X138771Y257842D01*
X138000Y257343D02*
X138271D01*
X147000Y238158D02*
Y242500D01*
X141000Y238158D02*
Y242500D01*
X128441Y249500D02*
X128471Y249470D01*
Y244029D02*
Y249470D01*
Y244029D02*
X128500Y244000D01*
X102000Y244500D02*
Y250153D01*
X64234Y220791D02*
X67189Y223746D01*
X63250Y220791D02*
X64234D01*
X157500Y326000D02*
X158000Y326500D01*
X157500Y313000D02*
Y326000D01*
X154000Y309500D02*
X157500Y313000D01*
X134000Y309500D02*
X154000D01*
X126000Y312172D02*
X127457Y310715D01*
X126000Y312172D02*
Y316500D01*
X132785Y310715D02*
X134000Y309500D01*
X127457Y310715D02*
X132785D01*
X134984Y320917D02*
X140567Y326500D01*
X134000Y320917D02*
X134984D01*
X126000Y321815D02*
X126449Y321366D01*
X46000Y208500D02*
X54732Y217232D01*
X59691D01*
X63250Y220791D01*
X88000Y253500D02*
Y259307D01*
X158000Y190500D02*
Y200342D01*
X134000Y186083D02*
X153583D01*
X158000Y190500D01*
X131256Y187843D02*
X133016Y186083D01*
X134000D01*
X125000Y187843D02*
X131256D01*
X132441Y195941D02*
X134000Y197500D01*
X756291Y179209D02*
X758032Y177469D01*
X750000Y179209D02*
X756291D01*
X758032Y177272D02*
Y177469D01*
Y177272D02*
X758803Y176500D01*
X759000D01*
X750000Y167791D02*
X755606D01*
X758032Y170217D01*
Y170413D01*
X758803Y171185D01*
X759000D01*
X741583Y167791D02*
X750000D01*
X734000Y169500D02*
X739874D01*
X741583Y167791D01*
X725000Y309658D02*
Y318500D01*
X729709Y323209D01*
X750000D01*
X753378Y320815D02*
X760000D01*
X750984Y323209D02*
X753378Y320815D01*
X750000Y323209D02*
X750984D01*
X759803Y315500D02*
X760000D01*
X750000Y311791D02*
X756291D01*
X759031Y314531D01*
Y314728D01*
X759803Y315500D01*
X746882Y309658D02*
X749016Y311791D01*
X735000Y309658D02*
X746882D01*
X749016Y311791D02*
X750000D01*
D72*
X263500Y155500D02*
Y160000D01*
X618000Y116500D02*
X632000D01*
Y132248D02*
Y148866D01*
X623976Y156890D02*
Y157500D01*
Y156890D02*
X632000Y148866D01*
X616157Y159461D02*
X619232D01*
X616000Y159618D02*
X616157Y159461D01*
X619232D02*
X620444Y158248D01*
X614118Y161500D02*
X616000Y159618D01*
X600000Y161500D02*
X614118D01*
X613327Y338732D02*
X616000Y336059D01*
X600768Y338732D02*
X613327D01*
X600000Y339500D02*
X600768Y338732D01*
X619885Y335248D02*
X622862D01*
X619232Y335902D02*
X619885Y335248D01*
X623000Y334500D02*
Y335110D01*
X622862Y335248D02*
X623000Y335110D01*
Y324770D02*
Y334500D01*
Y324770D02*
X625949Y321822D01*
Y321000D02*
Y321822D01*
X634000Y311374D02*
Y312949D01*
X625949Y321000D02*
X634000Y312949D01*
X620063Y295689D02*
X633937D01*
X620000Y295752D02*
X620063Y295689D01*
X633937D02*
X634000Y295626D01*
X246126Y339374D02*
X260874D01*
X246000Y339500D02*
X246126Y339374D01*
X260874D02*
X261000Y339248D01*
X255946Y303554D02*
X257118Y302382D01*
X261000D01*
X248000Y136000D02*
Y144000D01*
X255610Y149500D02*
X261154Y143957D01*
Y136846D02*
Y143957D01*
X255000Y149500D02*
X255610D01*
X261154Y136846D02*
X262000Y136000D01*
Y146941D01*
X263500Y148441D01*
X282232Y123268D02*
X283000Y122500D01*
X262000Y134425D02*
Y136000D01*
Y134425D02*
X273157Y123268D01*
X282232D01*
X248000Y120252D02*
X262000D01*
X263882Y299500D02*
X283000D01*
X261000Y302382D02*
X263882Y299500D01*
X246000Y312614D02*
X252114Y306500D01*
X246000Y312614D02*
Y323752D01*
D73*
X110800Y184800D02*
D03*
Y154800D02*
D03*
X80800D02*
D03*
Y164800D02*
D03*
Y174800D02*
D03*
Y184800D02*
D03*
Y353200D02*
D03*
Y343200D02*
D03*
Y333200D02*
D03*
Y323200D02*
D03*
X110800D02*
D03*
Y353200D02*
D03*
X777900Y330774D02*
D03*
Y360774D02*
D03*
X807900D02*
D03*
Y350774D02*
D03*
Y340774D02*
D03*
Y330774D02*
D03*
X777700Y162374D02*
D03*
Y192374D02*
D03*
X807700D02*
D03*
Y182374D02*
D03*
Y172374D02*
D03*
Y162374D02*
D03*
D74*
X518000Y80000D02*
D03*
X394000Y118000D02*
D03*
X370000Y98000D02*
D03*
X478000Y76000D02*
D03*
X642000Y184000D02*
D03*
X644000Y348000D02*
D03*
X242000Y284500D02*
D03*
X260000Y175000D02*
D03*
X25000Y281500D02*
D03*
X761500Y212800D02*
D03*
X72000Y206500D02*
D03*
X77000Y286500D02*
D03*
X215000Y379000D02*
D03*
X684000Y97500D02*
D03*
X214500Y91500D02*
D03*
X660500Y376500D02*
D03*
D75*
X865000Y447500D02*
D03*
X578000Y27500D02*
D03*
Y446500D02*
D03*
X865000Y27500D02*
D03*
X20000Y447500D02*
D03*
Y27500D02*
D03*
D76*
X298000Y91500D02*
D03*
Y191500D02*
D03*
Y270500D02*
D03*
Y370500D02*
D03*
X586000Y271500D02*
D03*
Y371500D02*
D03*
Y192500D02*
D03*
Y92500D02*
D03*
D77*
X26000Y208500D02*
D03*
X46000D02*
D03*
X26000Y235500D02*
D03*
X46000D02*
D03*
X26000Y264500D02*
D03*
X46000D02*
D03*
D78*
X450000Y84500D02*
D03*
X430000D02*
D03*
Y114500D02*
D03*
X450000D02*
D03*
D79*
X462000Y334500D02*
D03*
X422630D02*
D03*
D80*
X695000Y309658D02*
D03*
X675000D02*
D03*
X685000D02*
D03*
X725000D02*
D03*
X694000Y169500D02*
D03*
X674000D02*
D03*
X684000D02*
D03*
X724000D02*
D03*
X158000Y326500D02*
D03*
Y200342D02*
D03*
X198000Y326500D02*
D03*
X208000D02*
D03*
X188000D02*
D03*
X198000Y200342D02*
D03*
X208000D02*
D03*
X188000D02*
D03*
D81*
X735000Y309658D02*
D03*
X734000Y169500D02*
D03*
X148000Y326500D02*
D03*
Y200342D02*
D03*
D82*
X518000Y51500D02*
D03*
Y31500D02*
D03*
X367000Y51500D02*
D03*
Y31500D02*
D03*
X458000Y51500D02*
D03*
Y31500D02*
D03*
X430000Y51500D02*
D03*
Y31500D02*
D03*
D83*
X38000Y298500D02*
D03*
Y308500D02*
D03*
D84*
X708000Y251500D02*
D03*
X174000D02*
D03*
D85*
X95000Y274000D02*
D03*
X102000Y272500D02*
D03*
X84000Y273500D02*
D03*
X121300Y279400D02*
D03*
X63400Y238500D02*
D03*
X782600Y270500D02*
D03*
X795900Y247200D02*
D03*
X766900Y252400D02*
D03*
X790800Y253400D02*
D03*
X781800Y256400D02*
D03*
X115700Y217200D02*
D03*
X148400Y259700D02*
D03*
X147500Y254400D02*
D03*
X263500Y160000D02*
D03*
X213000Y220000D02*
D03*
Y225000D02*
D03*
Y230000D02*
D03*
Y235500D02*
D03*
X754000Y245000D02*
D03*
X745500Y243500D02*
D03*
X193000Y221500D02*
D03*
Y227500D02*
D03*
X663000Y324000D02*
D03*
X784300Y227400D02*
D03*
X741000Y257445D02*
D03*
X733000Y241000D02*
D03*
X738000Y270500D02*
D03*
X733000D02*
D03*
X757500Y250500D02*
D03*
X736000Y221000D02*
D03*
X747000Y256000D02*
D03*
X735000D02*
D03*
X661500Y217000D02*
D03*
Y222500D02*
D03*
Y227500D02*
D03*
X687000Y228000D02*
D03*
Y218000D02*
D03*
Y223500D02*
D03*
X681000Y242500D02*
D03*
X658000Y182000D02*
D03*
X618000Y141500D02*
D03*
X616000Y150500D02*
D03*
X685000Y142500D02*
D03*
X675500Y153500D02*
D03*
X648000Y155500D02*
D03*
X658000Y175500D02*
D03*
X670000Y262500D02*
D03*
Y268000D02*
D03*
X620000Y321000D02*
D03*
X692500Y282000D02*
D03*
Y277000D02*
D03*
X683000Y255500D02*
D03*
X670000Y273500D02*
D03*
Y278000D02*
D03*
X692500Y272000D02*
D03*
X616000Y326500D02*
D03*
X654500Y323500D02*
D03*
X659500Y326500D02*
D03*
X674000Y339000D02*
D03*
X662500Y353000D02*
D03*
X248000Y144000D02*
D03*
X225000Y249500D02*
D03*
X193000Y233500D02*
D03*
X224000Y166500D02*
D03*
Y189500D02*
D03*
X231000D02*
D03*
X218209Y165250D02*
D03*
X213500Y157500D02*
D03*
X266500Y307500D02*
D03*
X261000Y315500D02*
D03*
X239000Y306000D02*
D03*
X225000Y315000D02*
D03*
X220500D02*
D03*
X195000Y271500D02*
D03*
Y277500D02*
D03*
Y283500D02*
D03*
X218000Y271500D02*
D03*
X210000D02*
D03*
Y277500D02*
D03*
X209500Y283500D02*
D03*
X118309Y241320D02*
D03*
X147000Y227500D02*
D03*
X141000D02*
D03*
X134000Y255000D02*
D03*
X155000Y227500D02*
D03*
X94000Y253500D02*
D03*
X135000Y242500D02*
D03*
X102000Y244500D02*
D03*
X140500Y276500D02*
D03*
X151000D02*
D03*
X138000Y257343D02*
D03*
X147000Y242500D02*
D03*
X141000D02*
D03*
X128500Y244000D02*
D03*
X88000Y253500D02*
D03*
X798300Y227900D02*
D03*
X794300D02*
D03*
X810800Y233400D02*
D03*
X806800Y247400D02*
D03*
X806300Y262400D02*
D03*
X78000Y239500D02*
D03*
X77000Y253000D02*
D03*
X72700Y237100D02*
D03*
X71500Y267000D02*
D03*
D86*
X233900Y207300D02*
D03*
X200100Y265000D02*
D03*
X200000Y240200D02*
D03*
X200500Y258500D02*
D03*
X680794Y236294D02*
D03*
X635000Y171000D02*
D03*
X645500Y329500D02*
D03*
X682000Y261500D02*
D03*
X254000Y166000D02*
D03*
X240500Y295000D02*
D03*
M02*
