G04*
G04 #@! TF.GenerationSoftware,Altium Limited,Altium Designer,21.1.1 (26)*
G04*
G04 Layer_Color=16711935*
%FSLAX25Y25*%
%MOIN*%
G70*
G04*
G04 #@! TF.SameCoordinates,3677F01D-BDC3-49B7-9324-C1A4C2B8551F*
G04*
G04*
G04 #@! TF.FilePolarity,Positive*
G04*
G01*
G75*
%ADD10C,0.00600*%
%ADD15C,0.00500*%
%ADD17C,0.00394*%
%ADD89C,0.00700*%
%ADD90C,0.00400*%
G36*
X447874Y97592D02*
X444720D01*
Y98145D01*
X447254D01*
Y99587D01*
X445063D01*
Y100139D01*
X447254D01*
Y102256D01*
X447874D01*
Y97592D01*
D02*
G37*
G36*
X442570Y98610D02*
X442576Y98616D01*
X442610Y98643D01*
X442651Y98684D01*
X442718Y98731D01*
X442792Y98791D01*
X442886Y98859D01*
X442994Y98933D01*
X443116Y99007D01*
X443122D01*
X443129Y99014D01*
X443169Y99041D01*
X443237Y99075D01*
X443318Y99115D01*
X443412Y99162D01*
X443513Y99209D01*
X443614Y99257D01*
X443715Y99297D01*
Y98744D01*
X443709D01*
X443695Y98731D01*
X443668Y98724D01*
X443635Y98704D01*
X443594Y98684D01*
X443547Y98657D01*
X443432Y98589D01*
X443298Y98515D01*
X443163Y98421D01*
X443021Y98313D01*
X442880Y98198D01*
X442873Y98192D01*
X442866Y98185D01*
X442846Y98165D01*
X442819Y98145D01*
X442758Y98077D01*
X442677Y97996D01*
X442597Y97902D01*
X442509Y97794D01*
X442435Y97686D01*
X442367Y97572D01*
X441997D01*
Y102256D01*
X442570D01*
Y98610D01*
D02*
G37*
D10*
X715300Y246501D02*
Y249834D01*
X714634Y250500D01*
X713301D01*
X712634Y249834D01*
Y246501D01*
X708636Y250500D02*
X711301D01*
X708636Y247834D01*
Y247168D01*
X709302Y246501D01*
X710635D01*
X711301Y247168D01*
X166700Y254499D02*
Y251166D01*
X167367Y250500D01*
X168699D01*
X169366Y251166D01*
Y254499D01*
X170699Y250500D02*
X172032D01*
X171365D01*
Y254499D01*
X170699Y253832D01*
D15*
X524946Y80000D02*
G03*
X524946Y80000I-6946J0D01*
G01*
X400946Y118000D02*
G03*
X400946Y118000I-6946J0D01*
G01*
X376946Y98000D02*
G03*
X376946Y98000I-6946J0D01*
G01*
X484946Y76000D02*
G03*
X484946Y76000I-6946J0D01*
G01*
X648946Y184000D02*
G03*
X648946Y184000I-6946J0D01*
G01*
X650946Y348000D02*
G03*
X650946Y348000I-6946J0D01*
G01*
X248946Y284500D02*
G03*
X248946Y284500I-6946J0D01*
G01*
X266946Y175000D02*
G03*
X266946Y175000I-6946J0D01*
G01*
X31946Y281500D02*
G03*
X31946Y281500I-6946J0D01*
G01*
X712025Y228766D02*
G03*
X708026Y232826I-3999J60D01*
G01*
X722227Y228316D02*
G03*
X722726Y228814I-2J500D01*
G01*
X717226Y230666D02*
G03*
X717226Y235366I0J2350D01*
G01*
X693326Y228814D02*
G03*
X693824Y228316I500J2D01*
G01*
X717226Y235366D02*
G03*
X717226Y230666I0J-2350D01*
G01*
X708026Y232826D02*
G03*
X704026Y228766I0J-4000D01*
G01*
X722726Y268218D02*
G03*
X722227Y268716I-500J-2D01*
G01*
X693824D02*
G03*
X693326Y268218I2J-500D01*
G01*
X768446Y212800D02*
G03*
X768446Y212800I-6946J0D01*
G01*
X78946Y206500D02*
G03*
X78946Y206500I-6946J0D01*
G01*
X83946Y286500D02*
G03*
X83946Y286500I-6946J0D01*
G01*
X169975Y272234D02*
G03*
X173974Y268174I3999J-60D01*
G01*
X159773Y272684D02*
G03*
X159274Y272186I2J-500D01*
G01*
X164774Y270334D02*
G03*
X164774Y265634I0J-2350D01*
G01*
X188674Y272186D02*
G03*
X188176Y272684I-500J-2D01*
G01*
X164774Y265634D02*
G03*
X164774Y270334I0J2350D01*
G01*
X173974Y268174D02*
G03*
X177974Y272234I0J4000D01*
G01*
X159274Y232782D02*
G03*
X159773Y232284I500J2D01*
G01*
X188176D02*
G03*
X188674Y232782I-2J500D01*
G01*
X221946Y379000D02*
G03*
X221946Y379000I-6946J0D01*
G01*
X690946Y97500D02*
G03*
X690946Y97500I-6946J0D01*
G01*
X221446Y91500D02*
G03*
X221446Y91500I-6946J0D01*
G01*
X667446Y376500D02*
G03*
X667446Y376500I-6946J0D01*
G01*
X568157Y33156D02*
X578000Y38839D01*
X587843Y33156D01*
X578000Y16109D02*
X587843Y21791D01*
X568157D02*
Y33156D01*
X587843Y21791D02*
Y33156D01*
X568157Y21791D02*
X578000Y16109D01*
X10158Y33156D02*
X20000Y38839D01*
X29843Y33156D01*
X20000Y16109D02*
X29843Y21791D01*
X10158D02*
Y33156D01*
X29843Y21791D02*
Y33156D01*
X10158Y21791D02*
X20000Y16109D01*
X10158Y453157D02*
X20000Y458839D01*
X29843Y453157D01*
X20000Y436109D02*
X29843Y441791D01*
X10158D02*
Y453157D01*
X29843Y441791D02*
Y453157D01*
X10158Y441791D02*
X20000Y436109D01*
X568157Y452156D02*
X578000Y457839D01*
X587843Y452156D01*
X578000Y435109D02*
X587843Y440791D01*
X568157D02*
Y452156D01*
X587843Y440791D02*
Y452156D01*
X568157Y440791D02*
X578000Y435109D01*
X855157Y453157D02*
X865000Y458839D01*
X874843Y453157D01*
X865000Y436109D02*
X874843Y441791D01*
X855157D02*
Y453157D01*
X874843Y441791D02*
Y453157D01*
X855157Y441791D02*
X865000Y436109D01*
X855157Y33156D02*
X865000Y38839D01*
X874843Y33156D01*
X865000Y16109D02*
X874843Y21791D01*
X855157D02*
Y33156D01*
X874843Y21791D02*
Y33156D01*
X855157Y21791D02*
X865000Y16109D01*
X687776Y230291D02*
X689394D01*
X693326D02*
Y231741D01*
X690138D02*
X691838D01*
X689394Y230291D02*
X690138D01*
Y231741D01*
X691838Y230291D02*
X693326D01*
X689394Y231741D02*
X690138D01*
X687776D02*
X689394D01*
X687776Y230291D02*
Y231741D01*
X691838D02*
X693326D01*
X690138Y230291D02*
X691838D01*
X687776Y235291D02*
X689394D01*
X693326D02*
Y236741D01*
X690138D02*
X691838D01*
X689394Y235291D02*
X690138D01*
Y236741D01*
X691838Y235291D02*
X693326D01*
X689394Y236741D02*
X690138D01*
X687776D02*
X689394D01*
X687776Y235291D02*
Y236741D01*
X691838D02*
X693326D01*
X690138Y235291D02*
X691838D01*
X687776Y240291D02*
X689394D01*
X693326D02*
Y241741D01*
X690138D02*
X691838D01*
X689394Y240291D02*
X690138D01*
Y241741D01*
X691838Y240291D02*
X693326D01*
X689394Y241741D02*
X690138D01*
X687776D02*
X689394D01*
X687776Y240291D02*
Y241741D01*
X691838D02*
X693326D01*
X690138Y240291D02*
X691838D01*
X687776Y245291D02*
X689394D01*
X693326D02*
Y246741D01*
X690138D02*
X691838D01*
X689394Y245291D02*
X690138D01*
Y246741D01*
X691838Y245291D02*
X693326D01*
X689394Y246741D02*
X690138D01*
X687776D02*
X689394D01*
X687776Y245291D02*
Y246741D01*
X691838D02*
X693326D01*
X690138Y245291D02*
X691838D01*
X687776Y250291D02*
X689394D01*
X693326D02*
Y251741D01*
X690138D02*
X691838D01*
X689394Y250291D02*
X690138D01*
Y251741D01*
X691838Y250291D02*
X693326D01*
X689394Y251741D02*
X690138D01*
X687776D02*
X689394D01*
X687776Y250291D02*
Y251741D01*
X691838D02*
X693326D01*
X690138Y250291D02*
X691838D01*
X687776Y255291D02*
X689394D01*
X693326D02*
Y256741D01*
X690138D02*
X691838D01*
X689394Y255291D02*
X690138D01*
Y256741D01*
X691838Y255291D02*
X693326D01*
X689394Y256741D02*
X690138D01*
X687776D02*
X689394D01*
X687776Y255291D02*
Y256741D01*
X691838D02*
X693326D01*
X690138Y255291D02*
X691838D01*
X687776Y260291D02*
X689394D01*
X693326D02*
Y261741D01*
X690138D02*
X691838D01*
X689394Y260291D02*
X690138D01*
Y261741D01*
X691838Y260291D02*
X693326D01*
X689394Y261741D02*
X690138D01*
X687776D02*
X689394D01*
X687776Y260291D02*
Y261741D01*
X691838D02*
X693326D01*
X690138Y260291D02*
X691838D01*
X687776Y265291D02*
X689394D01*
X693326D02*
Y266741D01*
X690138D02*
X691838D01*
X689394Y265291D02*
X690138D01*
Y266741D01*
X691838Y265291D02*
X693326D01*
X689394Y266741D02*
X690138D01*
X687776D02*
X689394D01*
X687776Y265291D02*
Y266741D01*
X691838D02*
X693326D01*
X690138Y265291D02*
X691838D01*
X726657Y231741D02*
X728276D01*
X722726Y230291D02*
Y231741D01*
X724213Y230291D02*
X725913D01*
Y231741D02*
X726657D01*
X725913Y230291D02*
Y231741D01*
X722726D02*
X724213D01*
X725913Y230291D02*
X726657D01*
X728276D01*
Y231741D01*
X722726Y230291D02*
X724213D01*
Y231741D02*
X725913D01*
X726657Y236741D02*
X728276D01*
X722726Y235291D02*
Y236741D01*
X724213Y235291D02*
X725913D01*
Y236741D02*
X726657D01*
X725913Y235291D02*
Y236741D01*
X722726D02*
X724213D01*
X725913Y235291D02*
X726657D01*
X728276D01*
Y236741D01*
X722726Y235291D02*
X724213D01*
Y236741D02*
X725913D01*
X726657Y241741D02*
X728276D01*
X722726Y240291D02*
Y241741D01*
X724213Y240291D02*
X725913D01*
Y241741D02*
X726657D01*
X725913Y240291D02*
Y241741D01*
X722726D02*
X724213D01*
X725913Y240291D02*
X726657D01*
X728276D01*
Y241741D01*
X722726Y240291D02*
X724213D01*
Y241741D02*
X725913D01*
X726657Y246741D02*
X728276D01*
X722726Y245291D02*
Y246741D01*
X724213Y245291D02*
X725913D01*
Y246741D02*
X726657D01*
X725913Y245291D02*
Y246741D01*
X722726D02*
X724213D01*
X725913Y245291D02*
X726657D01*
X728276D01*
Y246741D01*
X722726Y245291D02*
X724213D01*
Y246741D02*
X725913D01*
X726657Y251741D02*
X728276D01*
X722726Y250291D02*
Y251741D01*
X724213Y250291D02*
X725913D01*
Y251741D02*
X726657D01*
X725913Y250291D02*
Y251741D01*
X722726D02*
X724213D01*
X725913Y250291D02*
X726657D01*
X728276D01*
Y251741D01*
X722726Y250291D02*
X724213D01*
Y251741D02*
X725913D01*
X726657Y256741D02*
X728276D01*
X722726Y255291D02*
Y256741D01*
X724213Y255291D02*
X725913D01*
Y256741D02*
X726657D01*
X725913Y255291D02*
Y256741D01*
X722726D02*
X724213D01*
X725913Y255291D02*
X726657D01*
X728276D01*
Y256741D01*
X722726Y255291D02*
X724213D01*
Y256741D02*
X725913D01*
X726657Y261741D02*
X728276D01*
X722726Y260291D02*
Y261741D01*
X724213Y260291D02*
X725913D01*
Y261741D02*
X726657D01*
X725913Y260291D02*
Y261741D01*
X722726D02*
X724213D01*
X725913Y260291D02*
X726657D01*
X728276D01*
Y261741D01*
X722726Y260291D02*
X724213D01*
Y261741D02*
X725913D01*
X726657Y266741D02*
X728276D01*
X722726Y265291D02*
Y266741D01*
X724213Y265291D02*
X725913D01*
Y266741D02*
X726657D01*
X725913Y265291D02*
Y266741D01*
X722726D02*
X724213D01*
X725913Y265291D02*
X726657D01*
X728276D01*
Y266741D01*
X722726Y265291D02*
X724213D01*
Y266741D02*
X725913D01*
X712025Y228765D02*
X712029Y228772D01*
X712024Y228703D02*
X712025Y228765D01*
X693824Y228316D02*
X722227D01*
X693824Y268716D02*
X722227D01*
X704026Y228765D02*
X704027Y228703D01*
X722726Y228814D02*
Y268218D01*
X693326Y228814D02*
Y268218D01*
X704022Y228772D02*
X704026Y228765D01*
X704027Y228703D02*
X712024D01*
X192606Y270709D02*
X194224D01*
X188674Y269259D02*
Y270709D01*
X190162Y269259D02*
X191862D01*
Y270709D02*
X192606D01*
X191862Y269259D02*
Y270709D01*
X188674D02*
X190162D01*
X191862Y269259D02*
X192606D01*
X194224D01*
Y270709D01*
X188674Y269259D02*
X190162D01*
Y270709D02*
X191862D01*
X192606Y265709D02*
X194224D01*
X188674Y264259D02*
Y265709D01*
X190162Y264259D02*
X191862D01*
Y265709D02*
X192606D01*
X191862Y264259D02*
Y265709D01*
X188674D02*
X190162D01*
X191862Y264259D02*
X192606D01*
X194224D01*
Y265709D01*
X188674Y264259D02*
X190162D01*
Y265709D02*
X191862D01*
X192606Y260709D02*
X194224D01*
X188674Y259259D02*
Y260709D01*
X190162Y259259D02*
X191862D01*
Y260709D02*
X192606D01*
X191862Y259259D02*
Y260709D01*
X188674D02*
X190162D01*
X191862Y259259D02*
X192606D01*
X194224D01*
Y260709D01*
X188674Y259259D02*
X190162D01*
Y260709D02*
X191862D01*
X192606Y255709D02*
X194224D01*
X188674Y254259D02*
Y255709D01*
X190162Y254259D02*
X191862D01*
Y255709D02*
X192606D01*
X191862Y254259D02*
Y255709D01*
X188674D02*
X190162D01*
X191862Y254259D02*
X192606D01*
X194224D01*
Y255709D01*
X188674Y254259D02*
X190162D01*
Y255709D02*
X191862D01*
X192606Y250709D02*
X194224D01*
X188674Y249259D02*
Y250709D01*
X190162Y249259D02*
X191862D01*
Y250709D02*
X192606D01*
X191862Y249259D02*
Y250709D01*
X188674D02*
X190162D01*
X191862Y249259D02*
X192606D01*
X194224D01*
Y250709D01*
X188674Y249259D02*
X190162D01*
Y250709D02*
X191862D01*
X192606Y245709D02*
X194224D01*
X188674Y244259D02*
Y245709D01*
X190162Y244259D02*
X191862D01*
Y245709D02*
X192606D01*
X191862Y244259D02*
Y245709D01*
X188674D02*
X190162D01*
X191862Y244259D02*
X192606D01*
X194224D01*
Y245709D01*
X188674Y244259D02*
X190162D01*
Y245709D02*
X191862D01*
X192606Y240709D02*
X194224D01*
X188674Y239259D02*
Y240709D01*
X190162Y239259D02*
X191862D01*
Y240709D02*
X192606D01*
X191862Y239259D02*
Y240709D01*
X188674D02*
X190162D01*
X191862Y239259D02*
X192606D01*
X194224D01*
Y240709D01*
X188674Y239259D02*
X190162D01*
Y240709D02*
X191862D01*
X192606Y235709D02*
X194224D01*
X188674Y234259D02*
Y235709D01*
X190162Y234259D02*
X191862D01*
Y235709D02*
X192606D01*
X191862Y234259D02*
Y235709D01*
X188674D02*
X190162D01*
X191862Y234259D02*
X192606D01*
X194224D01*
Y235709D01*
X188674Y234259D02*
X190162D01*
Y235709D02*
X191862D01*
X153724Y269259D02*
X155343D01*
X159274D02*
Y270709D01*
X156087D02*
X157787D01*
X155343Y269259D02*
X156087D01*
Y270709D01*
X157787Y269259D02*
X159274D01*
X155343Y270709D02*
X156087D01*
X153724D02*
X155343D01*
X153724Y269259D02*
Y270709D01*
X157787D02*
X159274D01*
X156087Y269259D02*
X157787D01*
X153724Y264259D02*
X155343D01*
X159274D02*
Y265709D01*
X156087D02*
X157787D01*
X155343Y264259D02*
X156087D01*
Y265709D01*
X157787Y264259D02*
X159274D01*
X155343Y265709D02*
X156087D01*
X153724D02*
X155343D01*
X153724Y264259D02*
Y265709D01*
X157787D02*
X159274D01*
X156087Y264259D02*
X157787D01*
X153724Y259259D02*
X155343D01*
X159274D02*
Y260709D01*
X156087D02*
X157787D01*
X155343Y259259D02*
X156087D01*
Y260709D01*
X157787Y259259D02*
X159274D01*
X155343Y260709D02*
X156087D01*
X153724D02*
X155343D01*
X153724Y259259D02*
Y260709D01*
X157787D02*
X159274D01*
X156087Y259259D02*
X157787D01*
X153724Y254259D02*
X155343D01*
X159274D02*
Y255709D01*
X156087D02*
X157787D01*
X155343Y254259D02*
X156087D01*
Y255709D01*
X157787Y254259D02*
X159274D01*
X155343Y255709D02*
X156087D01*
X153724D02*
X155343D01*
X153724Y254259D02*
Y255709D01*
X157787D02*
X159274D01*
X156087Y254259D02*
X157787D01*
X153724Y249259D02*
X155343D01*
X159274D02*
Y250709D01*
X156087D02*
X157787D01*
X155343Y249259D02*
X156087D01*
Y250709D01*
X157787Y249259D02*
X159274D01*
X155343Y250709D02*
X156087D01*
X153724D02*
X155343D01*
X153724Y249259D02*
Y250709D01*
X157787D02*
X159274D01*
X156087Y249259D02*
X157787D01*
X153724Y244259D02*
X155343D01*
X159274D02*
Y245709D01*
X156087D02*
X157787D01*
X155343Y244259D02*
X156087D01*
Y245709D01*
X157787Y244259D02*
X159274D01*
X155343Y245709D02*
X156087D01*
X153724D02*
X155343D01*
X153724Y244259D02*
Y245709D01*
X157787D02*
X159274D01*
X156087Y244259D02*
X157787D01*
X153724Y239259D02*
X155343D01*
X159274D02*
Y240709D01*
X156087D02*
X157787D01*
X155343Y239259D02*
X156087D01*
Y240709D01*
X157787Y239259D02*
X159274D01*
X155343Y240709D02*
X156087D01*
X153724D02*
X155343D01*
X153724Y239259D02*
Y240709D01*
X157787D02*
X159274D01*
X156087Y239259D02*
X157787D01*
X153724Y234259D02*
X155343D01*
X159274D02*
Y235709D01*
X156087D02*
X157787D01*
X155343Y234259D02*
X156087D01*
Y235709D01*
X157787Y234259D02*
X159274D01*
X155343Y235709D02*
X156087D01*
X153724D02*
X155343D01*
X153724Y234259D02*
Y235709D01*
X157787D02*
X159274D01*
X156087Y234259D02*
X157787D01*
X169971Y272228D02*
X169975Y272235D01*
X169976Y272297D01*
X159773Y272684D02*
X188176D01*
X159773Y232284D02*
X188176D01*
X177973Y272297D02*
X177974Y272235D01*
X159274Y232782D02*
Y272186D01*
X188674Y232782D02*
Y272186D01*
X177974Y272235D02*
X177978Y272228D01*
X169976Y272297D02*
X177973D01*
X523500Y78001D02*
X521501D01*
X522500D01*
Y81000D01*
X520501D02*
Y78001D01*
X519001D01*
X518502Y78501D01*
Y79501D01*
X519001Y80000D01*
X520501D01*
X517502Y81000D02*
X516502D01*
X517002D01*
Y78001D01*
X517502Y78501D01*
X515003Y81000D02*
X514003D01*
X514503D01*
Y78001D01*
X515003Y78501D01*
X399500Y116001D02*
X397501D01*
X398500D01*
Y119000D01*
X396501D02*
Y116001D01*
X395002D01*
X394502Y116501D01*
Y117500D01*
X395002Y118000D01*
X396501D01*
X393502Y116001D02*
X391503D01*
Y116501D01*
X393502Y118500D01*
Y119000D01*
X375500Y96001D02*
X373501D01*
X374500D01*
Y99000D01*
X372501D02*
Y96001D01*
X371002D01*
X370502Y96501D01*
Y97500D01*
X371002Y98000D01*
X372501D01*
X369502Y96501D02*
X369002Y96001D01*
X368002D01*
X367503Y96501D01*
Y97001D01*
X368002Y97500D01*
X367503Y98000D01*
Y98500D01*
X368002Y99000D01*
X369002D01*
X369502Y98500D01*
Y98000D01*
X369002Y97500D01*
X369502Y97001D01*
Y96501D01*
X369002Y97500D02*
X368002D01*
X483500Y74001D02*
X481501D01*
X482500D01*
Y77000D01*
X480501D02*
Y74001D01*
X479002D01*
X478502Y74501D01*
Y75501D01*
X479002Y76000D01*
X480501D01*
X477502Y77000D02*
X476502D01*
X477002D01*
Y74001D01*
X477502Y74501D01*
X473003Y77000D02*
X475003D01*
X473003Y75001D01*
Y74501D01*
X473503Y74001D01*
X474503D01*
X475003Y74501D01*
X647500Y182001D02*
X645501D01*
X646500D01*
Y185000D01*
X644501D02*
Y182001D01*
X643002D01*
X642502Y182501D01*
Y183501D01*
X643002Y184000D01*
X644501D01*
X639503Y182001D02*
X641502D01*
Y183501D01*
X640502Y183001D01*
X640002D01*
X639503Y183501D01*
Y184500D01*
X640002Y185000D01*
X641002D01*
X641502Y184500D01*
X649500Y346001D02*
X647501D01*
X648500D01*
Y349000D01*
X646501D02*
Y346001D01*
X645002D01*
X644502Y346501D01*
Y347500D01*
X645002Y348000D01*
X646501D01*
X641503Y346001D02*
X642502Y346501D01*
X643502Y347500D01*
Y348500D01*
X643002Y349000D01*
X642002D01*
X641503Y348500D01*
Y348000D01*
X642002Y347500D01*
X643502D01*
X247500Y282501D02*
X245501D01*
X246500D01*
Y285500D01*
X244501D02*
Y282501D01*
X243002D01*
X242502Y283001D01*
Y284000D01*
X243002Y284500D01*
X244501D01*
X241502Y285500D02*
X240502D01*
X241002D01*
Y282501D01*
X241502Y283001D01*
X265500Y173001D02*
X263501D01*
X264500D01*
Y176000D01*
X262501D02*
Y173001D01*
X261001D01*
X260502Y173501D01*
Y174501D01*
X261001Y175000D01*
X262501D01*
X257503Y176000D02*
X259502D01*
X257503Y174001D01*
Y173501D01*
X258002Y173001D01*
X259002D01*
X259502Y173501D01*
X23001Y276000D02*
Y277999D01*
Y277000D01*
X26000D01*
Y278999D02*
X23001D01*
Y280499D01*
X23501Y280998D01*
X24500D01*
X25000Y280499D01*
Y278999D01*
X26000Y281998D02*
Y282998D01*
Y282498D01*
X23001D01*
X23501Y281998D01*
X23001Y286497D02*
Y284497D01*
X24500D01*
X24001Y285497D01*
Y285997D01*
X24500Y286497D01*
X25500D01*
X26000Y285997D01*
Y284997D01*
X25500Y284497D01*
X756000Y214799D02*
X757999D01*
X757000D01*
Y211800D01*
X758999D02*
Y214799D01*
X760499D01*
X760998Y214299D01*
Y213299D01*
X760499Y212800D01*
X758999D01*
X761998Y211800D02*
X762998D01*
X762498D01*
Y214799D01*
X761998Y214299D01*
X765997Y211800D02*
Y214799D01*
X764497Y213299D01*
X766497D01*
X70001Y201000D02*
Y202999D01*
Y202000D01*
X73000D01*
Y203999D02*
X70001D01*
Y205499D01*
X70501Y205998D01*
X71500D01*
X72000Y205499D01*
Y203999D01*
X73000Y206998D02*
Y207998D01*
Y207498D01*
X70001D01*
X70501Y206998D01*
X70001Y211497D02*
X70501Y210497D01*
X71500Y209497D01*
X72500D01*
X73000Y209997D01*
Y210997D01*
X72500Y211497D01*
X72000D01*
X71500Y210997D01*
Y209497D01*
X82500Y284501D02*
X80501D01*
X81500D01*
Y287500D01*
X79501D02*
Y284501D01*
X78001D01*
X77502Y285001D01*
Y286000D01*
X78001Y286500D01*
X79501D01*
X76502Y287500D02*
X75502D01*
X76002D01*
Y284501D01*
X76502Y285001D01*
X74003D02*
X73503Y284501D01*
X72503D01*
X72003Y285001D01*
Y285501D01*
X72503Y286000D01*
X73003D01*
X72503D01*
X72003Y286500D01*
Y287000D01*
X72503Y287500D01*
X73503D01*
X74003Y287000D01*
X220500Y377001D02*
X218501D01*
X219500D01*
Y380000D01*
X217501D02*
Y377001D01*
X216002D01*
X215502Y377501D01*
Y378501D01*
X216002Y379000D01*
X217501D01*
X214502Y377501D02*
X214002Y377001D01*
X213002D01*
X212503Y377501D01*
Y378001D01*
X213002Y378501D01*
X213502D01*
X213002D01*
X212503Y379000D01*
Y379500D01*
X213002Y380000D01*
X214002D01*
X214502Y379500D01*
X689500Y95501D02*
X687501D01*
X688500D01*
Y98500D01*
X686501D02*
Y95501D01*
X685002D01*
X684502Y96001D01*
Y97000D01*
X685002Y97500D01*
X686501D01*
X682002Y98500D02*
Y95501D01*
X683502Y97000D01*
X681503D01*
X220000Y89501D02*
X218001D01*
X219000D01*
Y92500D01*
X217001D02*
Y89501D01*
X215501D01*
X215002Y90001D01*
Y91000D01*
X215501Y91500D01*
X217001D01*
X214002Y92000D02*
X213502Y92500D01*
X212502D01*
X212003Y92000D01*
Y90001D01*
X212502Y89501D01*
X213502D01*
X214002Y90001D01*
Y90501D01*
X213502Y91000D01*
X212003D01*
X666000Y374501D02*
X664001D01*
X665000D01*
Y377500D01*
X663001D02*
Y374501D01*
X661502D01*
X661002Y375001D01*
Y376000D01*
X661502Y376500D01*
X663001D01*
X660002Y377500D02*
X659002D01*
X659502D01*
Y374501D01*
X660002Y375001D01*
X657503D02*
X657003Y374501D01*
X656003D01*
X655503Y375001D01*
Y377000D01*
X656003Y377500D01*
X657003D01*
X657503Y377000D01*
Y375001D01*
D17*
X590598Y27500D02*
G03*
X590598Y27500I-12598J0D01*
G01*
X32598D02*
G03*
X32598Y27500I-12598J0D01*
G01*
Y447500D02*
G03*
X32598Y447500I-12598J0D01*
G01*
X590598Y446500D02*
G03*
X590598Y446500I-12598J0D01*
G01*
X877598Y447500D02*
G03*
X877598Y447500I-12598J0D01*
G01*
Y27500D02*
G03*
X877598Y27500I-12598J0D01*
G01*
X876221D02*
G03*
X876221Y27500I-11220J0D01*
G01*
Y447500D02*
G03*
X876221Y447500I-11220J0D01*
G01*
X589221Y27500D02*
G03*
X589221Y27500I-11220J0D01*
G01*
X31220D02*
G03*
X31220Y27500I-11220J0D01*
G01*
Y447500D02*
G03*
X31220Y447500I-11220J0D01*
G01*
X589221Y446500D02*
G03*
X589221Y446500I-11220J0D01*
G01*
X464606Y99500D02*
G03*
X464606Y99500I-24606J0D01*
G01*
X459094Y74894D02*
G03*
X464606Y80405I0J5512D01*
G01*
X420905Y124106D02*
G03*
X415394Y118595I0J-5512D01*
G01*
X464606D02*
G03*
X459094Y124106I-5512J0D01*
G01*
X415394Y80405D02*
G03*
X420905Y74894I5512J0D01*
G01*
Y124106D02*
X459094D01*
X415394Y80405D02*
Y118595D01*
X420905Y74894D02*
X459094D01*
X464606Y80405D02*
Y118595D01*
D89*
X570700Y26101D02*
Y29100D01*
Y27600D01*
X572699D01*
Y26101D01*
Y29100D01*
X573699D02*
X574699D01*
X574199D01*
Y26101D01*
X573699Y26601D01*
X576198D02*
X576698Y26101D01*
X577698D01*
X578198Y26601D01*
Y28600D01*
X577698Y29100D01*
X576698D01*
X576198Y28600D01*
Y26601D01*
X12700Y26101D02*
Y29100D01*
Y27600D01*
X14699D01*
Y26101D01*
Y29100D01*
X15699Y28600D02*
X16199Y29100D01*
X17199D01*
X17698Y28600D01*
Y26601D01*
X17199Y26101D01*
X16199D01*
X15699Y26601D01*
Y27101D01*
X16199Y27600D01*
X17698D01*
X12700Y446101D02*
Y449100D01*
Y447601D01*
X14699D01*
Y446101D01*
Y449100D01*
X15699Y446601D02*
X16199Y446101D01*
X17199D01*
X17698Y446601D01*
Y447101D01*
X17199Y447601D01*
X17698Y448100D01*
Y448600D01*
X17199Y449100D01*
X16199D01*
X15699Y448600D01*
Y448100D01*
X16199Y447601D01*
X15699Y447101D01*
Y446601D01*
X16199Y447601D02*
X17199D01*
X570700Y445101D02*
Y448100D01*
Y446600D01*
X572699D01*
Y445101D01*
Y448100D01*
X573699Y445101D02*
X575698D01*
Y445601D01*
X573699Y447600D01*
Y448100D01*
X857700Y446101D02*
Y449100D01*
Y447601D01*
X859699D01*
Y446101D01*
Y449100D01*
X862698Y446101D02*
X861699Y446601D01*
X860699Y447601D01*
Y448600D01*
X861199Y449100D01*
X862199D01*
X862698Y448600D01*
Y448100D01*
X862199Y447601D01*
X860699D01*
X857700Y26101D02*
Y29100D01*
Y27600D01*
X859699D01*
Y26101D01*
Y29100D01*
X862698Y26101D02*
X860699D01*
Y27600D01*
X861699Y27101D01*
X862199D01*
X862698Y27600D01*
Y28600D01*
X862199Y29100D01*
X861199D01*
X860699Y28600D01*
D90*
X870512Y26076D02*
Y29075D01*
Y27575D01*
X868513D01*
Y26076D01*
Y29075D01*
X867513D02*
X866513D01*
X867013D01*
Y26076D01*
X867513Y26576D01*
X863014Y26076D02*
X864014Y26576D01*
X865014Y27575D01*
Y28575D01*
X864514Y29075D01*
X863514D01*
X863014Y28575D01*
Y28075D01*
X863514Y27575D01*
X865014D01*
X870512Y446076D02*
Y449075D01*
Y447575D01*
X868513D01*
Y446076D01*
Y449075D01*
X867513D02*
X866513D01*
X867013D01*
Y446076D01*
X867513Y446576D01*
X863014Y446076D02*
X865014D01*
Y447575D01*
X864014Y447076D01*
X863514D01*
X863014Y447575D01*
Y448575D01*
X863514Y449075D01*
X864514D01*
X865014Y448575D01*
X583512Y26076D02*
Y29075D01*
Y27575D01*
X581512D01*
Y26076D01*
Y29075D01*
X580513D02*
X579513D01*
X580013D01*
Y26076D01*
X580513Y26576D01*
X576514Y29075D02*
Y26076D01*
X578014Y27575D01*
X576014D01*
X25512Y26076D02*
Y29075D01*
Y27575D01*
X23513D01*
Y26076D01*
Y29075D01*
X22513D02*
X21513D01*
X22013D01*
Y26076D01*
X22513Y26576D01*
X20014D02*
X19514Y26076D01*
X18514D01*
X18014Y26576D01*
Y27075D01*
X18514Y27575D01*
X19014D01*
X18514D01*
X18014Y28075D01*
Y28575D01*
X18514Y29075D01*
X19514D01*
X20014Y28575D01*
X25512Y446076D02*
Y449075D01*
Y447575D01*
X23513D01*
Y446076D01*
Y449075D01*
X22513D02*
X21513D01*
X22013D01*
Y446076D01*
X22513Y446576D01*
X18014Y449075D02*
X20014D01*
X18014Y447076D01*
Y446576D01*
X18514Y446076D01*
X19514D01*
X20014Y446576D01*
X583512Y445076D02*
Y448075D01*
Y446575D01*
X581512D01*
Y445076D01*
Y448075D01*
X580513D02*
X579513D01*
X580013D01*
Y445076D01*
X580513Y445576D01*
X578014Y448075D02*
X577014D01*
X577514D01*
Y445076D01*
X578014Y445576D01*
M02*
